<?xml version="1.0" encoding="utf-8" ?>
<svg baseProfile="full" height="200mm" version="1.1" viewBox="0,0,200,200" width="200mm" xmlns="http://www.w3.org/2000/svg" xmlns:ev="http://www.w3.org/2001/xml-events" xmlns:xlink="http://www.w3.org/1999/xlink"><defs /><rect fill="#1a1a1a" height="200" width="200" x="0" y="0" /><rect fill="#1a1a1a" height="200" width="180" x="10" y="0" /><text alignment-baseline="middle" fill="#e1ed5e" style="dominant-baseline: central; font-size:9.0px; font-family:Arial;" text-anchor="middle" x="100.0" y="100.0">2021</text><line stroke="#e1ed5e" stroke-width="0.3" x1="100.0" x2="100.0" y1="15.0" y2="10.0" /><path d="M 100.0 14.0 a86.0,86.0 0 0,1 42.46469731375804,11.215312516191453" fill="none" id="id73" stroke="none" /><text fill="#e1ed5e" style="font-size:6.75px; font-family:Arial;" text-anchor="middle"><textPath startOffset="22.20632615414155" xlink:href="#id73">January</textPath></text><path d="M 100.0 79.0 l 0.0 -7.170709362184802 a28.1707093621848,28.1707093621848 0 0,0 0.4849124534137935,0.00417379457885772 l -0.12343197414126517 7.169646944214503" fill="#ff5b08" stroke="none" /><path d="M 100.36148047927253 79.00311137660856 l 0.12445860267283487 -7.229279500247255 a28.230350754733443,28.230350754733443 0 0,0 0.4857950877079585,0.01254665388038198 l -0.24888032557566114 7.226066054224513" fill="#ff5b08" stroke="none" /><path d="M 101.08401301168833 79.027996857942 l 0.298176879853245 -5.768719004056794 a26.77642003315592,26.77642003315592 0 0,0 0.46009278781780727,0.027754053420073053 l -0.39743171651066417 5.762731681256417" fill="#ff4706" stroke="none" /><path d="M 101.80526077348638 79.07773832637324 l 0.5333560339501107 -6.181386463054498 a27.20435389582061,27.20435389582061 0 0,0 0.46619825718335534,0.04427114196219331 l -0.6396794182237102 6.171289776577126" fill="#ff4d07" stroke="none" /><path d="M 102.16513564639614 79.11191278185805 l 0.5685252134235093 -5.48483152243585 a26.514217782043453,26.514217782043453 0 0,0 0.45356142179545383,0.05096291048785833 l -0.6628533387286883 5.474232658477391" fill="#ff4406" stroke="none" /><path d="M 102.88285421437855 79.19881850522331 l 0.9157130725619 -6.607310811797584 a27.67046374661897,27.67046374661897 0 0,0 0.47122934103406,0.06944695548908383 l -1.029311394024616 6.590569372147531" fill="#ff5407" stroke="none" /><path d="M 103.59715602781102 79.31037775812273 l 0.9408755328828646 -5.411597162166267 a26.492779862141173,26.492779862141173 0 0,0 0.4486172273582961,0.0819819308105758 l -1.0338878813440615 5.394599750004953" fill="#ff4306" stroke="none" /><path d="M 103.95276090670814 79.375362276772 l 1.037198805757673 -5.411875425961938 a26.51036995026612,26.51036995026612 0 0,0 0.44743645751560224,0.08975154411397984 l -1.1302016727404007 5.39321992577075" fill="#ff4406" stroke="none" /><path d="M 104.307194497241 79.44645832069477 l 0.7496908596825075 -3.5774568204312045 a24.65516534333828,24.65516534333828 0 0,0 0.41462623943798543,0.09062123651048604 l -0.8111598232740209 3.5640220858248477" fill="#ff2a04" stroke="none" /><path d="M 104.66035177308747 79.52364482259891 l 0.9840779448607455 -4.3237786549889545 a25.434351278247973,25.434351278247973 0 0,0 0.4260572531981952,0.10083398647425079 l -1.0583588850214642 4.306198756373835" fill="#ff3505" stroke="none" /><path d="M 105.36241919743992 79.69619591428918 l 1.2525490195014877 -4.7425441695883555 a25.905160980717213,25.905160980717213 0 0,0 0.4301516339988408,0.11757669064399436 l -1.3339985427240393 4.7202809381180675" fill="#ff3b05" stroke="none" /><path d="M 105.71112130821622 79.79150937346287 l 1.5134645874979744 -5.355311729423133 a26.56506413052962,26.56506413052962 0 0,0 0.4389684342903942,0.12814692327640284 l -1.6054232395117958 5.328466477228027" fill="#ff4406" stroke="none" /><path d="M 106.40334571778207 80.00007090966166 l 1.3441662416129476 -4.19830986842252 a25.408240991187505,25.408240991187505 0 0,0 0.4153850280418579,0.13694591290077746 l -1.416234091897223 4.174550231262506" fill="#ff3405" stroke="none" /><path d="M 106.74666289553966 80.11325718540242 l 0.9308522848544498 -2.7438187254797266 a23.89741732833086,23.89741732833086 0 0,0 0.38841040907473745,0.13550876508787352 l -0.977944697992461 2.7273891072196452" fill="#ff1f03" stroke="none" /><path d="M 107.08798089147638 80.2323363322302 l 1.4875112153584813 -4.148518718864258 a25.407141610679695,25.407141610679695 0 0,0 0.41040721361626487,0.15115644034382253 l -1.5587007547473226 4.122299010714111" fill="#ff3405" stroke="none" /><path d="M 107.4271985657038 80.35727306442388 l 2.3868000207088107 -6.312374799443364 a27.74854724718611,27.74854724718611 0 0,0 0.44532036043351736,0.17277738138130794 l -2.495103546141995 6.270354714171509" fill="#ff5507" stroke="none" /><path d="M 108.09893153111575 80.62456947434976 l 3.0281425178550916 -7.244358684976564 a28.851775586772533,28.851775586772533 0 0,0 0.4565673163844462,0.19547829759988683 l -3.152393592029853 7.191160859413887" fill="#ff6409" stroke="none" /><path d="M 108.76106565485865 80.91482961587045 l 2.505629613776782 -5.458282129404057 a27.00591571416107,27.00591571416107 0 0,0 0.4208059069276229,0.19757401569370256 l -2.599213732004003 5.414343131070352" fill="#ff4b06" stroke="none" /><path d="M 109.41281617654863 81.2277094730956 l 1.569487105259962 -3.130080027651541 a24.501526917371958,24.501526917371958 0 0,0 0.37538615827267785,0.19228737034475551 l -1.6231337511213955 3.102600131994285" fill="#ff2703" stroke="none" /><path d="M 110.05341064243156 81.56283822128135 l 1.6539312247015707 -3.033179350298754 a24.45480324579007,24.45480324579007 0 0,0 0.3678420596108615,0.20470370791929662 l -1.7058973733844673 3.0042602448192777" fill="#ff2703" stroke="none" /><path d="M 110.36928655335952 81.73862282372117 l 4.82224752334688 -8.492472496353491 a30.766071895995115,30.766071895995115 0 0,0 0.45827275325113825,0.265461158142531 l -4.967717009063346 8.408207180820911" fill="#ff7e0b" stroke="none" /><line stroke="#e1ed5e" stroke-width="0.3" x1="143.23703022742887" x2="145.7803849466894" y1="26.81831364943548" y2="22.513508569990506" /><path d="M 143.74570117128098 25.957352633546492 a86.0,86.0 0 0,1 28.547481713284135,27.462654790039103" fill="none" id="id74" stroke="none" /><text fill="#e1ed5e" style="font-size:6.75px; font-family:Arial;" text-anchor="middle"><textPath startOffset="19.985693538727396" xlink:href="#id74">February</textPath></text><path d="M 110.99172775467656 82.1063720568725 l 2.302882530715412 -3.748903186199959 a25.399720792251983,25.399720792251983 0 0,0 0.37057085646847676,0.23205143632432446 l -2.367072539556152 3.70870740855269" fill="#ff3404" stroke="none" /><path d="M 111.60114157652 82.49532879139004 l 2.4390638463295184 -3.6802421904080416 a25.41511211936131,25.41511211936131 0 0,0 0.36258325152819304,0.2448178299685949 l -2.5020517922642536 3.6377124481407765" fill="#ff3405" stroke="none" /><path d="M 111.90073688211348 82.69761687909136 l 3.3403263655938233 -4.856472930952882 a26.894328592618443,26.894328592618443 0 0,0 0.37917015324187503,0.2656329235141113 l -3.423427658419349 4.798255164674835" fill="#ff4906" stroke="none" /><path d="M 112.19680574252982 82.90503203632743 l 3.893857636474084 -5.45760693051913 a27.704297181746792,27.704297181746792 0 0,0 0.3858214984727801,0.2803157268592284 l -3.9872244513006527 5.389771968843227" fill="#ff5407" stroke="none" /><path d="M 112.77801427241765 83.33499621200491 l 5.027475766391493 -6.55680146420088 a29.26239420643923,29.26239420643923 0 0,0 0.3970871289012608,0.30993280259910516 l -5.139595450452184 6.469290272378551" fill="#ff6a09" stroke="none" /><path d="M 113.06298171725822 83.55741782278167 l 2.6021103970421877 -3.2753176084625624 a25.183142832213594,25.183142832213594 0 0,0 0.3370902792190589,0.2725702294042232 l -2.6581040748257374 3.2300412817942092" fill="#ff3104" stroke="none" /><path d="M 113.6212207817346 84.01681056812373 l 3.7715366921522224 -4.425534712775165 a26.814623505802288,26.814623505802288 0 0,0 0.3487257126850881,0.30241150164027253 l -3.847156203484075 4.359958217715222" fill="#ff4806" stroke="none" /><path d="M 113.89432698308785 84.25364557470407 l 4.920053802300297 -5.5758663990595085 a28.436209754820695,28.436209754820695 0 0,0 0.364239427545833,0.3270177544111129 l -5.015304217442119 5.490349635879098" fill="#ff5e08" stroke="none" /><path d="M 114.42810811169701 84.74124197986012 l 7.6369772667484765 -8.076650605643271 a32.11556146933077,32.11556146933077 0 0,0 0.39841151921695483,0.38327156582567756 l -7.77487202957785 7.943995953055293" fill="#ff900d" stroke="none" /><path d="M 114.94478906791727 85.2469230424477 l 4.002272147819428 -3.9509309053150043 a26.623880987697408,26.623880987697408 0 0,0 0.3191515373104192,0.3289137134105378 l -4.069687948832956 3.8814529963543523" fill="#ff4506" stroke="none" /><path d="M 115.19652480421416 85.50635884689758 l 5.981617880028891 -5.704950584759904 a29.265967193089608,29.265967193089608 0 0,0 0.34454778306057704,0.36753955206958283 l -6.0789329850599305 5.601141615812266" fill="#ff6a09" stroke="none" /><path d="M 115.4437574822437 85.77008943001954 l 4.988666500557413 -4.5965677878591045 a27.78345257830905,27.78345257830905 0 0,0 0.3210395930366425,0.3544999370660272 l -5.067049734210091 4.510015063523528" fill="#ff5507" stroke="none" /><path d="M 115.68641384162765 86.03803664274999 l 2.0887388677871024 -1.8591180769129447 a23.796274321612426,23.796274321612426 0 0,0 0.2697003288132037,0.30831409824942824 l -2.1204310601781544 1.8228884224605686" fill="#ff1d03" stroke="none" /><path d="M 116.15771136456269 86.58626213691792 l 4.004182855178359 -3.324174938104776 a26.204192478841286,26.204192478841286 0 0,0 0.2851284521588219,0.3495337683790374 l -4.060809799413589 3.2547570001176376" fill="#ff3f05" stroke="none" /><path d="M 116.38621287248628 86.86637796730983 l 3.4517419446296143 -2.766586422862075 a25.423632318296832,25.423632318296832 0 0,0 0.2707567440222145,0.3438335691303642 l -3.4988527692457927 2.7067604597786725" fill="#ff3405" stroke="none" /><path d="M 116.60985879189232 87.15038557335679 l 3.527330539532914 -2.7287912532071297 a25.45963702992758,25.45963702992758 0 0,0 0.2651731034098216,0.3489367208455306 l -3.573779583166849 2.6676697564805654" fill="#ff3505" stroke="none" /><path d="M 116.82858285166822 87.43820079747576 l 3.5724580820267637 -2.666683313824403 a25.457987959165866,25.457987959165866 0 0,0 0.2591106589072223,0.3534266475550359 l -3.6178313534476128 2.604794222597873" fill="#ff3505" stroke="none" /><path d="M 117.04232023915458 87.72973835380427 l 3.588835171206663 -2.5839173268557194 a25.42225809266207,25.42225809266207 0 0,0 0.2526335447631992,0.3573322328894979 l -3.632781335773745 2.521758593634428" fill="#ff3405" stroke="none" /><path d="M 117.45458315368197 88.32363383020206 l 3.7686274097324604 -2.52104981288487 a25.53412005933165,25.53412005933165 0 0,0 0.24124073014029052,0.3674261825788261 l -3.8114647752306756 2.45580556632837" fill="#ff3605" stroke="none" /><path d="M 117.65298651832404 88.62581576622439 l 9.774372842390067 -6.297830532162696 a32.62759794084286,32.62759794084286 0 0,0 0.30013102490252963,0.47473520477426945 l -9.881331463538551 6.128647679674221" fill="#ff970d" stroke="none" /><line stroke="#e1ed5e" stroke-width="0.3" x1="172.23445277983987" x2="176.4835382374775" y1="55.19839476539836" y2="52.563006222186495" /><path d="M 173.08426987136738 54.67131705675599 a86.0,86.0 0 0,1 12.851231095245387,41.99856678651699" fill="none" id="id75" stroke="none" /><text fill="#e1ed5e" style="font-size:6.75px; font-family:Arial;" text-anchor="middle"><textPath startOffset="22.20632615414155" xlink:href="#id75">March</textPath></text><path d="M 117.84615892207809 88.93136811851018 l 2.948563522803164 -1.8287724745475191 a24.469644882645493,24.469644882645493 0 0,0 0.21892665214263973,0.35985785323520725 l -2.9796059732320272 1.7777468481052305" fill="#ff2703" stroke="none" /><path d="M 118.21658344932153 89.55222093294921 l 5.037971706669749 -2.8894339865524428 a26.80775237762848,26.80775237762848 0 0,0 0.22613278513435697,0.40226499217978423 l -5.086962133096539 2.8022854844378644" fill="#ff4806" stroke="none" /><path d="M 118.3937258080291 89.86733742301442 l 4.269427543914966 -2.351925278808648 a25.87437832649856,25.87437832649856 0 0,0 0.21154386649605217,0.3919586566718888 l -4.309279509629483 2.2780856388043005" fill="#ff3b05" stroke="none" /><path d="M 118.56541770881063 90.18545643968196 l 7.399277114589061 -3.9116021354873722 a29.369583805950615,29.369583805950615 0 0,0 0.2324260847886857,0.4489732160748089 l -7.4655126325378625 3.7836561971522187" fill="#ff6b09" stroke="none" /><path d="M 118.89224826269711 90.83032412892265 l 6.472255787335656 -3.1414200628390265 a28.194346043102698,28.194346043102698 0 0,0 0.2081572539987227,0.4384322636395384 l -6.525371235176135 3.0295453835589474" fill="#ff5b08" stroke="none" /><path d="M 119.04729006885535 91.15688171328212 l 4.650972308018073 -2.159314953432887 a26.127785533548554,26.127785533548554 0 0,0 0.18587764864717785,0.4095567597780441 l -4.6874522736285975 2.0789361848127803" fill="#ff3e05" stroke="none" /><path d="M 119.196687751892 91.48605970444005 l 4.047032278694831 -1.7949029353574673 a25.42720530494721,25.42720530494721 0 0,0 0.17400598214563745,0.40162979763919343 l -4.0773289706831495 1.7249739931316712" fill="#ff3405" stroke="none" /><path d="M 119.47837535516314 92.15188598940014 l 5.2181685517603285 -2.1024742040350106 a26.625804903586076,26.625804903586076 0 0,0 0.16762395942121563,0.4265846931077257 l -5.2535860610632445 2.0123405060315003" fill="#ff4506" stroke="none" /><path d="M 119.61058180528143 92.48833698450437 l 6.939076298153592 -2.657952900535817 a28.43071285228165,28.43071285228165 0 0,0 0.17111960238839385,0.45851545908716984 l -6.9838004890436105 2.538114304419314" fill="#ff5e08" stroke="none" /><path d="M 119.7369772167798 92.82701384747503 l 11.043993420201605 -4.0137053917422465 a32.75072855771748,32.75072855771748 0 0,0 0.18799997280319197,0.5315012394632274 l -11.111446473814606 3.823006525852404" fill="#ff980e" stroke="none" /><path d="M 120.08093135843002 93.85539295169968 l 5.5270306229969 -1.6912278975537336 a26.779993019806298,26.779993019806298 0 0,0 0.13108692180123158,0.44195993351418655 l -5.5553234419098345 1.595838577293017" fill="#ff4706" stroke="none" /><path d="M 120.18372546131832 94.20196356495316 l 5.397354663105171 -1.5504600005349942 a26.61563563388884,26.61563563388884 0 0,0 0.12270217329265534,0.44142500207634483 l -5.423243606964189 1.4573236950396975" fill="#ff4506" stroke="none" /><path d="M 120.28053869075195 94.5502522615342 l 5.360867811758797 -1.440562190129051 a26.551047029055056,26.551047029055056 0 0,0 0.11480630775820481,0.44239553623271144 l -5.384870451387305 1.3480702283474892" fill="#ff4406" stroke="none" /><path d="M 120.37134235888165 94.90015583598534 l 8.420842121929823 -2.1081076443099027 a29.68070848966059,29.68070848966059 0 0,0 0.11980716880683102,0.49667806181327495 l -8.455882090997473 1.9628443508372218" fill="#ff6f0a" stroke="none" /><path d="M 120.53481517161879 95.60439243477599 l 6.933926770278746 -1.48425104942125 a28.09100427536864,28.09100427536864 0 0,0 0.09714230994914776,0.47370040270122443 l -6.958448376142891 1.3646749905566136" fill="#ff5a08" stroke="none" /><path d="M 120.67395015179393 96.31383870115 l 5.619901552911091 -1.0020273559521116 a26.70853328679871,26.70853328679871 0 0,0 0.07680374317690158,0.45330003984069356 l -5.636317157608215 0.9051415277955801" fill="#ff4606" stroke="none" /><path d="M 120.73433829027371 96.67025291283417 l 4.793990318069656 -0.769871460281017 a25.855414012738855,25.855414012738855 0 0,0 0.0667858968037155,0.4400356151249078 l -4.8065321083126715 0.6872367327640271" fill="#ff3a05" stroke="none" /><path d="M 120.78858239683441 97.02765380044208 l 5.5969190535548465 -0.8002460562486581 a26.653839106535205,26.653839106535205 0 0,0 0.06102967736718673,0.45474198406814853 l -5.609864729979869 0.7037857301158452" fill="#ff4606" stroke="none" /><path d="M 120.83666639777658 97.38593545837742 l 3.757363096089769 -0.47138008796539377 a24.786816159148415,24.786816159148415 0 0,0 0.049466986447373726,0.4238029309015696 l -3.7649204355407315 0.4066334187389714" fill="#ff2b04" stroke="none" /><path d="M 120.87857604477298 97.74499172005257 l 4.148845040848815 -0.44809952073695797 a25.17297356251636,25.17297356251636 0 0,0 0.04282147479896915,0.4312064073984518 l -4.155943641330012 0.37661758263407125" fill="#ff3104" stroke="none" /><path d="M 120.91429891909075 98.10471618934814 l 5.060052305448632 -0.45854920849459524 a26.080787016839718,26.080787016839718 0 0,0 0.03666898566981011,0.4474545043064602 l -5.067195774937938 0.37138078698036625" fill="#ff3e05" stroke="none" /><path d="M 120.94382443527127 98.46500227214037 l 7.043254107812954 -0.5162084453889706 a28.062145537038653,28.062145537038653 0 0,0 0.03116155471770573,0.48205545905232544 l -7.051096253535076 0.39489392208360985" fill="#ff5908" stroke="none" /><path d="M 120.98425023603335 99.18683210126433 l 6.321091136452451 -0.24495077686022346 a27.325835441933513,27.325835441933513 0 0,0 0.01416819264507311,0.47017333770107483 l -6.324371023553169 0.13610729173414954" fill="#ff4f07" stroke="none" /><line stroke="#e1ed5e" stroke-width="0.3" x1="184.98032266829074" x2="189.97916517819016" y1="98.17113171792111" y2="98.06355123074" /><path d="M 185.9800911702706 98.14961562048488 a86.0,86.0 0 0,1 -9.607161424134198,41.387399972396054" fill="none" id="id76" stroke="none" /><text fill="#e1ed5e" style="font-size:6.75px; font-family:Arial;" text-anchor="middle"><textPath startOffset="21.466115282336823" xlink:href="#id76">April</textPath></text><path d="M 120.99513854157772 99.54816195383933 l 5.606641743334152 -0.12066098281819546 a26.607939970334176,26.607939970334176 0 0,0 0.005913288878752451,0.45799074033236054 l -5.6078880393306205 0.024133984425372186" fill="#ff4506" stroke="none" /><path d="M 120.99980553446 99.90962569577887 l 4.619828957709685 -0.019881794952268238 a25.619871738940756,25.619871738940756 0 0,0 -0.0018979478050883468,0.4410162287268745 l -4.619486712615093 -0.05964391197829101" fill="#ff3705" stroke="none" /><path d="M 120.9904718944345 100.63252640178507 l 12.634117598200183 0.3807162118274183 a33.63985254340808,33.63985254340808 0 0,0 -0.022423151752749556,0.5786419117034645 l -12.625692313596229 -0.598135370544889" fill="#ffa40f" stroke="none" /><path d="M 120.95626037817324 101.35467743843564 l 3.8466741794417554 0.24866090752194228 a24.85470290550563,24.85470290550563 0 0,0 -0.03127365638756876,0.42670419437269314 l -3.841823964389849 -0.3148382383914057" fill="#ff2c04" stroke="none" /><path d="M 120.92983693683757 101.71520430193887 l 2.40891265189621 0.19741087118816558 a23.41698804641829,23.41698804641829 0 0,0 -0.03638041376139512,0.40145483432601115 l -2.4051576418577394 -0.23884709406274726" fill="#ff1802" stroke="none" /><path d="M 120.89721153311464 102.0752229133903 l 5.945339642790938 0.590409157463725 a26.97458336968851,26.97458336968851 0 0,0 -0.04986148782758612,0.4616554513662566 l -5.9342958534623005 -0.692660930714773" fill="#ff4a06" stroke="none" /><path d="M 120.8583938346157 102.4346265915055 l 6.8894941785733765 0.8041532757589808 a27.936266468894512,27.936266468894512 0 0,0 -0.059861420398958885,0.477154418756611 l -6.87463124892757 -0.9226254488029868" fill="#ff5708" stroke="none" /><path d="M 120.76222939487914 103.15116336523771 l 5.4425446193617635 0.8260359180134278 a26.504873047727074,26.504873047727074 0 0,0 -0.07234346780821363,0.45048284309897896 l -5.427519397192261 -0.9195979908056117" fill="#ff4406" stroke="none" /><path d="M 120.70491114924044 103.5080841355445 l 5.560572072014839 0.9421414334880002 a26.63982200506064,26.63982200506064 0 0,0 -0.08049483246056499,0.4514577683526515 l -5.543530797215086 -1.03771795257387" fill="#ff4506" stroke="none" /><path d="M 120.64145759157962 103.86396538481128 l 4.405918312464953 0.8247632596748171 a25.48244917546462,25.48244917546462 0 0,0 -0.08441979509910982,0.4304547164611828 l -4.391068584390179 -0.9004817032039448" fill="#ff3505" stroke="none" /><path d="M 120.49622156327973 104.57218783832717 l 6.778989814924205 1.5122209082414164 a27.945611203210888,27.945611203210888 0 0,0 -0.10877421164167908,0.46859645686674456 l -6.751955037351973 -1.628686022456726" fill="#ff5808" stroke="none" /><path d="M 120.41448212921028 104.9243191809786 l 6.870583822781289 1.6573012966433738 a28.067642439577696,28.067642439577696 0 0,0 -0.11733435431460465,0.46869241987181215 l -6.841038154171624 -1.775321555912582" fill="#ff5908" stroke="none" /><path d="M 120.32669344350535 105.2749913415812 l 9.610175472731704 2.4939418971723164 a30.928505366023906,30.928505366023906 0 0,0 -0.13816488496477944,0.5141629355527454 l -9.565822511425148 -2.6589957659006105" fill="#ff800b" stroke="none" /><path d="M 120.13307415673323 105.97154293290107 l 4.612285097802875 1.3680205151928333 a25.810889102172585,25.810889102172585 0 0,0 -0.13000481165824196,0.42486324652719587 l -4.5880535136385 -1.4472107342720864" fill="#ff3a05" stroke="none" /><path d="M 120.02730092923936 106.31721596034902 l 7.882833716245673 2.4864839820897355 a29.265692347962656,29.265692347962656 0 0,0 -0.15567641022104542,0.47912272486385626 l -7.838865055008381 -2.621805606931387" fill="#ff6a09" stroke="none" /><path d="M 119.9155931802556 106.66101706037122 l 6.162087143893499 2.0609864452172943 a27.497613646278683,27.497613646278683 0 0,0 -0.15399864247537684,0.4475921402001052 l -6.125697670474892 -2.1667512885067" fill="#ff5107" stroke="none" /><path d="M 119.79798401119884 107.00284435728193 l 5.287984351721653 1.8704395032293364 a26.609039350841986,26.609039350841986 0 0,0 -0.1564557522755341,0.43049903519043387 l -5.255004338440893 -1.9611863354259014" fill="#ff4506" stroke="none" /><path d="M 119.67450827220406 107.3425965602758 l 5.982691630700494 2.232761824641581 a27.385751679609108,27.385751679609108 0 0,0 -0.16862544522881848,0.440227827218842 l -5.943371905878169 -2.3354132186935668" fill="#ff5007" stroke="none" /><path d="M 119.54520255179757 107.68017299344265 l 5.947720589806892 2.3371220086013653 a27.390424046767297,27.390424046767297 0 0,0 -0.17620831824284358,0.437334595139737 l -5.906609657306656 -2.439155971583916" fill="#ff5007" stroke="none" /><path d="M 119.41010516605496 108.01547362559984 l 5.948525729452183 2.4564653662470004 a27.435773492714425,27.435773492714425 0 0,0 -0.18401437031804221,0.4349556144656023 l -5.9053603779418316 -2.558495506378766" fill="#ff5107" stroke="none" /><path d="M 119.26925614724726 108.34839909993367 l 4.05905258297633 1.758583241166989 a25.423632318296832,25.423632318296832 0 0,0 -0.1774314273695494,0.40006102818949785 l -4.028180070875507 -1.8281926058491746" fill="#ff3405" stroke="none" /><path d="M 118.97047184881838 109.00673069616215 l 4.018707669640183 1.907987213786938 a25.44864322484949,25.44864322484949 0 0,0 -0.1912850217436432,0.3941038015438344 l -3.985269391281826 -1.9768799712960479" fill="#ff3505" stroke="none" /><path d="M 118.81262510543309 109.33194174019688 l 4.030080896855364 1.9991085734692766 a25.498665037954805,25.498665037954805 0 0,0 -0.19842979805604422,0.39152081660439453 l -3.9950724290130513 -2.0681836017763655" fill="#ff3505" stroke="none" /><path d="M 118.64920377521936 109.65438752849418 l 4.01264606139874 2.0772811836023615 a25.51845388709537,25.51845388709537 0 0,0 -0.20529898943826144,0.38834831907297857 l -3.976294563735585 -2.1460445177614744" fill="#ff3605" stroke="none" /><line stroke="#e1ed5e" stroke-width="0.3" x1="174.80103733775053" x2="179.2010983576182" y1="140.37084112569926" y2="142.7455964860345" /><path d="M 175.68104954172406 140.8457921977663 a86.0,86.0 0 0,1 -30.038265399797805,32.042727171017184" fill="none" id="id77" stroke="none" /><text fill="#e1ed5e" style="font-size:6.75px; font-family:Arial;" text-anchor="middle"><textPath startOffset="22.206326154141568" xlink:href="#id77">May</textPath></text><path d="M 118.48025628344425 109.97397251340804 l 1.5999506410651396 0.8635087886248268 a22.818100514789286,22.818100514789286 0 0,0 -0.18952452482313834,0.34404206367354806 l -1.5848497067904916 -0.8909213706961799" fill="#ff0f01" stroke="none" /><path d="M 118.30583269289576 110.29060199501025 l 6.357367644699272 3.57378663211234 a28.293015443678563,28.293015443678563 0 0,0 -0.2423067785893089,0.4224822925696093 l -6.294908869957584 -3.6826887705402642" fill="#ff5c08" stroke="none" /><path d="M 118.12598468904814 110.60418214915192 l 12.321984609552167 7.208688050900012 a35.275730739028006,35.275730739028006 0 0,0 -0.31113047412323314,0.5214725708219736 l -12.196073259730708 -7.41972271560809" fill="#ffb911" stroke="none" /><path d="M 117.94076556474637 110.91462005526583 l 3.966112963364421 2.412863371697431 a25.64240903935084,25.64240903935084 0 0,0 -0.23265645933781895,0.3751162918819453 l -3.923991864358639 -2.4807759949446497" fill="#ff3705" stroke="none" /><path d="M 117.75023020441432 111.22182372390056 l 4.813749062895941 3.0432869215113416 a26.695065875578045,26.695065875578045 0 0,0 -0.24889352715559263,0.38628828134581306 l -4.760650672363298 -3.1256968027786076" fill="#ff4606" stroke="none" /><path d="M 117.55443506779139 111.5257021239791 l 3.843718244710102 2.5236671739050305 a25.598158973911527,25.598158973911527 0 0,0 -0.24500716480756668,0.3662524683786559 l -3.7997079744918145 -2.5894565564894934" fill="#ff3705" stroke="none" /><path d="M 117.35343817320211 111.8261652097733 l 3.7769960320262324 2.5739786332588324 a25.5706744612163,25.5706744612163 0 0,0 -0.25100550650892667,0.3615921530014003 l -3.7321296183551693 -2.638612048447252" fill="#ff3605" stroke="none" /><path d="M 117.14729908036423 112.12312394758627 l 3.7442483795933637 2.647180000979793 a25.58551609807172,25.58551609807172 0 0,0 -0.25734181059105077,0.3574252671601592 l -3.6981267766267103 -2.7112388735910833" fill="#ff3705" stroke="none" /><path d="M 116.93607887273984 112.41649034213515 l 4.977309803953054 3.6490571149896764 a27.171647325713288,27.171647325713288 0 0,0 -0.2797886952152348,0.37482267965591926 l -4.913759842042728 -3.7341926741549107" fill="#ff4d07" stroke="none" /><path d="M 116.71984013943494 112.70617746262583 l 3.6375608930873415 2.7643502481619717 a25.56875054532763,25.56875054532763 0 0,0 -0.2693158720418222,0.34812706875894955 l -3.589438203827451 -2.826555311034174" fill="#ff3605" stroke="none" /><path d="M 116.498646956653 112.99209946851258 l 4.692203102278199 3.6949435666710344 a26.97238460867289,26.97238460867289 0 0,0 -0.29037966805658516,0.3622932838156676 l -4.627905522166761 -3.7751646840649524" fill="#ff4a06" stroke="none" /><path d="M 116.27256486870786 113.27417163493432 l 3.544724321718527 2.8915711459538462 a25.57452229299363,25.57452229299363 0 0,0 -0.28120283325066564,0.33872692764233814 l -3.4944254885743176 -2.952159330709955" fill="#ff3705" stroke="none" /><path d="M 116.0416608686014 113.55231037782055 l 3.6699445770415204 3.1004413062250666 a25.80429281912573,25.80429281912573 0 0,0 -0.2895702327645688,0.3368356000792428 l -3.616031834706173 -3.1631540054658376" fill="#ff3a05" stroke="none" /><path d="M 115.80600337817218 113.82643327865902 l 3.2215368284827943 2.81806620864528 a25.280163162027748,25.280163162027748 0 0,0 -0.2893268331161643,0.32506176413870974 l -3.172551145718292 -2.8731021425248566" fill="#ff3204" stroke="none" /><path d="M 115.56566222782051 114.09645910891815 l 7.212954849117178 6.532142455418676 a30.731166564872176,30.731166564872176 0 0,0 -0.3584623636451052,0.3890400985601163 l -7.099446077476351 -6.655333808780127" fill="#ff7d0b" stroke="none" /><path d="M 114.55890576462653 115.13401014063108 l 3.1748602371111687 3.300273234838083 a25.579469505278773,25.579469505278773 0 0,0 -0.3199433340157062,0.30252639216786603 l -3.117581068704655 -3.3544342637518705" fill="#ff3705" stroke="none" /><path d="M 114.29624159901734 115.38237550388516 l 4.04039404618943 4.347356469298876 a26.93500567140738,26.93500567140738 0 0,0 -0.3423316737529145,0.31271186736764434 l -3.964962822969652 -4.416261103253103" fill="#ff4a06" stroke="none" /><path d="M 114.0293411484842 115.62618273729858 l 3.02026829096174 3.364039959591104 a25.520927493237938,25.520927493237938 0 0,0 -0.32941155037898345,0.29066739318523177 l -2.961914387676169 -3.4155304945486247" fill="#ff3605" stroke="none" /><path d="M 113.75828350139079 115.86535959552629 l 4.513367628859089 5.2045882330756434 a27.88899310705872,27.88899310705872 0 0,0 -0.3653916584407912,0.3113946983259822 l -4.423110493841251 -5.281507321624573" fill="#ff5708" stroke="none" /><path d="M 113.48314897796784 116.09983520530334 l 1.453723688340884 1.7358490850007289 a23.264174155832826,23.264174155832826 0 0,0 -0.30922504483959695,0.2544711599691182 l -1.423628514956596 -1.7606153638270254" fill="#ff1602" stroke="none" /><path d="M 113.20401910651253 116.32954008644616 l 4.02151725801832 4.973449882449463 a27.395920949306344,27.395920949306344 0 0,0 -0.36924810260994834,0.29335302457597573 l -3.9353116626910207 -5.041936821030565" fill="#ff5007" stroke="none" /><path d="M 112.63410532772338 116.77436683061366 l 3.865302061000718 5.131981489823204 a27.42477968763633,27.42477968763633 0 0,0 -0.3795263409612757,0.28076451384978457 l -3.7763907496208784 -5.1977559524127575" fill="#ff5007" stroke="none" /><path d="M 112.34349029814194 116.9893568818739 l 2.7692885964237295 3.811598756684612 a25.711395166215862,25.711395166215862 0 0,0 -0.3602933790616959,0.2570597595779916 l -2.703267889513149 -3.858702778106823" fill="#ff3805" stroke="none" /><path d="M 112.04921762599082 117.19931262002967 l 2.4703471875640814 3.526226754115237 a25.305448913707355,25.305448913707355 0 0,0 -0.35890732097500344,0.2468597280582869 l -2.4092829819661943 -3.5682272715386176" fill="#ff3304" stroke="none" /><path d="M 111.7513745106137 117.40417183066458 l 4.402074529833158 6.519617042194594 a28.866617223627955,28.866617223627955 0 0,0 -0.41420200625084924,0.27451050399799687 l -4.289197824842344 -6.594425567283909" fill="#ff6409" stroke="none" /><line stroke="#e1ed5e" stroke-width="0.3" x1="143.8653032363475" x2="146.44561519142675" y1="172.8068346515853" y2="177.08958963109032" /><path d="M 144.38136562736335 173.6633856474863 a86.0,86.0 0 0,1 -40.68145358897372,12.25698825130547" fill="none" id="id78" stroke="none" /><text fill="#e1ed5e" style="font-size:6.75px; font-family:Arial;" text-anchor="middle"><textPath startOffset="21.466115282336833" xlink:href="#id78">June</textPath></text><path d="M 109.57404056367764 118.69057910512821 l 3.6473410617859963 7.120391457011675 a29.000191955326763,29.000191955326763 0 0,0 -0.44625231937208043,0.22376017697934683 l -3.524234834731155 -7.1821194749003245" fill="#ff6609" stroke="none" /><path d="M 108.2653958097858 119.30500536409082 l 2.297017031127193 5.365009387066197 a26.836061425704564,26.836061425704564 0 0,0 -0.4262186857215108,0.1781594451989504 l -2.204326885908221 -5.40375387528512" fill="#ff4806" stroke="none" /><path d="M 107.93186726928326 119.44442032107085 l 2.2816662251755098 5.593345880422511 a27.040821045284005,27.040821045284005 0 0,0 -0.432497232173069,0.1720995744072852 l -2.1850479169605745 -5.631792299235865" fill="#ff4b07" stroke="none" /><path d="M 107.59598834532513 119.57807347666477 l 2.7235803600278405 7.019818091353828 a28.52965709798447,28.52965709798447 0 0,0 -0.45936793601554987,0.17369364684929015 l -2.6023422032520163 -7.06565998830975" fill="#ff6008" stroke="none" /><path d="M 107.2578585660854 119.70592522655815 l 1.6200520614857334 4.39862867209165 a25.687483640171017,25.687483640171017 0 0,0 -0.4162356294949473,0.14924728778252674 l -1.5440968713610514 -4.4258635009141365" fill="#ff3805" stroke="none" /><path d="M 106.57524785965236 119.94407469862006 l 2.2186083029800754 6.729493802527579 a28.08578221795655,28.08578221795655 0 0,0 -0.4604445392412793,0.14741980110575156 l -2.102442418647856 -6.7666864502930375" fill="#ff5908" stroke="none" /><path d="M 106.2309692047433 120.05430185196036 l 3.2802701154994507 10.557511181745745 a32.055370386528224,32.055370386528224 0 0,0 -0.5283412330649747,0.1591848794732548 l -3.09805390799423 -10.612411430324725" fill="#ff8f0d" stroke="none" /><path d="M 105.53697534728816 120.25689768951611 l 1.485722038697781 5.435480103356504 a26.6348747927755,26.6348747927755 0 0,0 -0.4432925378378178,0.11707758826614713 l -1.3919390580484656 -5.460249040926235" fill="#ff4506" stroke="none" /><path d="M 105.18746579009965 120.34920634021253 l 2.0413340970804414 8.007672808190863 a29.263768432073988,29.263768432073988 0 0,0 -0.48918808495785165,0.12023052939566459 l -1.903192727379379 -8.041624595900558" fill="#ff6a09" stroke="none" /><path d="M 104.48393922423573 120.51570834832081 l 1.7808605666869037 8.148106869446076 a29.340450222493672,29.340450222493672 0 0,0 -0.49432865782021745,0.10359137651373952 l -1.6403404474373082 -8.177554226686357" fill="#ff6b09" stroke="none" /><path d="M 103.06178313531738 120.77559828337769 l 1.4978987906574062 10.163928066913769 a31.27371084547596,31.27371084547596 0 0,0 -0.5332486524407275,0.07390340425549771 l -1.3227215470298483 -10.18820603666187" fill="#ff850c" stroke="none" /><path d="M 102.70371172650421 120.8252237178851 l 1.3482347154463414 10.384720123136807 a31.47187418200855,31.47187418200855 0 0,0 -0.5378282185285781,0.06512350726673621 l -1.169279073866383 -10.406389159128894" fill="#ff870c" stroke="none" /><path d="M 102.34483914955558 120.86867818915974 l 1.6586141263006893 14.761389687784582 a35.854279731262544,35.854279731262544 0 0,0 -0.6139062030260212,0.06363388805466932 l -1.4042753266690655 -14.78775294429501" fill="#ffc011" stroke="none" /><path d="M 101.62511606390274 120.93702456842531 l 0.6570085753506074 8.464506006264612 a29.489965971555712,29.489965971555712 0 0,0 -0.5064371387002448,0.03492687018433369 l -0.5112086758714323 -8.474561220965231" fill="#ff6d0a" stroke="none" /><path d="M 101.26447882468166 120.96189622390904 l 0.3674777807615782 6.091862476902975 a27.10293604397522,27.10293604397522 0 0,0 -0.46592777585244854,0.02408314399486957 l -0.2625619364956501 -6.097285427660046" fill="#ff4c07" stroke="none" /><path d="M 100.90346689309514 120.98055641714683 l 0.1294659150052183 3.006493048748023 a24.009279295000436,24.009279295000436 0 0,0 -0.4130506657258481,0.014226300091043016 l -0.07769489760471793 -3.00827614726516" fill="#ff2003" stroke="none" /><line stroke="#e1ed5e" stroke-width="0.3" x1="102.19456741930631" x2="102.32365962044197" y1="184.97166512339345" y2="189.96999836594603" /><path d="M 102.22038585953345 185.97133177190398 a86.0,86.0 0 0,1 -42.740103519485714,-10.115201625700543" fill="none" id="id79" stroke="none" /><text fill="#e1ed5e" style="font-size:6.75px; font-family:Arial;" text-anchor="middle"><textPath startOffset="22.20632615414155" xlink:href="#id79">July</textPath></text><path d="M 100.54218724476979 120.99299961872073 l 0.7722066708075015 29.89914370397708 a50.90911395166216,50.90911395166216 0 0,0 -0.8762193301894416,0.015084910393431796 l -0.2574276507253919 -29.90800609164967" fill="#8cff24" stroke="none" /><path d="M 100.18074693466247 120.99922214144158 l 0.0686920358877313 7.980657174895477 a28.9809527964401,28.9809527964401 0 0,0 -0.498877941100368,0.0 l 0.06869203588772581 -7.980657174895477" fill="#ff6609" stroke="none" /><path d="M 99.45781275523022 120.99299961872073 l -0.19723533463540763 7.636773724836528 a28.639320303638428,28.639320303638428 0 0,0 -0.4927049317893213,-0.016969754070373235 l 0.3286606180993719 -7.632247172340061" fill="#ff6109" stroke="none" /><path d="M 98.37488393609728 120.93702456842531 l -0.3238463116959617 4.17224242315911 a25.184791902975306,25.184791902975306 0 0,0 -0.43192599573111273,-0.03726839236148671 l 0.3956166251686161 -4.16604977851896" fill="#ff3104" stroke="none" /><path d="M 98.01472825383883 120.90594882070398 l -0.4207421523286091 4.430634707970415 a25.450567140738155,25.450567140738155 0 0,0 -0.43577115912905845,-0.045169462404494036 l 0.4969459080632609 -4.42273587711016" fill="#ff3505" stroke="none" /><path d="M 97.65516085044442 120.86867818915974 l -1.005676366777809 8.950352293762736 a30.006674810225984,30.006674810225984 0 0,0 -0.5127891768954649,-0.062091628028036715 l 1.1595929667246632 -8.93171513700935" fill="#ff740a" stroke="none" /><path d="M 97.2962882734958 120.8252237178851 l -0.9246665795997002 7.122204706902391 a28.181978012389845,28.181978012389845 0 0,0 -0.48053145571610395,-0.06659728114965242 l 1.0471266265026353 -7.105232860260133" fill="#ff5b08" stroke="none" /><path d="M 96.93821686468263 120.77559828337769 l -1.2142677676431386 8.239361912349414 a29.328357036907775,29.328357036907775 0 0,0 -0.49881130061277307,-0.07790406658319701 l 1.3559149318644288 -8.217239538419111" fill="#ff6a09" stroke="none" /><path d="M 95.51606077576429 120.51570834832081 l -0.9035757643603168 4.1341989543551465 a25.231790419684145,25.231790419684145 0 0,0 -0.4235094151276603,-0.09638936405477583 l 0.9746053288808398 -4.118032856722683" fill="#ff3204" stroke="none" /><path d="M 94.81253420990036 120.34920634021253 l -1.0341437777872489 4.0567024383664245 a25.18644097373702,25.18644097373702 0 0,0 -0.4191858015183519,-0.11071078010145952 l 1.10382002211709 -4.038300308961383" fill="#ff3104" stroke="none" /><path d="M 94.46302465271185 120.25689768951611 l -2.517872023927146 9.211577221301422 a30.549493935956722,30.549493935956722 0 0,0 -0.5060579414522117,-0.14301702913054426 l 2.6760611334839717 -9.166871398832356" fill="#ff7b0b" stroke="none" /><path d="M 93.42475214034765 119.94407469862007 l -1.3064152921740997 3.9626253991765723 a25.172423872262456,25.172423872262456 0 0,0 -0.4103467898480457,-0.13921191052661644 l 1.374431814959371 -3.939550501751833" fill="#ff3104" stroke="none" /><path d="M 93.08242187328487 119.8279376855182 l -1.4007778829491724 4.015066554449928 a25.252403804205567,25.252403804205567 0 0,0 -0.4091856696024111,-0.1467194229906212 l 1.4696831131813102 -3.9903595904193487" fill="#ff3204" stroke="none" /><path d="M 92.7421414339146 119.70592522655815 l -1.4565745125078988 3.9547682238553707 a25.214475176686154,25.214475176686154 0 0,0 -0.4059888059589626,-0.15351022733248493 l 1.5244335392271444 -3.9291097464162528" fill="#ff3104" stroke="none" /><path d="M 92.40401165467489 119.57807347666478 l -2.916744202907603 7.517682982268582 a29.063681179652736,29.063681179652736 0 0,0 -0.4648513314706791,-0.18497393823031436 l 3.0457166104201403 -7.466362199632201" fill="#ff6709" stroke="none" /><path d="M 92.06813273071674 119.44442032107085 l -2.2870644072451727 5.606579147895191 a27.055112991885526,27.055112991885526 0 0,0 -0.4296977309197536,-0.17961368637397548 l 2.3832335976623886 -5.566380418501243" fill="#ff4b07" stroke="none" /><path d="M 91.7346041902142 119.30500536409082 l -1.644172640863811 3.8401986283328196 a25.177371084547595,25.177371084547595 0 0,0 -0.396938430122079,-0.17400614282034083 l 1.7100317456436334 -3.8113279322180262" fill="#ff3104" stroke="none" /><path d="M 90.7491055286396 118.85261126421891 l -2.577553778912722 5.252856311019411 a26.85117790768694,26.85117790768694 0 0,0 -0.4131834864278107,-0.2071787776433792 l 2.6675911730232933 -5.207709692466729" fill="#ff4806" stroke="none" /><path d="M 90.42595943632237 118.69057910512821 l -3.265415283432149 6.374790482675699 a28.162464008376233,28.162464008376233 0 0,0 -0.42955682995966865,-0.22472383132533838 l 3.3746630159183133 -6.317637232405644" fill="#ff5b08" stroke="none" /><path d="M 90.10565033884886 118.52300852407294 l -1.8793739198013235 3.518337266074564 a24.98882732745834,24.98882732745834 0 0,0 -0.37766113104232385,-0.20593096050369966 l 1.939657862712288 -3.4854656538110986" fill="#ff2e04" stroke="none" /><line stroke="#e1ed5e" stroke-width="0.3" x1="58.666819895761336" x2="56.23545636021788" y1="174.27360380694188" y2="178.64263932499728" /><path d="M 58.180547188652646 175.14741091055294 a86.0,86.0 0 0,1 -31.652253787137756,-30.449443065178592" fill="none" id="id80" stroke="none" /><text fill="#e1ed5e" style="font-size:6.75px; font-family:Arial;" text-anchor="middle"><textPath startOffset="22.20632615414155" xlink:href="#id80">August</textPath></text><path d="M 89.7882731507175 118.34994917583269 l -2.0643530178084473 3.70953644930519 a25.24525783090481,25.24525783090481 0 0,0 -0.37789894897795123,-0.21458088578641693 l 2.1279007337076057 -3.67345239772414" fill="#ff3204" stroke="none" /><path d="M 88.8546689885994 117.79835938074946 l -2.182631374970601 3.4855185160215605 a25.11250763458686,25.11250763458686 0 0,0 -0.3643922891663897,-0.23257239957043824 l 2.2423054661839146 -3.447431687627318" fill="#ff3004" stroke="none" /><path d="M 88.24862548938628 117.40417183066458 l -3.9009928857063896 5.777498660408905 a27.97117180001745,27.97117180001745 0 0,0 -0.3967152833174074,-0.27286438930879614 l 3.9998650536466873 -5.7094934817350085" fill="#ff5808" stroke="none" /><path d="M 87.95078237400918 117.19931262002967 l -4.894804108190329 6.986948753334367 a29.5309178954716,29.5309178954716 0 0,0 -0.41381629143693105,-0.29524693643626165 l 5.014347727476148 -6.901657555053887" fill="#ff6d0a" stroke="none" /><path d="M 87.65650970185807 116.9893568818739 l -4.419359400523132 6.082726378944364 a28.51866329290638,28.51866329290638 0 0,0 -0.3946643893567139,-0.29196328015310835 l 4.52340876029841 -6.005753150051489" fill="#ff5f08" stroke="none" /><path d="M 86.51685102203217 116.09983520530335 l -3.737718067825715 4.463100202646325 a26.821494633976094,26.821494633976094 0 0,0 -0.3514056735052403,-0.29947553854444664 l 3.813989217908012 -4.398100273878927" fill="#ff4806" stroke="none" /><path d="M 86.24171649860922 115.8653595955263 l -5.4376491384913885 6.270423118388924 a29.299773143704737,29.299773143704737 0 0,0 -0.3781870270811123,-0.333706080347427 l 5.544778518479089 -6.175893896269208" fill="#ff6a09" stroke="none" /><path d="M 85.97065885151581 115.62618273729859 l -4.018761753558243 4.476183512406258 a27.015535293604398,27.015535293604398 0 0,0 -0.3433551686312906,-0.31364680567220965 l 4.095216471656388 -4.4063439401474715" fill="#ff4b06" stroke="none" /><path d="M 85.70375840098266 115.38237550388516 l -6.585614024438704 7.085945431597321 a30.67372393333915,30.67372393333915 0 0,0 -0.3836613382417598,-0.3627757422408959 l 6.706611197071281 -6.971535052610495" fill="#ff7d0b" stroke="none" /><path d="M 84.9287848128048 114.62390073753433 l -3.071577038151168 2.9804124720995278 a25.279888316900795,25.279888316900795 0 0,0 -0.3003412627113515,-0.31490661320430696 l 3.122424852241477 -2.9270987423127206" fill="#ff3204" stroke="none" /><path d="M 84.67929136418377 114.36230785411682 l -5.030729329430158 4.716027507441809 a27.895589390105577,27.895589390105577 0 0,0 -0.3253868962944092,-0.3531432112350717 l 5.111162633720296 -4.628733041405392" fill="#ff5708" stroke="none" /><path d="M 84.43433777217949 114.09645910891817 l -4.13635641576216 3.7459362937022216 a26.580455457638948,26.580455457638948 0 0,0 -0.30420844007428804,-0.34178140731499695 l 4.200223705484786 -3.6741807166463607" fill="#ff4506" stroke="none" /><path d="M 84.19399662182784 113.82643327865904 l -6.595120762143444 5.7691368906325176 a29.76233749236541,29.76233749236541 0 0,0 -0.3339865601313502,-0.3885018232924168 l 6.693449831845573 -5.65475796817857" fill="#ff700a" stroke="none" /><path d="M 83.72743513129214 113.27417163493432 l -2.694961641854496 2.1983862821977875 a24.477890236454062,24.477890236454062 0 0,0 -0.2635244063404509,-0.3287872156395316 l 2.732403960249808 -2.1516712329799965" fill="#ff2703" stroke="none" /><path d="M 83.50135304334701 112.99209946851258 l -7.062273109208963 5.5612896590677865 a29.98908472210104,29.98908472210104 0 0,0 -0.31587529039992984,-0.40831139325955895 l 7.156955216826962 -5.438900271694975" fill="#ff730a" stroke="none" /><path d="M 83.28015986056508 112.70617746262583 l -4.821414856367283 3.6640154615744915 a27.055662682139427,27.055662682139427 0 0,0 -0.2785943917671851,-0.3732227150169735 l 4.883770514829553 -3.58047986704821" fill="#ff4b07" stroke="none" /><path d="M 83.06392112726016 112.41649034213515 l -3.3957865150995685 2.489581607732883 a25.210627344908822,25.210627344908822 0 0,0 -0.2535711401015633,-0.35218813564242124 l 3.4381374475767394 -2.4307598666393235" fill="#ff3104" stroke="none" /><path d="M 82.85270091963577 112.12312394758628 l -29.543295683674742 20.887081616457817 a57.181162202251116,57.181162202251116 0 0,0 -0.5612987097041393,-0.8085926549647713 l 29.898455300541016 -20.375447699306033" fill="#4bff2c" stroke="none" /><path d="M 82.6465618267979 111.8261652097733 l -2.5943851878433932 1.7680431706383433 a24.139555885175813,24.139555885175813 0 0,0 -0.2310464652230698,-0.3453831167124268 l 2.6244347584771934 -1.7231231397200955" fill="#ff2203" stroke="none" /><path d="M 82.44556493220864 111.52570212397912 l -7.386234181063059 4.849574176561444 a29.835995986388625,29.835995986388625 0 0,0 -0.2781782338303275,-0.4317387964330412 l 7.468617278270432 -4.721713780206954" fill="#ff710a" stroke="none" /><line stroke="#e1ed5e" stroke-width="0.3" x1="26.63291911575756" x2="22.317208475507996" y1="142.92168965132927" y2="145.44649492493687" /><path d="M 25.769776987707644 143.4266507060508 a86.0,86.0 0 0,1 -11.730757126820373,-40.83630448921669" fill="none" id="id81" stroke="none" /><text fill="#e1ed5e" style="font-size:6.75px; font-family:Arial;" text-anchor="middle"><textPath startOffset="21.46611528233685" xlink:href="#id81">September</textPath></text><path d="M 81.87401531095188 110.60418214915194 l -3.8312710853519842 2.241395275832874 a25.438748800279207,25.438748800279207 0 0,0 -0.21786229486244402,-0.37986127476016013 l 3.8692853763668054 -2.175114155214407" fill="#ff3505" stroke="none" /><path d="M 81.51974371655577 109.97397251340807 l -5.816902935391772 3.1394386041462012 a27.610025303202164,27.610025303202164 0 0,0 -0.2221259296582588,-0.4201785485712161 l 5.870081373274917 -3.038845040488859" fill="#ff5307" stroke="none" /><path d="M 81.35079622478065 109.6543875284942 l -7.3335744258385915 3.796471438109283 a29.257996684407992,29.257996684407992 0 0,0 -0.2276847970264263,-0.44924370499543637 l 7.397837892651284 -3.6696735214111613" fill="#ff6909" stroke="none" /><path d="M 81.18737489456691 109.33194174019688 l -3.3271311803034274 1.650412643773847 a24.713982200506063,24.713982200506063 0 0,0 -0.185762933639604,-0.38272666446104503 l 3.3550473705577506 -1.5928970233475175" fill="#ff2a04" stroke="none" /><path d="M 80.87730276802145 108.67885076344099 l -2.9397330296678295 1.334200083771633 a24.228330861181398,24.228330861181398 0 0,0 -0.16908942332316196,-0.38125201128965464 l 2.9622635377222712 -1.2833997359892826" fill="#ff2303" stroke="none" /><path d="M 80.73074385275274 108.34839909993369 l -2.8797962997829556 1.2476708313691136 a24.138456504668003,24.138456504668003 0 0,0 -0.1618989482959368,-0.3826812895953995 l 2.900846229271199 -1.1979150161075554" fill="#ff2203" stroke="none" /><path d="M 80.45479744820244 107.68017299344265 l -7.269720504138405 2.8565941405721156 a28.810823662856645,28.810823662856645 0 0,0 -0.17740020520143113,-0.46313595660504764 l 7.317814988933346 -2.73103461713391" fill="#ff6309" stroke="none" /><path d="M 80.20201598880116 107.00284435728193 l -2.7709576958698223 0.9801293633640987 a23.939193787627605,23.939193787627605 0 0,0 -0.13406993758342428,-0.38966999536410674 l 2.7874184643964752 -0.9322866649106951" fill="#ff1f03" stroke="none" /><path d="M 79.67330655649465 105.27499134158121 l -4.387948019245842 1.1387187922699658 a25.53329552395079,25.53329552395079 0 0,0 -0.10673973598873833,-0.4263721861280346 l 4.406899069529638 -1.0630187667445392" fill="#ff3605" stroke="none" /><path d="M 79.58551787078972 104.9243191809786 l -7.335747596277781 1.7695066848392182 a28.546147805601606,28.546147805601606 0 0,0 -0.1111117126901238,-0.47866635020535925 l 7.36511987489846 -1.6429716772852847" fill="#ff6008" stroke="none" /><path d="M 79.35854240842038 103.8639653848113 l -6.459348019562022 1.2091538131599087 a27.571546985428846,27.571546985428846 0 0,0 -0.08331013078274652,-0.4672474564472531 l 6.479204592683956 -1.0977876059794418" fill="#ff5207" stroke="none" /><path d="M 79.1416061653843 102.43462659150553 l -17.655499284957493 2.0607793862885604 a38.77536122502399,38.77536122502399 0 0,0 -0.07167477529622784,-0.6636194021199916 l 17.688356361754774 -1.7565636622837866" fill="#ffe515" stroke="none" /><path d="M 79.10278846688536 102.07522291339032 l -2.265125720930836 0.22494105447210422 a23.276267341418723,23.276267341418723 0 0,0 -0.03616179138935772,-0.39904235466809174 l 2.2686621085972694 -0.18591731125544633" fill="#ff1602" stroke="none" /><path d="M 79.07016306316243 101.71520430193888 l -1.672323372734403 0.13704723318214193 a22.677929500043625,22.677929500043625 0 0,0 -0.02853471141708293,-0.38933346635230065 l 1.6744346428158212 -0.10824063033308066" fill="#ff0d01" stroke="none" /><path d="M 79.04373962182676 101.35467743843564 l -62.86878113451971 4.064032315306924 a84.0,84.0 0 0,0 -0.08085459644987347,-1.4437131346582497 l 62.92942208185711 -2.9812474643132365" fill="#4dd2ff" stroke="none" /><path d="M 79.0235259727143 100.99374915477108 l -22.11001991543326 1.0474502804595807 a43.13481720617747,43.13481720617747 0 0,0 -0.028752163844752734,-0.741965591464926 l 22.124774212129214 -0.6667074419806579" fill="#e4ff1a" stroke="none" /><line stroke="#e1ed5e" stroke-width="0.3" x1="15.007084014347285" x2="10.007500721073583" y1="101.09737516637583" y2="101.16192664675087" /><path d="M 14.007167355692545 101.11028546245083 a86.0,86.0 0 0,1 10.666146001902534,-42.60595125391555" fill="none" id="id82" stroke="none" /><text fill="#e1ed5e" style="font-size:6.75px; font-family:Arial;" text-anchor="middle"><textPath startOffset="22.20632615414155" xlink:href="#id82">October</textPath></text><path d="M 79.01574976396665 99.18683210126434 l -49.37926759909373 -1.9135129834522422 a70.4163292906378,70.4163292906378 0 0,0 0.05736044360021921,-1.210788305677438 l 49.33901354726001 2.763212395752689" fill="#3cffa6" stroke="none" /><path d="M 79.05617556472873 98.46500227214037 l -0.7636702060465798 -0.05597029495441408 a21.76571852368903,21.76571852368903 0 0,0 0.030602098783402507,-0.3734231174313342 l 0.7625936234436802 0.06910732959352665" fill="#ff0000" stroke="none" /><path d="M 79.21141760316559 97.0276538004421 l -3.720668322267394 -0.5319802060765335 a24.758507111072333,24.758507111072333 0 0,0 0.06395252847699054,-0.4213672579687597 l 3.7109599003511016 0.5959465764373852" fill="#ff2b04" stroke="none" /><path d="M 79.26566170972629 96.67025291283419 l -5.9106703904604965 -0.9492001741413294 a26.986401710147454,26.986401710147454 0 0,0 0.07760278874015594,-0.4580160519864094 l 5.8934557402001175 1.0508020144435668" fill="#ff4a06" stroke="none" /><path d="M 79.46518482838121 95.60439243477599 l -5.7857975004093385 -1.238486689610101 a26.916865893028532,26.916865893028532 0 0,0 0.10088135381403608,-0.4522313283026952 l 5.763621759593264 1.3378961874627555" fill="#ff4906" stroke="none" /><path d="M 79.62865764111835 94.90015583598534 l -7.027766511269888 -1.7593594667035448 a28.24464270133496,28.24464270133496 0 0,0 0.1221293886806555,-0.4706143542996332 l 6.996440790718925 1.8800702465520418" fill="#ff5c08" stroke="none" /><path d="M 79.81627453868168 94.20196356495316 l -4.036921200155305 -1.1596578762811167 a25.200183230084633,25.200183230084633 0 0,0 0.12335382036938843,-0.4158877598166671 l 4.01636148267421 1.228975022844323" fill="#ff3104" stroke="none" /><path d="M 79.91906864156998 93.8553929516997 l -4.151186338099672 -1.270230368134151 a25.341178780211152,25.341178780211152 0 0,0 0.1312244870094057,-0.41601748414458434 l 4.128706367322063 1.3414980187051497" fill="#ff3304" stroke="none" /><path d="M 80.02781315780177 93.51064311812611 l -4.140991850023177 -1.3454898140124705 a25.354096501177906,25.354096501177906 0 0,0 0.13843663422841407,-0.4139079157955633 l 4.1172179220229905 1.416570832730356" fill="#ff3304" stroke="none" /><path d="M 80.14247586403 93.16781622104843 l -7.845376683001392 -2.6992818916570678 a29.296749847308263,29.296749847308263 0 0,0 0.168172996970414,-0.47544770885468934 l 7.797750605221168 2.833927226938368" fill="#ff6a09" stroke="none" /><path d="M 80.2630227832202 92.82701384747504 l -5.667686289765715 -2.0598004865092503 a27.03037693045982,27.03037693045982 0 0,0 0.1626912197657896,-0.43593158398679005 l 5.631390481498298 2.1570552075253815" fill="#ff4b07" stroke="none" /><path d="M 80.38941819471856 92.48833698450439 l -3.5260034836526875 -1.350605006197698 a24.775822354070325,24.775822354070325 0 0,0 0.15597731058064193,-0.3969452421691786 l 3.502232623190354 1.4110992532626399" fill="#ff2b04" stroke="none" /><path d="M 80.52162464483688 92.15188598940014 l -10.785336700343164 -4.345565301192497 a32.627872785969814,32.627872785969814 0 0,0 0.21437804035713265,-0.5191334290384229 l 10.708936973099831 4.530573300684232" fill="#ff970d" stroke="none" /><path d="M 81.10775173730289 90.83032412892265 l -5.946088293621936 -2.886035668977417 a27.60947561294826,27.60947561294826 0 0,0 0.2111993240393845,-0.4257649497059548 l 5.895528956629139 2.9879602071823337" fill="#ff5307" stroke="none" /><path d="M 81.43458229118936 90.18545643968196 l -4.968002754659396 -2.626317393346078 a26.61948346566617,26.61948346566617 0 0,0 0.21763570066869933,-0.4032459002045345 l 4.922058954772225 2.711444276883085" fill="#ff4506" stroke="none" /><path d="M 81.6062741919709 89.86733742301443 l -5.939403234478154 -3.2718748507903492 a27.780978972166476,27.780978972166476 0 0,0 0.2343422924921407,-0.41686878972784075 l 5.882203300693582 3.3736271504529745" fill="#ff5507" stroke="none" /><line stroke="#e1ed5e" stroke-width="0.3" x1="26.266209847984243" x2="21.928928074336255" y1="57.711370442889674" y2="55.22380399835377" /><path d="M 25.398753493254645 57.213857153982495 a86.0,86.0 0 0,1 29.58750427330803,-30.492523968695096" fill="none" id="id83" stroke="none" /><text fill="#e1ed5e" style="font-size:6.75px; font-family:Arial;" text-anchor="middle"><textPath startOffset="21.46611528233685" xlink:href="#id83">November</textPath></text><path d="M 81.78341655067845 89.55222093294921 l -3.783902747458975 -2.1701863045087206 a25.362067009859523,25.362067009859523 0 0,0 0.22045714133738994,-0.3768327167779211 l 3.7459859316512603 2.2349984336405337" fill="#ff3404" stroke="none" /><path d="M 82.15384107792192 88.93136811851018 l -3.7216738888106478 -2.308274763105211 a25.379382252857518,25.379382252857518 0 0,0 0.23345696550366865,-0.36927285461527176 l 3.6813893270610163 2.3719952654346983" fill="#ff3404" stroke="none" /><path d="M 82.34701348167596 88.62581576622439 l -6.288443247392164 -4.051774013719192 a28.480734665386965,28.480734665386965 0 0,0 0.2690796945281472,-0.4098268352630955 l 6.217766917506096 4.159418912959954" fill="#ff5f08" stroke="none" /><path d="M 82.7489923806493 88.02491185347247 l -5.737943124136359 -3.983093405756702 a27.984914056365064,27.984914056365064 0 0,0 0.278099923782688,-0.39335261999673643 l 5.668530580549794 4.0812725260852245" fill="#ff5808" stroke="none" /><path d="M 83.17141714833178 87.43820079747576 l -4.79374538565429 -3.57832073522738 a26.98200418811622,26.98200418811622 0 0,0 0.2810292141388037,-0.36980150393246425 l 4.731440231291377 3.6603070150408707" fill="#ff4a06" stroke="none" /><path d="M 83.39014120810768 87.1503855733568 l -5.875550956643386 -4.545406754078779 a28.42851409126603,28.42851409126603 0 0,0 0.3027581510137353,-0.38447210621583405 l 5.79643872503568 4.645871254247661" fill="#ff5e08" stroke="none" /><path d="M 83.6137871275137 86.86637796730984 l -6.015617368553014 -4.821543905640332 a28.709405811011255,28.709405811011255 0 0,0 0.31238773901937383,-0.38295043089571273 l 5.9317311374572474 4.9243785061441265" fill="#ff6209" stroke="none" /><path d="M 83.84228863543731 86.58626213691792 l -5.220769280625473 -4.334155314070809 a27.785376494197713,27.785376494197713 0 0,0 0.3086682588743173,-0.36536585952658235 l 5.145390408264031 4.423380123226508" fill="#ff5507" stroke="none" /><path d="M 84.07557802195018 86.31012108654704 l -5.117462576333241 -4.399371174080675 a27.74854724718611,27.74854724718611 0 0,0 0.31449428660594886,-0.35952133542509457 l 5.040976426149449 4.486808065708712" fill="#ff5507" stroke="none" /><path d="M 84.31358615837235 86.03803664274999 l -5.71559760951375 -5.0872662926338075 a28.651688334351277,28.651688334351277 0 0,0 0.3310721134008293,-0.3655780966290858 l 5.627181855496875 5.184897176532449" fill="#ff6109" stroke="none" /><path d="M 84.5562425177563 85.77008943001954 l -6.271558858202482 -5.778627499764687 a29.527894599075125,29.527894599075125 0 0,0 0.34763145039540255,-0.3708289933798837 l 6.171160085836624 5.885725910022621" fill="#ff6d0a" stroke="none" /><path d="M 85.31137513191541 84.99185889309783 l -3.09741458696334 -3.1647915039840493 a25.42830468545502,25.42830468545502 0 0,0 0.31545235509950725,-0.30346491567314937 l 3.0424789882514047 3.2176395064195122" fill="#ff3405" stroke="none" /><path d="M 85.57189188830299 84.74124197986013 l -3.0449338186168013 -3.2202356654055753 a25.4318776721054,25.4318776721054 0 0,0 0.3206743194222446,-0.298031831553129 l 2.9890516153997004 3.272172083033352" fill="#ff3505" stroke="none" /><path d="M 86.37877921826538 84.01681056812374 l -3.0684292657082657 -3.6005059310023664 a25.73063432510252,25.73063432510252 0 0,0 0.33957387487920815,-0.2843833545894923 l 3.005997853869947 3.6527904429856712" fill="#ff3905" stroke="none" /><path d="M 87.22198572758235 83.33499621200491 l -2.7726206084427063 -3.6160339124138914 a25.556657359741735,25.556657359741735 0 0,0 0.35140871950973224,-0.26467376206794957 l 2.7099657351745843 3.6632242639876953" fill="#ff3605" stroke="none" /><path d="M 87.51073957382395 83.11751280151077 l -3.6594916990824875 -4.946755824968725 a27.153232702207486,27.153232702207486 0 0,0 0.37814714666172566,-0.274739983893625 l 3.5737992360669804 5.0090150436790175" fill="#ff4d07" stroke="none" /><path d="M 87.80319425747018 82.90503203632743 l -4.863131754814211 -6.816135577348636 a29.373156792600994,29.373156792600994 0 0,0 0.4141179551626593,-0.2901160921265097 l 4.745082660067891 6.898836512239089" fill="#ff6b09" stroke="none" /><path d="M 88.09926311788651 82.69761687909137 l -3.2705480287577746 -4.755022782996764 a26.771197975743828,26.771197975743828 0 0,0 0.3819297732688573,-0.2578806878089075 l 3.1882135610823776 4.810615383104337" fill="#ff4706" stroke="none" /><path d="M 88.39885842347998 82.49532879139004 l -4.205198723103986 -6.345118756570038 a28.61211063607015,28.61211063607015 0 0,0 0.41287680879225563,-0.2685465613540875 l 4.095354888527443 6.41656424208366" fill="#ff6108" stroke="none" /><line stroke="#e1ed5e" stroke-width="0.3" x1="56.762969772571076" x2="54.21961505331055" y1="26.818313649435495" y2="22.513508569990535" /><path d="M 56.25429882871897 25.957352633546506 a86.0,86.0 0 0,1 42.265352541879196,-11.944610805530505" fill="none" id="id84" stroke="none" /><text fill="#e1ed5e" style="font-size:6.75px; font-family:Arial;" text-anchor="middle"><textPath startOffset="22.20632615414155" xlink:href="#id84">December</textPath></text><path d="M 89.3179101791058 81.91981866633112 l -3.069854222413336 -5.195942174217362 a27.03504929761801,27.03504929761801 0 0,0 0.40269770277409833,-0.23326850178492894 l 2.9799597871739176 5.248014833392338" fill="#ff4b07" stroke="none" /><path d="M 89.63071344664047 81.73862282372117 l -2.325828893004218 -4.096023235935783 a25.710295785708055,25.710295785708055 0 0,0 0.38672681435893713,-0.215213053490512 l 2.254977989573235 4.135451686986479" fill="#ff3805" stroke="none" /><path d="M 89.94658935756843 81.56283822128135 l -4.038118479402647 -7.4055906333069785 a29.434996946165256,29.434996946165256 0 0,0 0.4469283134147142,-0.23873362691847536 l 3.9100451194596273 7.4740029867272035" fill="#ff6c09" stroke="none" /><path d="M 90.26544431104013 81.39251694778311 l -2.9309412829315327 -5.6024580876396 a27.32281214553704,27.32281214553704 0 0,0 0.4186108694004234,-0.2144287462412748 l 2.8340699259423454 5.65207935919338" fill="#ff4f07" stroke="none" /><path d="M 90.91171255644093 81.06846463323043 l -2.556155184915161 -5.324649180244455 a26.906421778204347,26.906421778204347 0 0,0 0.4192555934186284,-0.19684612271379537 l 2.4641213801969237 5.367860285598257" fill="#ff4906" stroke="none" /><path d="M 91.23893434514133 80.91482961587045 l -2.1684038818475573 -4.723667094506682 a26.197596195794432,26.197596195794432 0 0,0 0.41144931802665763,-0.18460531553881426 l 2.086772445354125 4.760292740562025" fill="#ff3f05" stroke="none" /><path d="M 91.56875222667455 80.76684994638697 l -1.9446454869904164 -4.436076303047147 a25.843595672279907,25.843595672279907 0 0,0 0.4089641237618434,-0.17509709482813723 l 1.8679976054382648 4.468892925838071" fill="#ff3a05" stroke="none" /><path d="M 91.90106846888425 80.62456947434976 l -3.235262038993741 -7.739859835580184 a29.388822964837274,29.388822964837274 0 0,0 0.4684244333401177,-0.19108208779650587 l 3.101553736065243 7.794402809560267" fill="#ff6b09" stroke="none" /><path d="M 92.57280143429618 80.3572730644239 l -2.5641040541767977 -6.781291132186894 a28.249864758747055,28.249864758747055 0 0,0 0.45632635336674426,-0.16806884704148534 l 2.446995375037484 6.8244232470347015" fill="#ff5c08" stroke="none" /><path d="M 92.91201910852362 80.23233633223022 l -4.267445645707572 -11.901475404128073 a33.64342553005846,33.64342553005846 0 0,0 0.5468145989697931,-0.19077287659445982 l 4.0619490426744935 11.973169133894743" fill="#ffa40f" stroke="none" /><path d="M 93.94186890950719 79.89281104454417 l -1.1116969202486648 -3.689768296978179 a24.85360352499782,24.85360352499782 0 0,0 0.4106877879999001,-0.1198910271178284 l 1.0480189145253433 3.708357653014706" fill="#ff2c04" stroke="none" /><path d="M 94.28887869178378 79.79150937346287 l -1.8879439229071475 -6.680386391829785 a27.94203821656051,27.94203821656051 0 0,0 0.4639737002621934,-0.12682153898972467 l 1.7726723334212315 6.711894471645806" fill="#ff5708" stroke="none" /><path d="M 94.63758080256005 79.69619591428918 l -2.177555803668563 -8.244910514361964 a29.527619753948173,29.527619753948173 0 0,0 0.49253632086177473,-0.1255584749663172 l 2.035310594121789 8.281171985497144" fill="#ff6d0a" stroke="none" /><path d="M 94.98787191387505 79.60689891045804 l -0.6647050069370579 -2.7045191519980207 a23.785005671407383,23.785005671407383 0 0,0 0.39842864765061464,-0.0942951881855825 l 0.6180526723239093 2.715560252324474" fill="#ff1d02" stroke="none" /><path d="M 95.33964822691252 79.52364482259891 l -1.6791051037604743 -7.3775444770788905 a28.56621149986912,28.56621149986912 0 0,0 0.4803983540261019,-0.10499647325373711 l 1.5518640255808513 7.405354448428496" fill="#ff6008" stroke="none" /><path d="M 97.11714578562143 79.19881850522333 l -1.1439103141723594 -8.253863806281814 a29.33275455893901,29.33275455893901 0 0,0 0.5007314515082678,-0.06500931349465883 l 1.001664134156234 8.27233144294061" fill="#ff6b09" stroke="none" /><path d="M 97.47563105711357 79.15227682838746 l -1.0030187165660374 -8.283518381035492 a29.344023209144055,29.344023209144055 0 0,0 0.5019690566527697,-0.05640207229398707 l 0.8602829564035497 8.299556406800079" fill="#ff6b09" stroke="none" /><path d="M 97.83486435360386 79.11191278185805 l -0.4151653741647751 -4.0052966473213205 a25.02675595497775,25.02675595497775 0 0,0 0.4288809818400614,-0.040727417014896544 l 0.3461592652344774 4.0118496088513975" fill="#ff2f04" stroke="none" /><path d="M 98.91598698831166 79.02799685794201 l -0.36026100347877976 -6.969837829852701 a27.979142308699068,27.979142308699068 0 0,0 0.48118684507954285,-0.020720917752544084 l 0.24023332600991282 6.9750064741294375" fill="#ff5808" stroke="none" /><path d="M 99.27714615592234 79.0124445844662 l -0.17072620805634958 -4.956915954481148 a25.959855160980716,25.959855160980716 0 0,0 0.44672381949415174,-0.011537558293889087 l 0.0853757533673188 4.959120304917397" fill="#ff3c05" stroke="none" /><path d="M 99.63851952072746 79.00311137660856 l -0.14531288178417362 -8.440617320488633 a29.441868074339062,29.441868074339062 0 0,0 0.5067933610567072,-0.004362130458989272 l 2.0676613432127125e-15 8.441868074339062" fill="#ff6c09" stroke="none" /></svg>