<?xml version="1.0" encoding="utf-8" ?>
<svg baseProfile="full" height="200mm" version="1.1" viewBox="0,0,200,200" width="200mm" xmlns="http://www.w3.org/2000/svg" xmlns:ev="http://www.w3.org/2001/xml-events" xmlns:xlink="http://www.w3.org/1999/xlink"><defs /><rect fill="#1a1a1a" height="200" width="200" x="0" y="0" /><rect fill="#1a1a1a" height="200" width="180" x="10" y="0" /><text alignment-baseline="middle" fill="#e1ed5e" style="dominant-baseline: central; font-size:9.0px; font-family:Arial;" text-anchor="middle" x="100.0" y="100.0">2025</text><line stroke="#e1ed5e" stroke-width="0.3" x1="100.0" x2="100.0" y1="15.0" y2="10.0" /><path d="M 100.0 14.0 a86.0,86.0 0 0,1 42.46469731375804,11.215312516191453" fill="none" id="id121" stroke="none" /><text fill="#e1ed5e" style="font-size:6.75px; font-family:Arial;" text-anchor="middle"><textPath startOffset="22.20632615414155" xlink:href="#id121">January</textPath></text><path d="M 101.08401301168833 79.027996857942 l 0.6132097551511827 -11.863544785077487 a32.87938218390804,32.87938218390804 0 0,0 0.5649585191743212,0.034079840711388365 l -0.8173303231651158 11.851231674985796" fill="#ff9c0e" stroke="none" /><path d="M 101.44485096284872 79.0497635885617 l 2.2191201966832175 -32.17708534743781 a53.25351633393829,53.25351633393829 0 0,0 0.9139566541763892,0.07094062652305932 l -2.7726670402219478 32.13411945872628" fill="#72ff27" stroke="none" /><path d="M 102.52436894288641 79.15227682838746 l 0.47854010015689585 -3.9520655499664943 a24.980932395644285,24.980932395644285 0 0,0 0.42644268247522304,0.05536449917222022 l -0.5464975111399649 3.9432427276301376" fill="#ff3104" stroke="none" /><path d="M 102.88285421437855 79.19881850522331 l 0.5123511813522936 -3.696860513867392 a24.73219525105868,24.73219525105868 0 0,0 0.42119048589874636,0.06207252897803246 l -0.5759106476796958 3.68749350072839" fill="#ff2e04" stroke="none" /><path d="M 103.2404852339499 79.25152402106235 l 0.8631369603602121 -5.526572471597929 a26.593568511796732,26.593568511796732 0 0,0 0.4516737710810835,0.07453004231858866 l -0.9581399375801707 5.510896166339716" fill="#ff4806" stroke="none" /><path d="M 103.59715602781102 79.31037775812273 l 4.126778134491954 -23.7358290879127 a45.09190486993346,45.09190486993346 0 0,0 0.7635667319291525,0.13953693966432928 l -4.5347399875240075 23.66127666689763" fill="#ccff1d" stroke="none" /><path d="M 105.01212808612495 79.60689891045804 l 0.977840012124166 -3.9785875129269237 a25.09699032062916,25.09699032062916 0 0,0 0.4186310776225885,0.10671838289576707 l -1.0461799784317796 3.9611661338622888" fill="#ff3304" stroke="none" /><path d="M 105.36241919743992 79.69619591428918 l 3.6591698511750343 -13.854766857851539 a35.329832123411975,35.329832123411975 0 0,0 0.5866470016574143,0.16035278627184416 l -3.89711474205616 13.789727530753401" fill="#ffbc11" stroke="none" /><path d="M 105.71112130821622 79.79150937346287 l 1.8984814094667017 -6.717672712129048 a27.98078493647913,27.98078493647913 0 0,0 0.4623621947016777,0.13497620343960498 l -2.0138338218918066 6.6839981797707395" fill="#ff5b08" stroke="none" /><path d="M 106.0581310904928 79.89281104454417 l 7.971530529993561 -26.457841244522708 a48.63263762855414,48.63263762855414 0 0,0 0.7994618034779056,0.24839667392123677 l -8.425777706182185 26.31670443571895" fill="#a4ff21" stroke="none" /><path d="M 106.40334571778207 80.00007090966166 l 1.1173492866160588 -3.4898797419923815 a24.66438672111313,24.66438672111313 0 0,0 0.40322417334353117,0.13293667030441636 l -1.1772562822020074 3.470129347428729" fill="#ff2d04" stroke="none" /><path d="M 107.4271985657038 80.35727306442388 l 4.131613221082983 -10.926885768195254 a32.68191167574108,32.68191167574108 0 0,0 0.5244930683199375,0.20349516201942244 l -4.319089454402587 10.854147902285286" fill="#ff9a0e" stroke="none" /><path d="M 108.09893153111575 80.62456947434976 l 7.943565231414307 -19.003740885562873 a41.597145341802786,41.597145341802786 0 0,0 0.6582574774589521,0.28183149879200464 l -8.269506466663575 18.86418985880808" fill="#f5ff19" stroke="none" /><path d="M 108.43124777332544 80.76684994638697 l 8.265202857886353 -18.854372574865096 a41.58642619479733,41.58642619479733 0 0,0 0.653140332766936,0.29304502872879884 l -8.588525309120067 18.709307215619766" fill="#f5ff19" stroke="none" /><path d="M 109.08828744355905 81.06846463323043 l 17.431588227346634 -36.31121166384931 a61.27858439201452,61.27858439201452 0 0,0 0.946983873911181,0.4646808742224065 l -18.054043368268246 36.00577562949207" fill="#31ff3f" stroke="none" /><path d="M 109.41281617654863 81.2277094730956 l 2.6769890712425974 -5.338807816933301 a26.972364640048397,26.972364640048397 0 0,0 0.41324168799368866,0.21167844298460864 l -2.7684912468250418 5.291936848636191" fill="#ff4d07" stroke="none" /><path d="M 109.73455568895987 81.39251694778311 l 9.79107804485198 -18.71552483788634 a42.12193360556564,42.12193360556564 0 0,0 0.6395612942828666,0.3416314939956428 l -10.111784385663158 18.544214617388942" fill="#eeff19" stroke="none" /><path d="M 110.36928655335952 81.73862282372117 l 15.107761949756343 -26.60631836474321 a51.59641560798548,51.59641560798548 0 0,0 0.7685489235835615,0.44519314294010137 l -15.563507605805233 26.34232106441306" fill="#84ff25" stroke="none" /><line stroke="#e1ed5e" stroke-width="0.3" x1="143.23703022742887" x2="145.7803849466894" y1="26.81831364943548" y2="22.513508569990506" /><path d="M 143.74570117128098 25.957352633546492 a86.0,86.0 0 0,1 28.547481713284135,27.462654790039103" fill="none" id="id122" stroke="none" /><text fill="#e1ed5e" style="font-size:6.75px; font-family:Arial;" text-anchor="middle"><textPath startOffset="19.985693538727396" xlink:href="#id122">February</textPath></text><path d="M 110.68208982089419 81.91981866633111 l 16.554115804309713 -28.018994464457624 a53.54385964912281,53.54385964912281 0 0,0 0.7894861937374856,0.47565659810552074 l -17.03396406426484 27.729891256893488" fill="#6fff27" stroke="none" /><path d="M 110.99172775467656 82.1063720568725 l 8.211420755810453 -13.367517024467157 a36.68814655172414,36.68814655172414 0 0,0 0.5352640684956128,0.33518231058673276 l -8.44030397667833 13.22419037255748" fill="#ffcd13" stroke="none" /><path d="M 111.2981086023043 82.29822771554956 l 4.599596368481209 -7.20660513907907 a29.549353448275863,29.549353448275863 0 0,0 0.4264013553134558,0.27734330262121587 l -4.722964749578945 7.126362912298325" fill="#ff700a" stroke="none" /><path d="M 111.60114157652 82.49532879139004 l 11.619491335390919 -17.532358698989587 a42.033216122202056,42.033216122202056 0 0,0 0.5996644871050951,0.4048961385379506 l -11.919560516902555 17.329750648152967" fill="#f0ff19" stroke="none" /><path d="M 111.90073688211348 82.69761687909136 l 10.803596453785135 -15.707259708264678 a40.063989715668484,40.063989715668484 0 0,0 0.5648428466119189,0.3957085107799736 l -11.072370439980704 15.518966354720769" fill="#fff717" stroke="none" /><path d="M 112.19680574252982 82.90503203632743 l 9.686348825523151 -13.5763269787824 a37.67758998790079,37.67758998790079 0 0,0 0.5247136981172944,0.3812268167091786 l -9.918607839994234 13.407580927256548" fill="#ffda14" stroke="none" /><path d="M 112.48926042617603 83.11751280151076 l 3.680667402668877 -4.975380301720531 a27.188838475499093,27.188838475499093 0 0,0 0.3738515087924965,0.2815772056679134 l -3.7657650652197567 4.91128650654677" fill="#ff5007" stroke="none" /><path d="M 112.77801427241765 83.33499621200491 l 5.479227465058621 -7.145973115524798 a30.00482456140351,30.00482456140351 0 0,0 0.4071618184834631,0.3177962576200923 l -5.601421838701514 7.050598468681482" fill="#ff760a" stroke="none" /><path d="M 113.06298171725822 83.55741782278167 l 6.669456913769539 -8.394951149414123 a31.721793708408953,31.721793708408953 0 0,0 0.4246137334700983,0.3433414425603071 l -6.812974045804129 8.278903609589685" fill="#ff8d0d" stroke="none" /><path d="M 113.34407831869373 83.78471172551755 l 5.32444601113113 -6.470092943883529 a29.37924984875983,29.37924984875983 0 0,0 0.38772560311327514,0.32470904221595065 l -5.435029151203523 6.377482744273759" fill="#ff6e0a" stroke="none" /><path d="M 113.6212207817346 84.01681056812373 l 0.9476691742202472 -1.111998415782457 a22.461032970356925,22.461032970356925 0 0,0 0.2921070187144746,0.2533123281588316 l -0.9666699915814859 1.0955210942039542" fill="#ff0d01" stroke="none" /><path d="M 114.42810811169701 84.74124197986012 l 11.000268643427757 -11.633572197211256 a37.01080611010285,37.01080611010285 0 0,0 0.4591397694806517,0.44169209446442437 l -11.198891656520829 11.44249701598453" fill="#ffd113" stroke="none" /><path d="M 114.68862486808459 84.99185889309783 l 16.315344161015958 -16.670245824593 a44.32568436176649,44.32568436176649 0 0,0 0.5406977841222732,0.5383758560040622 l -16.59987774530555 16.386934117938818" fill="#d5ff1c" stroke="none" /><path d="M 114.94478906791727 85.2469230424477 l 8.326826458852679 -8.220009730572688 a32.70062386569873,32.70062386569873 0 0,0 0.39199598219996923,0.4039863170766991 l -8.467086704755758 8.075459217945875" fill="#ff9a0e" stroke="none" /><path d="M 115.19652480421416 85.50635884689758 l 5.436572836982514 -5.18511546666759 a28.5127722323049,28.5127722323049 0 0,0 0.3356804303351887,0.35808047844042756 l -5.525020589288165 5.090765571349108" fill="#ff6209" stroke="none" /><path d="M 115.4437574822437 85.77008943001954 l 14.551980923453513 -13.408225776329745 a40.78738656987295,40.78738656987295 0 0,0 0.4713008920872272,0.5204222164741374 l -14.780625456156777 13.155750772586059" fill="#feff18" stroke="none" /><path d="M 115.68641384162765 86.03803664274999 l 8.765266125239712 -7.801676386503088 a32.73439579552329,32.73439579552329 0 0,0 0.37100250191417233,0.42411999395511996 l -8.898260490731733 7.64964083634502" fill="#ff9a0e" stroke="none" /><path d="M 116.15771136456269 86.58626213691792 l 9.199513846859956 -7.6372120051739145 a32.956507108287965,32.956507108287965 0 0,0 0.3586005509589691,0.43960187406926715 l -9.329612889895335 7.477725961496547" fill="#ff9d0e" stroke="none" /><path d="M 116.38621287248628 86.86637796730983 l 9.383101863654833 -7.52059761034796 a33.02505671506352,33.02505671506352 0 0,0 0.3517104367846125,0.44663653796239644 l -9.51116638103341 7.357968678432525" fill="#ff9e0e" stroke="none" /><path d="M 116.60985879189232 87.15038557335679 l 44.173005060697605 -34.17284217811568 a76.8483439201452,76.8483439201452 0 0,0 0.8004086556794153,1.0532439680260952 l -44.75468965660114 33.40741343420856" fill="#44ffe9" stroke="none" /><path d="M 116.82858285166822 87.43820079747576 l 4.422211540346869 -3.30098701064517 a26.51837568058076,26.51837568058076 0 0,0 0.26990325420711986,0.36814773541513357 l -4.478377407067616 3.2243768315585433" fill="#ff4706" stroke="none" /><path d="M 117.04232023915458 87.72973835380427 l 4.355882508494444 -3.13618200628095 a26.367434210526316,26.367434210526316 0 0,0 0.2620262270422957,0.3706175158662979 l -4.409221355340622 3.060737990082859" fill="#ff4506" stroke="none" /><path d="M 117.2510076193507 88.02491185347247 l 10.045237559594662 -6.973077044729913 a33.228270568663035,33.228270568663035 0 0,0 0.3221172826628323,0.47266736512270463 l -10.163779307926228 6.799131656336802" fill="#ffa10e" stroke="none" /><path d="M 117.45458315368197 88.32363383020206 l 4.659241213198705 -3.116832180964779 a26.605637477313977,26.605637477313977 0 0,0 0.25136419018792305,0.38284490676204247 l -4.712202038744553 3.036169210225063" fill="#ff4806" stroke="none" /><path d="M 117.65298651832404 88.62581576622439 l 5.383488978186568 -3.4686932658581004 a27.40420069570478,27.40420069570478 0 0,0 0.25208263434988315,0.3987341897659325 l -5.4423992087824065 3.375511428377962" fill="#ff5307" stroke="none" /><line stroke="#e1ed5e" stroke-width="0.3" x1="172.23445277983987" x2="176.4835382374775" y1="55.19839476539836" y2="52.563006222186495" /><path d="M 173.08426987136738 54.67131705675599 a86.0,86.0 0 0,1 12.851231095245387,41.99856678651699" fill="none" id="id123" stroke="none" /><text fill="#e1ed5e" style="font-size:6.75px; font-family:Arial;" text-anchor="middle"><textPath startOffset="22.20632615414155" xlink:href="#id123">March</textPath></text><path d="M 117.84615892207809 88.93136811851018 l 28.40131262150167 -17.61520088054369 a54.42050060496068,54.42050060496068 0 0,0 0.486892967287005,0.8003240183340656 l -28.700321387074897 17.123709089002542" fill="#66ff29" stroke="none" /><path d="M 118.03404312379186 89.2402003453031 l 15.83470083095233 -9.447587951496793 a39.43894434361766,39.43894434361766 0 0,0 0.34281893995383866,0.585988694773219 l -15.994979445376497 9.173619844369679" fill="#ffef16" stroke="none" /><path d="M 118.21658344932153 89.55222093294921 l 8.33149715364803 -4.7783736067324485 a30.60451451905626,30.60451451905626 0 0,0 0.2581598042383622,0.4592374854949832 l -8.412514599178824 4.634252611302671" fill="#ff7e0b" stroke="none" /><path d="M 118.3937258080291 89.86733742301442 l 8.912486222114099 -4.909674992072293 a31.17532894736842,31.17532894736842 0 0,0 0.25488340402206194,0.4722602375725703 l -8.995677725354627 4.755533771167264" fill="#ff860c" stroke="none" /><path d="M 118.56541770881063 90.18545643968196 l 13.061378786868437 -6.904852509765951 a35.77418708408953,35.77418708408953 0 0,0 0.2831110680828992,0.5468804710930665 l -13.178299288111452 6.678999316412541" fill="#ffc212" stroke="none" /><path d="M 118.73160827565052 90.50648371742162 l 13.944311202963277 -7.067227944690445 a36.63296279491833,36.63296279491833 0 0,0 0.28022469851685533,0.5649158926670957 l -14.063895914433541 6.826152463524399" fill="#ffcc13" stroke="none" /><path d="M 118.89224826269711 90.83032412892265 l 13.95584360724444 -6.773707427853209 a36.51285541439806,36.51285541439806 0 0,0 0.26957233578300416,0.5677880886758118 l -14.0703741368692 6.532476923536857" fill="#ffcb12" stroke="none" /><path d="M 119.04729006885535 91.15688171328212 l 28.66712699089382 -13.30933660402177 a52.606053387779795,52.606053387779795 0 0,0 0.37424868999222727,0.8246073798541215 l -28.891977997849395 12.813907215325585" fill="#79ff26" stroke="none" /><path d="M 119.196687751892 91.48605970444005 l 19.456751772668735 -8.629281523928785 a42.28449410163339,42.28449410163339 0 0,0 0.2893654586670042,0.6678953744873593 l -19.60240794117842 8.293087004854824" fill="#edff1a" stroke="none" /><path d="M 119.34039704204932 91.81776055985345 l 10.12416549333653 -4.283177124959956 a31.992921960072596,31.992921960072596 0 0,0 0.21020616207773085,0.5090308948744384 l -10.196393342300459 4.108271659632215" fill="#ff910d" stroke="none" /><path d="M 119.47837535516314 92.15188598940014 l 4.9751557136990305 -2.004560880959071 a26.363808227465213,26.363808227465213 0 0,0 0.16597454749299026,0.4223871196603513 l -5.008923811073721 1.9186247564029353" fill="#ff4506" stroke="none" /><path d="M 119.85752413597 93.16781622104841 l 9.016998781791306 -3.102390428431497 a30.5357796430732,30.5357796430732 0 0,0 0.16672929193636507,0.49849936118489313 l -9.06906536749944 2.94671796432429" fill="#ff7d0b" stroke="none" /><path d="M 119.97218684219823 93.5106431181261 l 15.81831229960744 -5.1396812273056955 a37.63235783424078,37.63235783424078 0 0,0 0.19487202606410808,0.6177975762064738 l -15.904439809439754 4.8666334846728025" fill="#ffd914" stroke="none" /><path d="M 120.08093135843002 93.85539295169968 l 20.2813509181036 -6.205933857152263 a42.20959240774349,42.20959240774349 0 0,0 0.206614151658795,0.6966002059966989 l -20.385170966874096 5.855904264409034" fill="#edff19" stroke="none" /><path d="M 120.28053869075195 94.5502522615342 l 3.591600995829566 -0.9651281804175762 a24.71901467029643,24.71901467029643 0 0,0 0.10688462879117697,0.41187007571652984 l -3.607681956491046 0.9031616791521959" fill="#ff2e04" stroke="none" /><path d="M 120.37134235888165 94.90015583598534 l 14.962348383136751 -3.7457347550995164 a36.424084996975196,36.424084996975196 0 0,0 0.14702703277407078,0.6095219710109591 l -15.024608216171641 3.487627552429151" fill="#ffca12" stroke="none" /><path d="M 120.45610955862082 95.25157060432595 l 3.7131097636263495 -0.8619155807922073 a24.81183454325469,24.81183454325469 0 0,0 0.09299193558718473,0.4168646133511693 l -3.7273960862155717 0.797872797891074" fill="#ff2f04" stroke="none" /><path d="M 120.53481517161879 95.60439243477599 l 0.524499097938127 -0.11227236201455706 a21.536380822746523,21.536380822746523 0 0,0 0.07447557803764814,0.3631693679747616 l -0.526353971890772 0.10322733787638365" fill="#ff0000" stroke="none" /><path d="M 120.6074358757038 95.95851677861258 l 42.178520790145534 -8.271955089633018 a63.98200620084694,63.98200620084694 0 0,0 0.20265318215448705,1.082581402432722 l -42.31465969620988 7.544695609737732" fill="#34ff5f" stroke="none" /><path d="M 120.67395015179393 96.31383870115 l 12.23609981218913 -2.1816942212489283 a33.42907592256503,33.42907592256503 0 0,0 0.09612950790775407,0.567361797251001 l -12.271841181617107 1.9707466356820893" fill="#ffa40f" stroke="none" /><path d="M 120.73433829027371 96.67025291283417 l 10.591435745266834 -1.7008887299890167 a31.727140048396855,31.727140048396855 0 0,0 0.0819528745548331,0.539967048312274 l -10.619144513260968 1.5183225692846607" fill="#ff8d0d" stroke="none" /><path d="M 120.83666639777658 97.38593545837742 l 8.553947367264284 -1.0731356963154812 a29.62099969751966,29.62099969751966 0 0,0 0.059114554333516596,0.5064574008796228 l -8.57115227460139 0.9257345571110057" fill="#ff710a" stroke="none" /><path d="M 120.87857604477298 97.74499172005257 l 12.407469578452284 -1.3400792550510336 a33.4796279491833,33.4796279491833 0 0,0 0.05695183530640092,0.5734972093444253 l -12.428698539440914 1.1263065150021736" fill="#ffa40f" stroke="none" /><path d="M 120.94382443527127 98.46500227214037 l 18.655746458740992 -1.3673017797774487 a39.705784936479134,39.705784936479134 0 0,0 0.04409121135354641,0.6820715244072962 l -18.676518261098956 1.0459711911171172" fill="#fff216" stroke="none" /><path d="M 120.96714384426684 98.82574320788733 l 8.848460265917636 -0.49555459933728374 a29.862326073805203,29.862326073805203 0 0,0 0.024325554708456425,0.5134740131263553 l -8.85567942885959 0.34316947958792865" fill="#ff740a" stroke="none" /><path d="M 120.98425023603335 99.18683210126433 l 32.2156798144983 -1.2484008895448928 a53.23985934664247,53.23985934664247 0 0,0 0.027604374081177344,0.9160547870874337 l -32.232395883035124 0.69367595503246" fill="#72ff27" stroke="none" /><line stroke="#e1ed5e" stroke-width="0.3" x1="184.98032266829074" x2="189.97916517819016" y1="98.17113171792111" y2="98.06355123074" /><path d="M 185.9800911702706 98.14961562048488 a86.0,86.0 0 0,1 -9.607161424134198,41.387399972396054" fill="none" id="id124" stroke="none" /><text fill="#e1ed5e" style="font-size:6.75px; font-family:Arial;" text-anchor="middle"><textPath startOffset="21.466115282336823" xlink:href="#id124">April</textPath></text><path d="M 120.99513854157772 99.54816195383933 l 3.523771935424685 -0.07583537604503164 a24.524587870538415,24.524587870538415 0 0,0 0.005450289382512491,0.42213091910522876 l -3.524555231924913 0.015168198879340176" fill="#ff2b04" stroke="none" /><path d="M 120.99980553446 99.90962569577887 l 11.65536318039031 -0.05015976629611387 a32.655471113127646,32.655471113127646 0 0,0 -0.0024191526153927966,0.5621258710566197 l -11.654499730485414 -0.15047558296419053" fill="#ff990e" stroke="none" /><path d="M 120.99824983174949 100.27111621757518 l 3.816571641190374 0.04927717670544741 a24.816889745916516,24.816889745916516 0 0,0 -0.009191629180800949,0.42709889021848085 l -3.8151579493245658 -0.11496588271404311" fill="#ff2f04" stroke="none" /><path d="M 120.9904718944345 100.63252640178507 l 31.14549627106995 0.9385376749616396 a52.15963399879008,52.15963399879008 0 0,0 -0.03476779177356803,0.8972022184659425 l -31.124726346445176 -1.4745171404415884" fill="#7eff26" stroke="none" /><path d="M 120.95626037817324 101.35467743843564 l 9.003791347372049 0.5820328998856519 a30.022583938294012,30.022583938294012 0 0,0 -0.03777618978278618,0.5154260962635991 l -8.992438598924926 -0.7369321326460213" fill="#ff770a" stroke="none" /><path d="M 120.92983693683757 101.71520430193887 l 6.142943015858774 0.5034154025740022 a27.163535995160313,27.163535995160313 0 0,0 -0.04220101563734768,0.4656846910042161 l -6.133367403944351 -0.6090814821267889" fill="#ff5007" stroke="none" /><path d="M 120.8583938346157 102.4346265915055 l 15.138292685089336 1.7669668246433736 a36.24106548699334,36.24106548699334 0 0,0 -0.0776568214381353,0.6190012740901123 l -15.105634354404353 -2.027285853020881" fill="#ffc812" stroke="none" /><path d="M 120.81339534386255 102.79330883721812 l 16.027421398646304 2.1509963699343775 a37.17111690865094,37.17111690865094 0 0,0 -0.09056645101923719,0.6334215474907765 l -15.988020896610463 -2.426563389405563" fill="#ffd313" stroke="none" /><path d="M 120.70491114924044 103.5080841355445 l 17.902895565866793 3.0333317280248875 a39.158049758015736,39.158049758015736 0 0,0 -0.11831988420024614,0.6636007460349256 l -17.848029239327357 -3.3410512247930315" fill="#ffec16" stroke="none" /><path d="M 120.64145759157962 103.86396538481128 l 21.06506221696238 3.9432618008740996 a42.430962643678164,42.430962643678164 0 0,0 -0.14056785309656103,0.7167524545303643 l -20.99406443089016 -4.305277982472409" fill="#ebff1a" stroke="none" /><path d="M 120.49622156327973 104.57218783832717 l 15.183126863375206 3.3869709974678015 a36.55631427707199,36.55631427707199 0 0,0 -0.1422901162225103,0.612982096608247 l -15.122576181222144 -3.6478217514246136" fill="#ffcb13" stroke="none" /><path d="M 120.41448212921028 104.9243191809786 l 3.6042326005599583 0.8694020066397036 a24.707607380520265,24.707607380520265 0 0,0 -0.10328801804045372,0.4125842887356137 l -3.5887332682244435 -0.9313141347727132" fill="#ff2d04" stroke="none" /><path d="M 120.32669344350535 105.2749913415812 l 13.865774617803138 3.5983147606625523 a35.325068058076226,35.325068058076226 0 0,0 -0.15780536132789386,0.5872524545364399 l -13.801781180133467 -3.8364581483745406" fill="#ffbc11" stroke="none" /><path d="M 120.23288151984713 105.62410040840565 l 4.592739664011878 1.2766362020522144 a25.76687084089534,25.76687084089534 0 0,0 -0.12246302068220087,0.42630984063371674 l -4.570084006443579 -1.3555035181905133" fill="#ff3c05" stroke="none" /><path d="M 120.13307415673323 105.97154293290107 l 18.113372389013747 5.3724920515651275 a39.89333030852994,39.89333030852994 0 0,0 -0.20093553820057758,0.6566689648919201 l -18.01821007830704 -5.683487989009104" fill="#fff517" stroke="none" /><path d="M 120.02730092923936 106.31721596034902 l 25.901158056738968 8.170008012845516 a48.159142468239565,48.159142468239565 0 0,0 -0.25617854276737645,0.7884364836527067 l -25.756687262955346 -8.614643396476017" fill="#a9ff21" stroke="none" /><path d="M 119.9155931802556 106.66101706037122 l 6.828916942158502 2.284015938861032 a28.20075241984271,28.20075241984271 0 0,0 -0.15793652661301785,0.4590374747867955 l -6.788589584602254 -2.401226116737128" fill="#ff5e08" stroke="none" /><path d="M 119.67450827220406 107.3425965602758 l 3.7277767708986143 1.391219567817429 a24.978920901391408,24.978920901391408 0 0,0 -0.1538055886729156,0.4015378582023211 l -3.703276902632192 -1.4551809928528938" fill="#ff3104" stroke="none" /><path d="M 119.54520255179757 107.68017299344265 l 9.527079202605572 3.7436100344486345 a31.23620311554749,31.23620311554749 0 0,0 -0.20094901816359803,0.4987389833730167 l -9.461227570184581 -3.907048385664465" fill="#ff870c" stroke="none" /><path d="M 119.41010516605496 108.01547362559984 l 4.820993188117082 1.990846696499528 a26.21588399879008,26.21588399879008 0 0,0 -0.1758324542098015,0.41561598168466773 l -4.786009752714972 -2.0735372038503592" fill="#ff4306" stroke="none" /><path d="M 119.26925614724726 108.34839909993367 l 18.554891898442975 8.03890101624171 a41.221472323049,41.221472323049 0 0,0 -0.28768448902123417,0.6486525762558178 l -18.413766324690467 -8.357101928990216" fill="#f9ff18" stroke="none" /><path d="M 119.12269723197855 108.67885076344098 l 2.897976511475091 1.3152488560551956 a24.18247504537205,24.18247504537205 0 0,0 -0.17529459664490368,0.3775689662337117 l -2.874907297990356 -1.3649378895677378" fill="#ff2603" stroke="none" /><path d="M 118.97047184881838 109.00673069616215 l 7.459366267353735 3.5415304199866884 a29.257395644283122,29.257395644283122 0 0,0 -0.2199135534469016,0.4530870563435389 l -7.397299457292118 -3.6694064322955025" fill="#ff6c0a" stroke="none" /><path d="M 118.81262510543309 109.33194174019688 l 12.564535577354564 6.23259717043112 a35.02543481548699,35.02543481548699 0 0,0 -0.2725668166124385,0.5378001875969333 l -12.455390090955856 -6.447951569730748" fill="#ffb811" stroke="none" /><line stroke="#e1ed5e" stroke-width="0.3" x1="174.80103733775053" x2="179.2010983576182" y1="140.37084112569926" y2="142.7455964860345" /><path d="M 175.68104954172406 140.8457921977663 a86.0,86.0 0 0,1 -30.038265399797805,32.042727171017184" fill="none" id="id125" stroke="none" /><text fill="#e1ed5e" style="font-size:6.75px; font-family:Arial;" text-anchor="middle"><textPath startOffset="22.206326154141568" xlink:href="#id125">May</textPath></text><path d="M 118.48025628344425 109.97397251340804 l 27.091169710131535 14.621365521158507 a51.78499319419238,51.78499319419238 0 0,0 -0.43012021187905597,0.7807931214214442 l -26.83547308880097 -15.085529160977757" fill="#82ff25" stroke="none" /><path d="M 118.30583269289576 110.29060199501025 l 17.02146664104456 9.568597152224116 a40.52660692679976,40.52660692679976 0 0,0 -0.3470775885000993,0.605159030806921 l -16.854237056392083 -9.860176028889352" fill="#fffc17" stroke="none" /><path d="M 118.12598468904814 110.60418214915192 l 11.472799791727304 6.711892393119826 a34.29190108892922,34.29190108892922 0 0,0 -0.3024531376349752,0.5069288557481911 l -11.355565778394102 -6.908383342754121" fill="#ffaf10" stroke="none" /><path d="M 117.75023020441432 111.22182372390056 l 2.057661163719525 1.3008682477275209 a23.434384452510585,23.434384452510585 0 0,0 -0.21849230978828751,0.33910491686926164 l -2.0349639905541874 -1.3360947645182355" fill="#ff1b02" stroke="none" /><path d="M 117.35343817320211 111.8261652097733 l 7.5454999280076365 5.142169975097508 a30.13107229280097,30.13107229280097 0 0,0 -0.29577104327000403,0.42608024747723056 l -7.455867977575497 -5.271291484761758" fill="#ff780b" stroke="none" /><path d="M 117.14729908036423 112.12312394758627 l 8.827236966337841 6.240848040037564 a31.810564125831824,31.810564125831824 0 0,0 -0.3199539980622571,0.44438811934099387 l -8.718503175899981 -6.391869764829689" fill="#ff8e0d" stroke="none" /><path d="M 116.93607887273984 112.41649034213515 l 5.967222819096943 4.37480039266606 a28.399096339987903,28.399096339987903 0 0,0 -0.292427839026811,0.39175487825088795 l -5.89103371337504 -4.476868150426263" fill="#ff6108" stroke="none" /><path d="M 116.71984013943494 112.70617746262583 l 16.028785444016716 12.18101313550676 a41.13204022988506,41.13204022988506 0 0,0 -0.4332441377506061,0.5600264499401487 l -15.816734489048041 -12.455117579560161" fill="#faff18" stroke="none" /><path d="M 116.498646956653 112.99209946851258 l 24.545646585805983 19.32882634555391 a52.242475801572894,52.242475801572894 0 0,0 -0.5624327623163509,0.701721348980262 l -24.20929591143478 -19.748475528112422" fill="#7dff26" stroke="none" /><path d="M 116.27256486870786 113.27417163493432 l 3.6739810737361265 2.9970109659883146 a25.741330157289774,25.741330157289774 0 0,0 -0.28303695720853206,0.3409362481032365 l -3.6218481166340513 -3.0598084712053213" fill="#ff3c05" stroke="none" /><path d="M 116.0416608686014 113.55231037782055 l 11.987898554125124 10.127612303618934 a36.69325468844525,36.69325468844525 0 0,0 -0.41176382455044114,0.47897435316197506 l -11.811792220003904 -10.332463755942436" fill="#ffcd13" stroke="none" /><path d="M 115.56566222782051 114.09645910891815 l 11.435064686239471 10.355738123965377 a36.427313974591655,36.427313974591655 0 0,0 -0.42490482881637426,0.46115027195728536 l -11.255113449427375 -10.551039650723997" fill="#ffca12" stroke="none" /><path d="M 115.32070863581623 114.36230785411682 l 4.246561209446526 3.9809137332486255 a26.820735027223233,26.820735027223233 0 0,0 -0.3186475084044251,0.33410063862608924 l -4.177407149663136 -4.0534214884572215" fill="#ff4b07" stroke="none" /><path d="M 115.07121518719521 114.62390073753431 l 13.944995914579767 13.531107711433858 a40.430743345432546,40.430743345432546 0 0,0 -0.4889412527879102,0.4952949076685955 l -13.71001403673632 -13.769143113083118" fill="#fffb17" stroke="none" /><path d="M 114.29624159901734 115.38237550388516 l 0.9580017009202363 1.0307843355087585 a22.407225499092558,22.407225499092558 0 0,0 -0.2847856467097799,0.26014493606687283 l -0.9401165047435924 -1.0471220381622142" fill="#ff0d01" stroke="none" /><path d="M 114.0293411484842 115.62618273729858 l 10.383275509161336 11.565116194740357 a36.542339685420444,36.542339685420444 0 0,0 -0.47167050544849,0.41619438086898425 l -10.18266265080626 -11.74213371738163" fill="#ffcb12" stroke="none" /><path d="M 113.20401910651253 116.32954008644616 l 17.335933181875504 21.43951879695196 a48.57149879007865,48.57149879007865 0 0,0 -0.6546570857152385,0.5200991820871307 l -16.964318603442912 -21.734751893044216" fill="#a5ff21" stroke="none" /><path d="M 112.92097659922987 116.55440617244103 l 14.402433398969164 18.45245446635022 a44.40775862068965,44.40775862068965 0 0,0 -0.606633818108155,0.4651409435322912 l -14.082670852367515 -18.69763475170988" fill="#d4ff1c" stroke="none" /><path d="M 112.63410532772338 116.77436683061366 l 2.698743876624818 3.583136169447666 a25.48576451905626,25.48576451905626 0 0,0 -0.35269267664814474,0.26091361049324197 l -2.636666229558109 -3.6290597286806774" fill="#ff3805" stroke="none" /><path d="M 112.34349029814194 116.9893568818739 l 2.973722668355679 4.092978117220051 a26.059199183303086,26.059199183303086 0 0,0 -0.36516715132327443,0.26053706667994847 l -2.90282818918352 -4.143559445744219" fill="#ff4006" stroke="none" /><path d="M 112.04921762599082 117.19931262002967 l 3.4316671116067714 4.898435507802993 a26.980887023593468,26.980887023593468 0 0,0 -0.38267006889262384,0.2632039627563301 l -3.3468401580912643 -4.956780259924417" fill="#ff4d07" stroke="none" /><path d="M 111.7513745106137 117.40417183066458 l 2.7171498996051118 4.024188293862036 a25.855614791288566,25.855614791288566 0 0,0 -0.37099766267849843,0.2458770209390907 l -2.6474775381866493 -4.070363335892445" fill="#ff3d05" stroke="none" /><path d="M 111.1453310114006 117.79835938074945 l 29.210701180716597 46.64756541068777 a76.03871748336358,76.03871748336358 0 0,0 -1.115309837873657,0.6851143959729064 l -28.403412142910632 -47.143468273489056" fill="#43ffe1" stroke="none" /><line stroke="#e1ed5e" stroke-width="0.3" x1="143.8653032363475" x2="146.44561519142675" y1="172.8068346515853" y2="177.08958963109032" /><path d="M 144.38136562736335 173.6633856474863 a86.0,86.0 0 0,1 -40.68145358897372,12.25698825130547" fill="none" id="id126" stroke="none" /><text fill="#e1ed5e" style="font-size:6.75px; font-family:Arial;" text-anchor="middle"><textPath startOffset="21.466115282336833" xlink:href="#id126">June</textPath></text><path d="M 110.5260780823613 118.17145234162733 l 12.187188297183614 21.039071683480323 a45.313989715668484,45.313989715668484 0 0,0 -0.678309930611452,0.3851620814029328 l -11.823229599650961 -21.245736930677886" fill="#c9ff1d" stroke="none" /><path d="M 109.2508944713604 118.85261126421891 l 0.323333592306623 0.658928987168935 a21.733983666061707,21.733983666061707 0 0,0 -0.3372776166980653,0.1619137523420842 l -0.311943307608325 -0.6643970160105792" fill="#ff0300" stroke="none" /><path d="M 108.92500713936063 119.00905698771935 l 26.775021418081884 57.02717096315804 a84.0,84.0 0 0,0 -1.3141280169303222,0.6032517186637025 l -25.789425405384144 -57.479609752155824" fill="#4dd2ff" stroke="none" /><path d="M 107.93186726928326 119.44442032107085 l 4.73005964097129 11.595411859569618 a33.523060344827584,33.523060344827584 0 0,0 -0.5361756874478225,0.2133553714405706 l -4.529762877481601 -11.675114075416257" fill="#ffa50f" stroke="none" /><path d="M 107.2578585660854 119.70592522655815 l 3.560790812006745 9.667958785626535 a31.30284709618875,31.30284709618875 0 0,0 -0.5072260268300637,0.18187320698362539 l -3.393845224546946 -9.72781953365012" fill="#ff880c" stroke="none" /><path d="M 106.91757812671514 119.82793768551818 l 1.6604401993988507 4.759339786429499 a26.04067226255293,26.04067226255293 0 0,0 -0.42450049000637574,0.1440136140827521 l -1.578269976455248 -4.787216387410375" fill="#ff4006" stroke="none" /><path d="M 106.57524785965236 119.94407469862006 l 8.062849623221375 24.456275809163124 a46.75109649122807,46.75109649122807 0 0,0 -0.7664478388344598,0.24539239436978336 l -7.640680439295975 -24.591441050192614" fill="#b9ff1f" stroke="none" /><path d="M 106.2309692047433 120.05430185196036 l 3.279009849082646 10.553455028953776 a32.051122958257714,32.051122958257714 0 0,0 -0.528271226340275,0.1591637870213767 l -3.096863648302125 -10.608334185080878" fill="#ff910d" stroke="none" /><path d="M 105.88484417918355 120.15858648285463 l 0.5276586376281196 1.8074993927073584 a22.882943889897156,22.882943889897156 0 0,0 -0.3790601410145892,0.10712618218013106 l -0.4964673285089247 -1.8163143682260086" fill="#ff1302" stroke="none" /><path d="M 105.18746579009965 120.34920634021253 l 3.050525922654539 11.966494615682448 a33.34919842710224,33.34919842710224 0 0,0 -0.5574822173467195,0.13701556554886252 l -2.8440904205646085 -12.017231439545341" fill="#ffa20f" stroke="none" /><path d="M 104.83641907484287 120.43548508189849 l 3.7690897034675124 15.925662192548947 a37.36559664246824,37.36559664246824 0 0,0 -0.6271723772563705,0.14274239116559573 l -3.4943971768182798 -15.988181317292227" fill="#ffd614" stroke="none" /><path d="M 104.48393922423573 120.51570834832081 l 1.0803861226211047 4.943172841296858 a26.05986085904416,26.05986085904416 0 0,0 -0.43905720409010324,0.09200870599031549 l -0.9951374571016234 -4.961037528013715" fill="#ff4006" stroke="none" /><path d="M 104.13013068566511 120.58985236759428 l 3.517653917582561 17.536485006321524 a38.88580989110707,38.88580989110707 0 0,0 -0.6574153259500456,0.12599521187998927 l -3.215270977060811 -17.594437416549983" fill="#ffe815" stroke="none" /><path d="M 103.7750983002368 120.6578951692458 l 4.822737560583079 26.390731851687114 a47.827775257108286,47.827775257108286 0 0,0 -0.8111386357153694,0.14102684905228544 l -4.367749953395659 -26.469837279260403" fill="#adff20" stroke="none" /><path d="M 102.70371172650421 120.8252237178851 l 1.8798674828393194 14.479598733228856 a35.60111917725348,35.60111917725348 0 0,0 -0.60839358959028,0.07366799098253904 l -1.630346470197659 -14.509812252936747" fill="#ffbf11" stroke="none" /><path d="M 102.34483914955558 120.86867818915974 l 1.5307209502205101 13.623161705403513 a34.70888914095583,34.70888914095583 0 0,0 -0.5942945306246421,0.06160105802297586 l -1.2959938229902654 -13.647492131882247" fill="#ffb410" stroke="none" /><path d="M 101.62511606390274 120.93702456842531 l 0.4573506396062219 5.892232432202223 a26.90995538415003,26.90995538415003 0 0,0 -0.4621300960620012,0.03187119711412937 l -0.3558577827652903 -5.899231973832637" fill="#ff4c07" stroke="none" /><path d="M 101.26447882468166 120.96189622390904 l 3.403424822440526 56.42027097751914 a77.52282970356927,77.52282970356927 0 0,0 -1.3326984044446868,0.0688852848861675 l -2.43173834958236 -56.47049606916751" fill="#45ffef" stroke="none" /><line stroke="#e1ed5e" stroke-width="0.3" x1="102.19456741930631" x2="102.32365962044197" y1="184.97166512339345" y2="189.96999836594603" /><path d="M 102.22038585953345 185.97133177190398 a86.0,86.0 0 0,1 -42.740103519485714,-10.115201625700543" fill="none" id="id127" stroke="none" /><text fill="#e1ed5e" style="font-size:6.75px; font-family:Arial;" text-anchor="middle"><textPath startOffset="22.20632615414155" xlink:href="#id127">July</textPath></text><path d="M 99.81925306533755 120.99922214144158 l -0.10973182304895979 12.74866947256285 a33.74914171203872,33.74914171203872 0 0,0 -0.5808714402978843,-0.010000228624381971 l 0.32916295323951206 -12.74489176665931" fill="#ffa80f" stroke="none" /><path d="M 99.45781275523022 120.99299961872073 l -0.34352533919254086 13.30099035758776 a34.30542574107683,34.30542574107683 0 0,0 -0.5901834355898993,-0.020327110836899524 l 0.5724291264570832 -13.293106448324767" fill="#ffaf10" stroke="none" /><path d="M 99.09653310690486 120.98055641714683 l -1.1830674874683864 27.473518239377125 a48.498979128856625,48.498979128856625 0 0,0 -0.833748101680115,-0.043095253446685806 l 1.6558036575619905 -27.449083179168237" fill="#a5ff21" stroke="none" /><path d="M 98.73552117531835 120.96189622390904 l -0.3840704625310392 6.366927639354743 a27.378501209921353,27.378501209921353 0 0,0 -0.47017652811222665,-0.03242612617874446 l 0.49360975142219593 -6.3593731686597135" fill="#ff5307" stroke="none" /><path d="M 98.01472825383883 120.90594882070398 l -1.5295605034710156 16.107071319363442 a37.179533424077434,37.179533424077434 0 0,0 -0.6365975377481465,-0.06598593767788183 l 1.8065906378247554 -16.078356013229797" fill="#ffd313" stroke="none" /><path d="M 97.65516085044442 120.86867818915974 l -0.5133177506579666 4.568442551504967 a25.5971907138536,25.5971907138536 0 0,0 -0.43743475210122323,-0.05296725659937738 l 0.5918799258105792 -4.558929766180241" fill="#ff3a05" stroke="none" /><path d="M 97.2962882734958 120.8252237178851 l -0.9589139722079036 7.385993780947735 a28.447980943738656,28.447980943738656 0 0,0 -0.4850670768768897,-0.06722587691386316 l 1.0859096402716244 -7.368393338541267" fill="#ff6109" stroke="none" /><path d="M 96.93821686468263 120.77559828337769 l -1.8718228794217497 12.701173950541966 a33.838362068965516,33.838362068965516 0 0,0 -0.5755166364411609,-0.08988386251468518 l 2.0901753794714275 -12.667071780680175" fill="#ffa90f" stroke="none" /><path d="M 96.58105272829116 120.7198165907248 l -2.777537009766321 16.832683525869033 a38.060303236539625,38.060303236539625 0 0,0 -0.6454864830371073,-0.11222609896800394 l 3.066872464275478 -16.782378848380024" fill="#ffde14" stroke="none" /><path d="M 96.22490169976321 120.6578951692458 l -3.2036712472060187 17.53096198246219 a38.82128327283726,38.82128327283726 0 0,0 -0.6563244193211127,-0.12578613702817132 l 3.5049632810988265 -17.473218647085552" fill="#ffe815" stroke="none" /><path d="M 95.86986931433489 120.58985236759428 l -2.8334891078043856 14.125732780652601 a35.40711584996975,35.40711584996975 0 0,0 -0.5965399958989616,-0.12501075619036886 l 3.076220565132734 -14.07486604373569" fill="#ffbd11" stroke="none" /><path d="M 95.16358092515715 120.4354850818985 l -2.443444936405406 10.324370525723223 a31.609573502722323,31.609573502722323 0 0,0 -0.5284017594666057,-0.12986829652595538 l 2.6207999806152222 -10.280780970883237" fill="#ff8c0c" stroke="none" /><path d="M 94.81253420990036 120.34920634021253 l -3.618699353566533 14.195305146774693 a35.64928917120387,35.64928917120387 0 0,0 -0.5933222510625065,-0.1567017991276318 l 3.8625120474405286 -14.13091199834348" fill="#ffc011" stroke="none" /><path d="M 94.46302465271185 120.25689768951611 l -4.024195579681555 14.722427503697887 a36.262503781004234,36.262503781004234 0 0,0 -0.6006949919952363,-0.16976240491795036 l 4.2770217397814045 -14.650976305441416" fill="#ffc812" stroke="none" /><path d="M 94.11515582081647 120.15858648285463 l -2.016150997882636 6.90634331442053 a28.19461206896552,28.19461206896552 0 0,0 -0.46470765823895444,-0.14001260537234878 l 2.1347336305618367 -6.870615339942455" fill="#ff5e08" stroke="none" /><path d="M 93.76903079525671 120.05430185196036 l -8.05414652196098 25.922176824171387 a48.14458560193587,48.14458560193587 0 0,0 -0.7892930081994552,-0.2527066961737842 l 8.499160875251375 -25.779697281337896" fill="#a9ff21" stroke="none" /><path d="M 93.08242187328487 119.8279376855182 l -3.4881354133960314 9.998084640109182 a31.589088021778583,31.589088021778583 0 0,0 -0.5118642262550979,-0.18353630027821047 l 3.6597192002808563 -9.936560798791014" fill="#ff8b0c" stroke="none" /><path d="M 92.7421414339146 119.70592522655815 l -5.284641989427919 14.348414059681021 a36.29066470054447,36.29066470054447 0 0,0 -0.5843311639836997,-0.2209440469884784 l 5.530843374171901 -14.25532176258591" fill="#ffc812" stroke="none" /><path d="M 92.40401165467489 119.57807347666478 l -2.0459214071818854 5.273204462186936 a26.656189503932247,26.656189503932247 0 0,0 -0.4263453451145276,-0.16965161158621103 l 2.136387828338271 -5.237206006194658" fill="#ff4906" stroke="none" /><path d="M 91.7346041902142 119.30500536409082 l -11.454819376888684 26.75435691218984 a50.10341046581972,50.10341046581972 0 0,0 -0.789914444493798,-0.34627527902038874 l 11.913654496040227 -26.553217079875" fill="#94ff23" stroke="none" /><path d="M 91.40352486487194 119.15986991738527 l -1.09942442319157 2.4504030548833824 a23.685741833030853,23.685741833030853 0 0,0 -0.3705487731495763,-0.1701007674833407 l 1.1414411921085656 -2.431115217065967" fill="#ff1f03" stroke="none" /><path d="M 91.07499286063937 119.00905698771935 l -1.146750482502014 2.44242328686104 a23.698234271022383,23.698234271022383 0 0,0 -0.3677597304613673,-0.17654701934347442 l 1.1886228809636235 -2.4223219910180034" fill="#ff1f03" stroke="none" /><path d="M 90.7491055286396 118.85261126421891 l -3.7847239314091037 7.712976214585386 a29.591515426497278,29.591515426497278 0 0,0 -0.4553515512294241,-0.2283227207295737 l 3.9169293903212883 -7.646685652946511" fill="#ff710a" stroke="none" /><path d="M 90.42595943632237 118.69057910512821 l -4.508803084222468 8.802149954829002 a30.88974969751966,30.88974969751966 0 0,0 -0.4711556117521418,-0.24648634787931564 l 4.659649598501105 -8.72323418800497" fill="#ff820c" stroke="none" /><path d="M 90.10565033884886 118.52300852407294 l -1.519143809766024 2.843957885183017 a24.224266485178465,24.224266485178465 0 0,0 -0.36610617055288913,-0.19963027473917777 l 1.5678727921875535 -2.817386958684074" fill="#ff2703" stroke="none" /><line stroke="#e1ed5e" stroke-width="0.3" x1="58.666819895761336" x2="56.23545636021788" y1="174.27360380694188" y2="178.64263932499728" /><path d="M 58.180547188652646 175.14741091055294 a86.0,86.0 0 0,1 -31.652253787137756,-30.449443065178592" fill="none" id="id128" stroke="none" /><text fill="#e1ed5e" style="font-size:6.75px; font-family:Arial;" text-anchor="middle"><textPath startOffset="22.20632615414155" xlink:href="#id128">August</textPath></text><path d="M 89.7882731507175 118.34994917583269 l -2.9398869697446592 5.282826036548142 a27.045757713248637,27.045757713248637 0 0,0 -0.4048508231766657,-0.22988486335715547 l 3.030386559842532 -5.231438007396354" fill="#ff4e07" stroke="none" /><path d="M 89.4739219176387 118.17145234162733 l -3.98370876567849 6.877183829726134 a28.94767846339988,28.94767846339988 0 0,0 -0.4290213141404665,-0.25347335450625946 l 4.101497950847339 -6.8075919029261245" fill="#ff6809" stroke="none" /><path d="M 89.1626897886671 117.98757091392108 l -16.53639082611016 27.44680154434617 a53.04339458560194,53.04339458560194 0 0,0 -0.7780223256458739,-0.47792485781757377 l 17.006392351688344 -27.15808821970022" fill="#74ff27" stroke="none" /><path d="M 88.8546689885994 117.79835938074946 l -4.645784245885733 7.419011380560813 a29.753573049001815,29.753573049001815 0 0,0 -0.43173596010271703,-0.2755543166175135 l 4.772802008035374 -7.337942635119496" fill="#ff730a" stroke="none" /><path d="M 88.54995079064634 117.60387380957326 l -14.47938265615182 22.26132136717764 a47.555958862673926,47.555958862673926 0 0,0 -0.6823720776669145,-0.45223900446551607 l 14.860429432558696 -22.008784341620803" fill="#b0ff20" stroke="none" /><path d="M 88.24862548938628 117.40417183066458 l -4.102184103495202 6.075469465615955 a28.3307055353902,28.3307055353902 0 0,0 -0.40181455226153073,-0.2763717129861808 l 4.206155540379624 -6.003956963264672" fill="#ff6008" stroke="none" /><path d="M 87.36589467227662 116.77436683061367 l -13.452860447009272 17.861432226942718 a43.36090819721718,43.36090819721718 0 0,0 -0.5923332794387088,-0.4541759002868104 l 13.758322454941467 -17.62721698482854" fill="#e0ff1b" stroke="none" /><path d="M 87.07902340077011 116.55440617244103 l -12.284552059914361 15.73901654294772 a40.96564201451905,40.96564201451905 0 0,0 -0.5521437156301242,-0.43865636095580346 l 12.553653268261844 -15.525226267986787" fill="#fcff18" stroke="none" /><path d="M 86.79598089348748 116.32954008644616 l -3.3780049233384473 4.177611859154375 a26.3724629461585,26.3724629461585 0 0,0 -0.35054010438672284,-0.288470641261464 l 3.449415156269859 -4.11884609903573" fill="#ff4506" stroke="none" /><path d="M 86.51685102203217 116.09983520530335 l -8.522878189914673 10.176920432809863 a34.2743799153055,34.2743799153055 0 0,0 -0.44905072302926113,-0.38269076811292774 l 8.696794389520992 -10.028705274473985" fill="#ffae10" stroke="none" /><path d="M 86.24171649860922 115.8653595955263 l -10.77631635361127 12.42670526798715 a37.4484649122807,37.4484649122807 0 0,0 -0.4833663231610959,-0.4265145801509513 l 10.988625029678953 -12.23936754606391" fill="#ffd714" stroke="none" /><path d="M 85.70375840098266 115.38237550388516 l -2.713031843981697 2.9191500639575776 a24.98522005444646,24.98522005444646 0 0,0 -0.3125105703887146,-0.29549825022883097 l 2.7628782487612287 -2.872017176982816" fill="#ff3104" stroke="none" /><path d="M 85.44109423537348 115.13401014063109 l -18.515337581737793 19.246728514449998 a47.70682093163944,47.70682093163944 0 0,0 -0.5869075933185003,-0.5744126077360205 l 18.843895127432088 -18.92516580379141" fill="#aeff20" stroke="none" /><path d="M 85.18274418774928 114.88116024355367 l -14.421576219401905 14.483774148523898 a41.439216575922565,41.439216575922565 0 0,0 -0.5011370257052229,-0.5076491612452425 l 14.66875387016266 -14.23338449329799" fill="#f7ff19" stroke="none" /><path d="M 84.9287848128048 114.62390073753433 l -12.092701323691315 11.733789320224203 a37.84978448275862,37.84978448275862 0 0,0 -0.4496796790555557,-0.47148734569408435 l 12.292887554125828 -11.523894857947617" fill="#ffdc14" stroke="none" /><path d="M 84.67929136418377 114.36230785411682 l -2.1361791646253656 2.002548545448861 a23.92804748941319,23.92804748941319 0 0,0 -0.2791076753419305,-0.3029162571483021 l 2.170333247963025 -1.9654810334992152" fill="#ff2203" stroke="none" /><path d="M 84.43433777217949 114.09645910891817 l -12.062230767809833 10.923707600237067 a37.27343844525106,37.27343844525106 0 0,0 -0.4265876701663568,-0.4792757696567481 l 12.248477287624528 -10.714457660839455" fill="#ffd413" stroke="none" /><path d="M 84.19399662182784 113.82643327865904 l -1.0169596597798058 0.8895939439346939 a22.351141863278887,22.351141863278887 0 0,0 -0.2508197142727529,-0.2917599926006746 l 1.0321218836233375 -0.8719568521724891" fill="#ff0c01" stroke="none" /><path d="M 83.95833913139862 113.55231037782056 l -6.9218278613330675 5.8476962159349215 a30.061305202661828,30.061305202661828 0 0,0 -0.3305369342721839,-0.3981530304089482 l 7.021460795498788 -5.7276819284122125" fill="#ff770b" stroke="none" /><path d="M 83.72743513129214 113.27417163493432 l -16.384338258673644 13.365349588415864 a42.14424531155475,42.14424531155475 0 0,0 -0.45371709404325883,-0.5660818370114058 l 16.611973264771763 -13.081339917826197" fill="#eeff19" stroke="none" /><path d="M 83.28015986056508 112.70617746262583 l -2.4078601198988356 1.8298439299341371 a24.02425514216576,24.02425514216576 0 0,0 -0.24737973812076253,-0.3314055854317952 l 2.439001124714683 -1.7881254649930338" fill="#ff2403" stroke="none" /><path d="M 83.06392112726016 112.41649034213515 l -10.319473204851104 7.56560242466724 a33.79569721718089,33.79569721718089 0 0,0 -0.3399206753820977,-0.47212008780330283 l 10.448173672608808 -7.386848731412799" fill="#ffa80f" stroke="none" /><path d="M 82.6465618267979 111.8261652097733 l -21.929318308558695 14.944574018490737 a47.53743194192377,47.53743194192377 0 0,0 -0.45499410462263956,-0.6801544520000569 l 22.183315518592064 -14.56488265228486" fill="#b0ff20" stroke="none" /><path d="M 82.44556493220864 111.52570212397912 l -2.229327410687463 1.4637078079231036 a23.666897307924984,23.666897307924984 0 0,0 -0.2206601615165049,-0.34246947089312507 l 2.2541924355810137 -1.4251167371085303" fill="#ff1f03" stroke="none" /><path d="M 82.24976979558568 111.22182372390057 l -24.12536014663043 15.2522269133036 a49.54230943738657,49.54230943738657 0 0,0 -0.4495029419206705,-0.724741867228688 l 24.384327728219056 -14.834688714709648" fill="#9aff23" stroke="none" /><path d="M 82.05923443525364 110.91462005526583 l -16.507566476528122 10.042705004873905 a40.32241379310345,40.32241379310345 0 0,0 -0.3556420082139123,-0.5960764622566108 l 16.677989360440268 -9.757066448731184" fill="#fffa17" stroke="none" /><line stroke="#e1ed5e" stroke-width="0.3" x1="26.63291911575756" x2="22.317208475507996" y1="142.92168965132927" y2="145.44649492493687" /><path d="M 25.769776987707644 143.4266507060508 a86.0,86.0 0 0,1 -11.730757126820373,-40.83630448921669" fill="none" id="id129" stroke="none" /><text fill="#e1ed5e" style="font-size:6.75px; font-family:Arial;" text-anchor="middle"><textPath startOffset="21.46611528233685" xlink:href="#id129">September</textPath></text><path d="M 81.69416730710424 110.29060199501025 l -5.627548521357315 3.163519683175678 a27.45578493647913,27.45578493647913 0 0,0 -0.22804459952131692,-0.4139671881627743 l 5.681169530330148 -3.0661819766150815" fill="#ff5407" stroke="none" /><path d="M 81.35079622478065 109.6543875284942 l -15.0017923880416 7.766182357266052 a37.892819872958256,37.892819872958256 0 0,0 -0.2948807156756298,-0.5818276273687709 l 15.133251773503497 -7.506800518194597" fill="#ffdc14" stroke="none" /><path d="M 81.18737489456691 109.33194174019688 l -2.406490973105763 1.1937320514002605 a23.686297640653358,23.686297640653358 0 0,0 -0.17803833073483802,-0.3668116945254234 l 2.42668256045532 -1.1521314009095525" fill="#ff1f03" stroke="none" /><path d="M 81.02952815118164 109.00673069616217 l -27.374727518603663 12.996872223620537 a51.30337265577737,51.30337265577737 0 0,0 -0.3718893123778509,-0.8010164940355022 l 27.59439144782134 -12.523735662306208" fill="#87ff25" stroke="none" /><path d="M 80.87730276802145 108.67885076344099 l -26.623410370383915 12.083055157721725 a50.23706896551724,50.23706896551724 0 0,0 -0.3506043016126709,-0.7905201433041111 l 26.827455756727865 -11.622986677924919" fill="#92ff23" stroke="none" /><path d="M 80.58989483394504 108.01547362559985 l -8.415375563657078 3.4751599902701824 a30.104684664246825,30.104684664246825 0 0,0 -0.1936697236545455,-0.4806723713721411 l 8.47394790156901 -3.329788251055236" fill="#ff780b" stroke="none" /><path d="M 80.32549172779594 107.34259656027581 l -14.31847153748426 5.3437045747197836 a36.28312159709619,36.28312159709619 0 0,0 -0.21333739296375023,-0.5870128806718267 l 14.408333191453236 -5.09644389704184" fill="#ffc812" stroke="none" /><path d="M 80.20201598880116 107.00284435728193 l -17.65916595880933 6.246312282048597 a39.7313256200847,39.7313256200847 0 0,0 -0.2225127710334371,-0.6467262685425008 l 17.764069560785995 -5.941413310416799" fill="#fff316" stroke="none" /><path d="M 80.0844068197444 106.66101706037122 l -15.590658467464314 5.214489023463174 a37.43957199032063,37.43957199032063 0 0,0 -0.19915668142637144,-0.6129412397444025 l 15.678107399906935 -4.945348883740968" fill="#ffd714" stroke="none" /><path d="M 79.97269907076064 106.31721596034903 l -25.309759008578954 7.983462880320096 a47.53901996370236,47.53901996370236 0 0,0 -0.23944550349791904,-0.7825217596553159 l 25.443431284583003 -7.546614148112733" fill="#b0ff20" stroke="none" /><path d="M 79.50377843672027 104.57218783832718 l -19.348010542577196 4.31605104509038 a40.82356699939504,40.82356699939504 0 0,0 -0.14709306855744875,-0.6871698464964043 l 19.419437649859088 -3.982367379177812" fill="#feff18" stroke="none" /><path d="M 79.4281124754447 104.21870165774334 l -43.63799714512568 8.948896433397186 a65.54612825166365,65.54612825166365 0 0,0 -0.2171451683644668,-1.1072185352914758 l 43.78557224646582 -8.196414171037755" fill="#36ff71" stroke="none" /><path d="M 79.35854240842038 103.8639653848113 l -8.126039033059373 1.5211490467696192 a29.26718844525106,29.26718844525106 0 0,0 -0.08843367759907467,-0.4959830279248762 l 8.151019152997636 -1.3810472681115293" fill="#ff6c0a" stroke="none" /><path d="M 79.29508885075956 103.50808413554451 l -8.660030542487812 1.4672903225931933 a29.783454325468846,29.783454325468846 0 0,0 -0.08129215957126193,-0.5062063552496823 l 8.684004456420364 -1.3180047376502972" fill="#ff730a" stroke="none" /><path d="M 79.23777060512086 103.15116336523772 l -12.402203011328815 1.8823300250781099 a33.544233968542045,33.544233968542045 0 0,0 -0.0817296459010328,-0.5716169530757917 l 12.432766708246447 -1.6685676000219176" fill="#ffa50f" stroke="none" /><path d="M 79.1416061653843 102.43462659150553 l -15.029852381389261 1.7543094911462644 a36.13188898971567,36.13188898971567 0 0,0 -0.06678841776191648,-0.6183778000073599 l 15.057823100652229 -1.4953353692541225" fill="#ffc612" stroke="none" /><path d="M 79.10278846688536 102.07522291339032 l -13.971981402367232 1.387504543642538 a35.04070629159105,35.04070629159105 0 0,0 -0.05443891378569449,-0.6007288773036252 l 13.993794912430001 -1.1467942777903464" fill="#ffb811" stroke="none" /><path d="M 79.07016306316243 101.71520430193888 l -15.080698775539311 1.2358662656622577 a36.13125378100423,36.13125378100423 0 0,0 -0.04546247926982748,-0.6202994095288102 l 15.099737813473475 -0.9760937196366869" fill="#ffc612" stroke="none" /><path d="M 79.04373962182676 101.35467743843564 l -14.148169769380885 0.9145814203425258 a35.17769963702359,35.17769963702359 0 0,0 -0.0338604608117429,-0.6046012739646869 l 14.16181658108016 -0.6709084300424013" fill="#ffba11" stroke="none" /><line stroke="#e1ed5e" stroke-width="0.3" x1="15.007084014347285" x2="10.007500721073583" y1="101.09737516637583" y2="101.16192664675087" /><path d="M 14.007167355692545 101.11028546245083 a86.0,86.0 0 0,1 10.666146001902534,-42.60595125391555" fill="none" id="id130" stroke="none" /><text fill="#e1ed5e" style="font-size:6.75px; font-family:Arial;" text-anchor="middle"><textPath startOffset="22.20632615414155" xlink:href="#id130">October</textPath></text><path d="M 79.16333360222342 97.38593545837743 l -10.611694227682944 -1.3312903838632664 a31.69487673926195,31.69487673926195 0 0,0 0.07257221347583387,-0.5407472850570968 l 10.587206015149278 1.5137560109850228" fill="#ff8d0d" stroke="none" /><path d="M 79.21141760316559 97.0276538004421 l -17.821184135443165 -2.5480683543228144 a39.00242362371446,39.00242362371446 0 0,0 0.10074531538905923,-0.6637857534273899 l 17.774682926614805 2.8544532201422963" fill="#ffea16" stroke="none" /><path d="M 79.26566170972629 96.67025291283419 l -5.731341762655172 -0.9204016194095238 a26.804775408348455,26.804775408348455 0 0,0 0.07708049948946033,-0.45493347126370454 l 5.714649401645489 1.0189208789890563" fill="#ff4b06" stroke="none" /><path d="M 79.46518482838121 95.60439243477599 l -14.63379916832874 -3.1324576235376846 a35.96530550514216,35.96530550514216 0 0,0 0.13479387697339076,-0.6042545200485326 l 14.577710904353312 3.3838903131361766" fill="#ffc412" stroke="none" /><path d="M 79.81627453868168 94.20196356495316 l -14.167706413911487 -4.069857080960332 a35.740679824561404,35.740679824561404 0 0,0 0.17494910091350022,-0.5898413964235162 l 14.095551415886279 4.313127864130387" fill="#ffc112" stroke="none" /><path d="M 79.91906864156998 93.8553929516997 l -34.212294578450425 -10.468693042816538 a56.778130671506354,56.778130671506354 0 0,0 0.29401477868660314,-0.9321071952200527 l 34.02702431599562 11.056050404463006" fill="#4eff2b" stroke="none" /><path d="M 80.803312248108 91.48605970444005 l -17.579253579693127 -7.796590607317894 a40.230626134301275,40.230626134301275 0 0,0 0.28620773007515443,-0.6306207949483321 l 17.442443532654618 8.098033411108297" fill="#fff917" stroke="none" /><path d="M 81.43458229118936 90.18545643968196 l -10.849762638931518 -5.735689318122347 a33.2725499092559,33.2725499092559 0 0,0 0.27202987322706706,-0.5040300409120815 l 10.749424666485979 5.921600342366901" fill="#ffa10e" stroke="none" /><line stroke="#e1ed5e" stroke-width="0.3" x1="26.266209847984243" x2="21.928928074336255" y1="57.711370442889674" y2="55.22380399835377" /><path d="M 25.398753493254645 57.213857153982495 a86.0,86.0 0 0,1 29.58750427330803,-30.492523968695096" fill="none" id="id131" stroke="none" /><text fill="#e1ed5e" style="font-size:6.75px; font-family:Arial;" text-anchor="middle"><textPath startOffset="21.46611528233685" xlink:href="#id131">November</textPath></text><path d="M 81.78341655067845 89.55222093294921 l -4.024757400475103 -2.308323964020137 a25.63972323049002,25.63972323049002 0 0,0 0.22287063928497236,-0.38095816711719366 l 3.9844270867198057 2.3772615434912225" fill="#ff3a05" stroke="none" /><path d="M 81.96595687620814 89.24020034530311 l -14.513218045536446 -8.659140795160164 a37.900124773139744,37.900124773139744 0 0,0 0.3390873660882921,-0.557370472829451 l 14.362014881161937 8.907679041196689" fill="#ffdc14" stroke="none" /><path d="M 82.95767976084542 87.72973835380427 l -2.2038127438722235 -1.5867181585055208 a23.71559664246824,23.71559664246824 0 0,0 0.2413766509067433,-0.32923748057226443 l 2.1761734804518467 1.624418082749286" fill="#ff1f03" stroke="none" /><path d="M 83.17141714833178 87.43820079747576 l -10.155433822813272 -7.580586055352685 a33.67273139745917,33.67273139745917 0 0,0 0.3507160245235898,-0.4615011778027478 l 10.023441858065574 7.754272009036459" fill="#ffa70f" stroke="none" /><path d="M 83.6137871275137 86.86637796730984 l -2.4563830223663965 -1.968801847890453 a24.14801497277677,24.14801497277677 0 0,0 0.2627551349829211,-0.32210672697218234 l 2.4221293953070826 2.0107927444707174" fill="#ff2503" stroke="none" /><path d="M 83.84228863543731 86.58626213691792 l -2.421620292181308 -2.0103700994735183 a24.147353297035693,24.147353297035693 0 0,0 0.2682533922178631,-0.3175274049104889 l 2.3866562864763203 2.0517564540131232" fill="#ff2503" stroke="none" /><path d="M 84.07557802195018 86.31012108654704 l -2.6645268529792685 -2.2906357310306116 a24.51378932244404,24.51378932244404 0 0,0 0.27783244348953634,-0.317610511102639 l 2.6247025459118887 2.3361617983361933" fill="#ff2b04" stroke="none" /><path d="M 84.31358615837235 86.03803664274999 l -12.267940480353108 -10.919292145733765 a37.42355943738657,37.42355943738657 0 0,0 0.4324316518221561,-0.47750183055713497 l 12.078165187914907 11.128846763560455" fill="#ffd614" stroke="none" /><path d="M 84.80347519578584 85.50635884689758 l -3.3974031462940215 -3.2402633292285135 a25.69485405323654,25.69485405323654 0 0,0 0.30801490495868633,-0.31743643483445655 l 3.341123977632217 3.2982639596130934" fill="#ff3b05" stroke="none" /><path d="M 85.05521093208273 85.24692304244772 l -20.29857365738189 -20.038183070698413 a49.52298850574712,49.52298850574712 0 0,0 0.6040960344713361,-0.6015018541182287 l 19.950641822743243 20.38462077546675" fill="#9aff22" stroke="none" /><path d="M 85.31137513191541 84.99185889309783 l -3.0841039774885974 -3.1511913537310563 a25.40927480338778,25.40927480338778 0 0,0 0.3152162787590027,-0.30323781042062703 l 3.0294044551171675 3.203812250913997" fill="#ff3705" stroke="none" /><path d="M 85.83668400450813 84.49514656593479 l -2.0729808007618353 -2.2693318074435282 a24.07361615245009,24.07361615245009 0 0,0 0.3083589635162486,-0.27684772206307606 l 2.033610849649615 2.304678538275883" fill="#ff2403" stroke="none" /><path d="M 86.10567301691215 84.25364557470407 l -2.39823536623796 -2.717905237009894 a24.624712643678162,24.624712643678162 0 0,0 0.32024579664427194,-0.2777139990954282 l 2.3510957709469147 2.7587842295250025" fill="#ff2c04" stroke="none" /><path d="M 86.37877921826538 84.01681056812374 l -2.0371058938321647 -2.3903473789641305 a24.14063067150635,24.14063067150635 0 0,0 0.31859018303151027,-0.26681011612571703 l 1.9956581738415438 2.42505865248366" fill="#ff2503" stroke="none" /><path d="M 87.22198572758235 83.33499621200491 l -0.8058729509374113 -1.0510143042338105 a22.324410163339383,22.324410163339383 0 0,0 0.30696472855902557,-0.23119946950443887 l 0.7876620686199958 1.0647303632441036" fill="#ff0b01" stroke="none" /><path d="M 87.80319425747018 82.90503203632743 l -1.7660035174994904 -2.475219675764466 a24.04063823351482,24.04063823351482 0 0,0 0.33893735073705805,-0.2374472742504595 l 1.723135027178772 2.5052517927788682" fill="#ff2403" stroke="none" /><path d="M 88.09926311788651 82.69761687909137 l -1.5293640806925557 -2.223529813121909 a23.698710677555958,23.698710677555958 0 0,0 0.3380963079815896,-0.22828413637857112 l 1.4908630783044265 2.2495258617991456" fill="#ff1f03" stroke="none" /><path d="M 88.39885842347998 82.49532879139004 l -2.1963418556122143 -3.3140050736052435 a24.97574485783424,24.97574485783424 0 0,0 0.3604035355963003,-0.23441648482838523 l 2.138971294231627 3.351320482593164" fill="#ff3104" stroke="none" /><line stroke="#e1ed5e" stroke-width="0.3" x1="56.762969772571076" x2="54.21961505331055" y1="26.818313649435495" y2="22.513508569990535" /><path d="M 56.25429882871897 25.957352633546506 a86.0,86.0 0 0,1 42.265352541879196,-11.944610805530505" fill="none" id="id132" stroke="none" /><text fill="#e1ed5e" style="font-size:6.75px; font-family:Arial;" text-anchor="middle"><textPath startOffset="22.20632615414155" xlink:href="#id132">December</textPath></text><path d="M 89.3179101791058 81.91981866633112 l -1.6483435007324834 -2.789936229063002 a24.240490774349666,24.240490774349666 0 0,0 0.3610716533743256,-0.20915600719700359 l 1.6000751148928376 2.8178963936500527" fill="#ff2703" stroke="none" /><path d="M 89.63071344664047 81.73862282372117 l -2.2634198503175993 -3.986114510601002 a25.583904264972777,25.583904264972777 0 0,0 0.38482566975199306,-0.21415506857507322 l 2.1944700914935606 4.02448497673626" fill="#ff3a05" stroke="none" /><path d="M 90.26544431104013 81.39251694778311 l -1.764032423459907 -3.3719262051495376 a24.80548245614035,24.80548245614035 0 0,0 0.3800430395506701,-0.1946728058095927 l 1.705728896320473 3.4017915362716353" fill="#ff2f04" stroke="none" /><path d="M 90.58718382345135 81.22770947309562 l -1.2094040445632315 -2.411954473892502 a23.698181336963096,23.698181336963096 0 0,0 0.36622575064008583,-0.179705385338117 l 1.1677070269127197 2.4324150193654486" fill="#ff1f03" stroke="none" /><path d="M 90.91171255644093 81.06846463323043 l -1.6747080189401633 -3.4885333773248672 a24.869691470054445,24.869691470054445 0 0,0 0.387519282250385,-0.1819454990828319 l 1.61441052539017 3.5168438590477065" fill="#ff3004" stroke="none" /><path d="M 91.90106846888425 80.62456947434976 l -1.7836553408074072 -4.26711721228218 a25.624901693889896,25.624901693889896 0 0,0 0.4084318065312848,-0.16660958899603256 l 1.709939664687742 4.29718768746179" fill="#ff3a05" stroke="none" /><path d="M 92.23578459929587 80.48803036053334 l -0.9990125459685502 -2.5105823911862166 a23.702045523290987,23.702045523290987 0 0,0 0.38038039834729137,-0.1475816849946947 l 0.9556489826215825 2.527406780071463" fill="#ff1f03" stroke="none" /><path d="M 92.57280143429618 80.3572730644239 l -1.6544949738997499 -4.375646174139451 a25.6779945553539,25.6779945553539 0 0,0 0.41478236151865594,-0.15276784423966489 l 1.5789302866085244 4.403477286185438" fill="#ff3b05" stroke="none" /><path d="M 93.59665428221793 80.00007090966166 l -1.7207700359084641 -5.374577637339975 a26.64332652752571,26.64332652752571 0 0,0 0.4379840969974353,-0.13608379093444023 l 1.6280005662003 5.403401563156941" fill="#ff4806" stroke="none" /><path d="M 95.692805502759 79.44645832069477 l -0.8151554498067954 -3.8898479099211416 a24.97434210526316,24.97434210526316 0 0,0 0.42151170207449984,-0.08455128205993127 l 0.7480773382651592 3.9033031480582836" fill="#ff3104" stroke="none" /><path d="M 96.04723909329186 79.375362276772 l -0.7630077985865495 -3.981207008786899 a25.053663793103446,25.053663793103446 0 0,0 0.4242478609083513,-0.07752858485691981 l 0.6943648165753049 3.993751074994555" fill="#ff3204" stroke="none" /><path d="M 97.47563105711357 79.15227682838746 l -1.3776111013685002 -11.377122571723422 a32.4602238354507,32.4602238354507 0 0,0 0.5552758672962562,-0.0623917135832819 l 1.181568530562526 11.399150238777302" fill="#ff970d" stroke="none" /><path d="M 97.83486435360386 79.11191278185805 l -0.797351369657828 -7.692425636536926 a28.733639594676347,28.733639594676347 0 0,0 0.49240547130329065,-0.04675983272595774 l 0.6648207712643011 7.705011013778064" fill="#ff6509" stroke="none" /><path d="M 98.19473922651362 79.07773832637324 l -1.1537660411794173 -13.371694205198612 a34.42137779794314,34.42137779794314 0 0,0 0.590752488287821,-0.045853762809968945 l 0.9234233635292621 13.389573230197042" fill="#ffb010" stroke="none" /><path d="M 98.55514903715128 79.0497635885617 l -0.26669030810405686 -3.8669905388742367 a24.876175892317,24.876175892317 0 0,0 0.42744134960423,-0.02578442949981809 l 0.2000869096602039 3.8710082377543613" fill="#ff3004" stroke="none" /><path d="M 99.27714615592234 79.0124445844662 l -0.3224171938305715 -9.361157553328328 a30.36670825771325,30.36670825771325 0 0,0 0.522558073387871,-0.013496133339121983 l 0.16123248524782152 9.365320478809808" fill="#ff7b0b" stroke="none" /><path d="M 99.63851952072746 79.00311137660856 l -0.16463936040410312 -9.563211602430652 a30.564628705384152,30.564628705384152 0 0,0 0.5261198396766366,-0.004528479562058057 l 2.3426583858163188e-15 9.564628705384152" fill="#ff7e0b" stroke="none" /></svg>