<?xml version="1.0" encoding="utf-8" ?>
<svg baseProfile="full" height="200mm" version="1.1" viewBox="0,0,200,200" width="200mm" xmlns="http://www.w3.org/2000/svg" xmlns:ev="http://www.w3.org/2001/xml-events" xmlns:xlink="http://www.w3.org/1999/xlink"><defs /><rect fill="#1a1a1a" height="200" width="200" x="0" y="0" /><rect fill="#1a1a1a" height="200" width="180" x="10" y="0" /><text alignment-baseline="middle" fill="#e1ed5e" style="dominant-baseline: central; font-size:9.0px; font-family:Arial;" text-anchor="middle" x="100.0" y="100.0">2023</text><line stroke="#e1ed5e" stroke-width="0.3" x1="100.0" x2="100.0" y1="15.0" y2="10.0" /><path d="M 100.0 14.0 a86.0,86.0 0 0,1 42.46469731375804,11.215312516191453" fill="none" id="id97" stroke="none" /><text fill="#e1ed5e" style="font-size:6.75px; font-family:Arial;" text-anchor="middle"><textPath startOffset="22.20632615414155" xlink:href="#id97">January</textPath></text><path d="M 101.08401301168833 79.027996857942 l 0.21272582752631922 -4.115528757658073 a25.121022838180753,25.121022838180753 0 0,0 0.4316484958086886,0.026038216048090927 l -0.28353637217461974 4.111257272229677" fill="#ff3805" stroke="none" /><path d="M 101.44485096284872 79.0497635885617 l 0.21881669722627312 -3.1728265790279515 a24.18036306851454,24.18036306851454 0 0,0 0.41499238450824594,0.032211396049020465 l -0.27339927109686024 3.168589920790467" fill="#ff2b04" stroke="none" /><path d="M 102.16513564639614 79.11191278185805 l 0.7134001505205292 -6.8825085348865125 a27.91938317392153,27.91938317392153 0 0,0 0.47759866921633054,0.05366377530972825 l -0.8317655232465849 6.869208806106183" fill="#ff5e08" stroke="none" /><path d="M 103.2404852339499 79.25152402106235 l 0.346660202425378 -2.2196277296747007 a23.24653523326176,23.24653523326176 0 0,0 0.39482667505562286,0.06514978438967327 l -0.384816083619876 2.2133316823454026" fill="#ff1d03" stroke="none" /><path d="M 103.59715602781102 79.31037775812273 l 0.3087823904969636 -1.7760116505743144 a22.80265469451493,22.80265469451493 0 0,0 0.3861302505321596,0.07056283520230358 l -0.339307762132024 1.7704333340212723" fill="#ff1702" stroke="none" /><path d="M 104.307194497241 79.44645832069477 l 0.6892199815026899 -3.2888952716436566 a24.36033574077689,24.36033574077689 0 0,0 0.40966808613896266,0.08953757624003372 l -0.7457307917951805 3.2765441973077523" fill="#ff2d04" stroke="none" /><path d="M 104.66035177308747 79.52364482259891 l 0.9482022248971652 -4.166150214049919 a25.27269178215889,25.27269178215889 0 0,0 0.42334925407906593,0.10019309057469539 l -1.0197751659387548 4.149211211334355" fill="#ff3a05" stroke="none" /><path d="M 105.01212808612495 79.60689891045804 l 1.039854799385673 -4.230910239708656 a25.356822174507123,25.356822174507123 0 0,0 0.42296521042496665,0.10782324985058568 l -1.1125288984956647 4.212383993689202" fill="#ff3b05" stroke="none" /><path d="M 105.71112130821622 79.79150937346287 l 1.5527573897857871 -5.494347162899444 a26.709545188366192,26.709545188366192 0 0,0 0.44135587907243984,0.12884388387632847 l -1.647103486581654 5.466804950104412" fill="#ff4e07" stroke="none" /><path d="M 106.40334571778207 80.00007090966166 l 0.5969861181539297 -1.864600250746807 a22.957837204762836,22.957837204762836 0 0,0 0.37532475602653353,0.12373867106046914 l -0.6289936964228806 1.8540478554271016" fill="#ff1902" stroke="none" /><path d="M 106.74666289553966 80.11325718540242 l 1.6572071208046897 -4.884852305834155 a26.15830568026547,26.15830568026547 0 0,0 0.4251571653280236,0.14832898680317197 l -1.741046290195987 4.855602465858775" fill="#ff4606" stroke="none" /><path d="M 107.76421540070413 80.48803036053334 l 1.6615592721007166 -4.175604668111515 a25.494046457154013,25.494046457154013 0 0,0 0.4063461227939272,0.1657587862311652 l -1.7331892644830313 4.146384995696771" fill="#ff3d05" stroke="none" /><path d="M 108.43124777332544 80.76684994638697 l 1.3833036301921977 -3.155557398439564 a24.445442123755612,24.445442123755612 0 0,0 0.3839306635428576,0.17225849742145807 l -1.4374164122018356 3.1312785705015744" fill="#ff2e04" stroke="none" /><path d="M 108.76106565485865 80.91482961587045 l 2.6936390383774365 -5.867843254007172 a27.4565684169432,27.4565684169432 0 0,0 0.42782797280795803,0.2008709697801436 l -2.7942452224849923 5.820607301587026" fill="#ff5808" stroke="none" /><path d="M 110.05341064243156 81.56283822128135 l 0.9445718633399152 -1.7322702588632775 a22.973062658598476,22.973062658598476 0 0,0 0.3455541473376182,0.19230050886984806 l -0.9742500997495696 1.7157543524332495" fill="#ff1902" stroke="none" /><line stroke="#e1ed5e" stroke-width="0.3" x1="143.23703022742887" x2="145.7803849466894" y1="26.81831364943548" y2="22.513508569990506" /><path d="M 143.74570117128098 25.957352633546492 a86.0,86.0 0 0,1 28.547481713284135,27.462654790039103" fill="none" id="id98" stroke="none" /><text fill="#e1ed5e" style="font-size:6.75px; font-family:Arial;" text-anchor="middle"><textPath startOffset="19.985693538727396" xlink:href="#id98">February</textPath></text><path d="M 110.68208982089419 81.91981866633111 l 2.369495101324736 -4.010535561814359 a25.65820808120242,25.65820808120242 0 0,0 0.37832164451530637,0.22793455775069937 l -2.4381788120576795 3.969154394605045" fill="#ff3f05" stroke="none" /><path d="M 110.99172775467656 82.1063720568725 l 1.663425630200765 -2.707919992397113 a24.178020691001365,24.178020691001365 0 0,0 0.3527467844414265,0.22089000405616907 l -1.7097915670144548 2.6788856470179994" fill="#ff2a04" stroke="none" /><path d="M 111.2981086023043 82.29822771554956 l 1.061832966899034 -1.6636700925618222 a22.973648252976773,22.973648252976773 0 0,0 0.3315129980326346,0.2156252755543953 l -1.0903129907159488 1.6451458928478988" fill="#ff1902" stroke="none" /><path d="M 111.60114157652 82.49532879139004 l 2.658224264082567 -4.010927841419595 a25.81182900644154,25.81182900644154 0 0,0 0.3682429904338543,0.24863931094222746 l -2.7268719489229634 3.9645766181786977" fill="#ff4106" stroke="none" /><path d="M 112.19680574252982 82.90503203632743 l 1.0048082810113281 -1.408333110826338 a22.73004099160648,22.73004099160648 0 0,0 0.31654794987931845,0.22998554774023292 l -1.0289015472444354 1.39082832826943" fill="#ff1602" stroke="none" /><path d="M 112.48926042617603 83.11751280151076 l 1.0603618111847761 -1.433355066051334 a22.782939683779034,22.782939683779034 0 0,0 0.3132695934467603,0.23594816302432553 l -1.0848775583899193 1.414890313521161" fill="#ff1702" stroke="none" /><path d="M 112.77801427241765 83.33499621200491 l 1.2997389009700995 -1.6951110905257352 a23.136053093890297,23.136053093890297 0 0,0 0.3139534254219845,0.24504562838857313 l -1.3287248815515142 1.6724870729139356" fill="#ff1c02" stroke="none" /><path d="M 113.06298171725822 83.55741782278167 l 1.9801558410255056 -2.4924535488513646 a24.18329104040601,24.18329104040601 0 0,0 0.32370671061828193,0.26174831436054025 l -2.022765950208279 2.4579991372266967" fill="#ff2b04" stroke="none" /><path d="M 113.6212207817346 84.01681056812373 l 0.2409412560315376 -0.2827213359811539 a21.371462033964473,21.371462033964473 0 0,0 0.2779370863552827,0.2410243024497701 l -0.24577214103358444 0.2785320401117102" fill="#ff0300" stroke="none" /><path d="M 113.89432698308785 84.25364557470405 l 0.5091086599865429 -0.5769696805677157 a21.769471013078274,21.769471013078274 0 0,0 0.2788451670650308,0.25034994420126194 l -0.5189648146475637 0.5681207275971586" fill="#ff0801" stroke="none" /><path d="M 114.42810811169701 84.74124197986012 l 1.8125157425391094 -1.9168652541962057 a23.638102674214327,23.638102674214327 0 0,0 0.2932438969448992,0.2821003965241605 l -1.8452428830964294 1.8853817709097433" fill="#ff2303" stroke="none" /><path d="M 114.68862486808459 84.99185889309783 l 2.208966674481475 -2.257017511768312 a24.15811048213937,24.15811048213937 0 0,0 0.29468776386317647,0.2934222809536824 l -2.2474902385119715 2.218659380164511" fill="#ff2a04" stroke="none" /><path d="M 114.94478906791727 85.2469230424477 l 1.399975685995653 -1.382016764527966 a22.96720671481554,22.96720671481554 0 0,0 0.27531746157318987,0.283738845239285 l -1.4235574112719518 1.3577137237385668" fill="#ff1902" stroke="none" /><path d="M 115.19652480421416 85.50635884689758 l 2.0320794719744266 -1.938089862046338 a23.808120242045675,23.808120242045675 0 0,0 0.2802926345852468,0.2989966397367663 l -2.0651394285301365 1.902823805431517" fill="#ff2503" stroke="none" /><path d="M 115.68641384162765 86.03803664274999 l 3.185311775877209 -2.835141718510209 a25.264298262736677,25.264298262736677 0 0,0 0.2863385022632078,0.3273344067018829 l -3.2336421417182653 2.7798917556053784" fill="#ff3a05" stroke="none" /><path d="M 116.15771136456269 86.58626213691792 l 1.524111197192699 -1.2652799404604518 a22.980870583642396,22.980870583642396 0 0,0 0.2500554086551993,0.30653836412694085 l -1.5456650979243072 1.2388574067254101" fill="#ff1a02" stroke="none" /><path d="M 116.60985879189232 87.15038557335679 l 3.9939436257351284 -3.089769532387395 a26.049580324028888,26.049580324028888 0 0,0 0.2713176173299834,0.3570221809126377 l -4.046537183289225 3.0205625755937238" fill="#ff4506" stroke="none" /><path d="M 116.82858285166822 87.43820079747576 l 1.5823870325932137 -1.1811825356490835 a22.974624243607263,22.974624243607263 0 0,0 0.23383505544331995,0.31895075283556756 l -1.60248470055016 1.153769339142022" fill="#ff1902" stroke="none" /><path d="M 117.04232023915458 87.72973835380427 l 3.831959757444479 -2.758964048422845 a25.721842670310366,25.721842670310366 0 0,0 0.2556106647944651,0.36154315804335835 l -3.878883042042827 2.6925943900476934" fill="#ff4006" stroke="none" /><path d="M 117.2510076193507 88.02491185347247 l 2.8970558049023443 -2.0110418704006467 a24.526644544212374,24.526644544212374 0 0,0 0.23776308421147999,0.34888798765672485 l -2.931243354782558 1.9608758594735156" fill="#ff2f04" stroke="none" /><path d="M 117.45458315368197 88.32363383020206 l 0.49208286351112573 -0.3291822926763259 a21.592035916455202,21.592035916455202 0 0,0 0.20399678929986872,0.31070110551895386 l -0.4976762881689194 0.32066312317969803" fill="#ff0600" stroke="none" /><line stroke="#e1ed5e" stroke-width="0.3" x1="172.23445277983987" x2="176.4835382374775" y1="55.19839476539836" y2="52.563006222186495" /><path d="M 173.08426987136738 54.67131705675599 a86.0,86.0 0 0,1 12.851231095245387,41.99856678651699" fill="none" id="id99" stroke="none" /><text fill="#e1ed5e" style="font-size:6.75px; font-family:Arial;" text-anchor="middle"><textPath startOffset="22.20632615414155" xlink:href="#id99">March</textPath></text><path d="M 117.84615892207809 88.93136811851018 l 1.6775717834506896 -1.040471768007087 a22.974038649228966,22.974038649228966 0 0,0 0.2055456624643725,0.3378630244984741 l -1.6952332442012858 1.0114409703015315" fill="#ff1902" stroke="none" /><path d="M 118.03404312379186 89.2402003453031 l 1.7022736670487562 -1.0156415557611054 a22.982236970525083,22.982236970525083 0 0,0 0.19977071514284672,0.34147290880786996 l -1.7195040566619277 0.9861892345993402" fill="#ff1a02" stroke="none" /><path d="M 118.21658344932153 89.55222093294921 l 2.7527304233533196 -1.578776798314276 a24.173335935975015,24.173335935975015 0 0,0 0.20391055931090238,0.36273413206245525 l -2.7794986239566573 1.5311591563170268" fill="#ff2a04" stroke="none" /><path d="M 118.56541770881063 90.18545643968196 l 3.7514627364159248 -1.9831977399566292 a25.243412063244193,25.243412063244193 0 0,0 0.1997722361792052,0.385896374072555 l -3.7850444057552464 1.9183286436237292" fill="#ff3905" stroke="none" /><path d="M 118.73160827565052 90.50648371742162 l 1.748791849275757 -0.8863191911567565 a22.960569978528206,22.960569978528206 0 0,0 0.17563741256824464,0.354074306197392 l -1.7637892747974098 0.8560852964604146" fill="#ff1902" stroke="none" /><path d="M 118.89224826269711 90.83032412892265 l 2.110611638171055 -1.0244214633769144 a23.346086277571736,23.346086277571736 0 0,0 0.17236282777147205,0.3630400732881598 l -2.1279326597842836 0.9879389744482143" fill="#ff1f03" stroke="none" /><path d="M 119.47837535516314 92.15188598940014 l 0.42167569413545886 -0.16989912468221846 a21.45461643568222,21.45461643568222 0 0,0 0.1350685084576796,0.3437346213983115 l -0.4245377524748389 0.16261549838812256" fill="#ff0400" stroke="none" /><path d="M 119.85752413597 93.16781622104841 l 1.8478167937796453 -0.635760220583961 a22.954128440366972,22.954128440366972 0 0,0 0.12533249933727886,0.37472822039684156 l -1.8584865868886942 0.6038588972648055" fill="#ff1902" stroke="none" /><path d="M 119.97218684219823 93.5106431181261 l 1.8668405871294291 -0.6065732764853548 a22.962912356041382,22.962912356041382 0 0,0 0.11890908549670481,0.37697429586238046 l -1.8770051563943402 0.574348814196555" fill="#ff1902" stroke="none" /><path d="M 120.08093135843002 93.85539295169968 l 1.9542804283461337 -0.5979944396020211 a23.043724380245948,23.043724380245948 0 0,0 0.11279804642250364,0.3802989376240847 l -1.9642843718803396 0.5642661152314066" fill="#ff1a02" stroke="none" /><path d="M 120.18372546131832 94.20196356495316 l 2.3535766423341826 -0.6760953596540596 a23.44876049189928,23.44876049189928 0 0,0 0.1081023918779355,0.3889018203887989 l -2.364865804778481 0.6354822358463089" fill="#ff2003" stroke="none" /><path d="M 120.37134235888165 94.90015583598534 l 5.970731130943144 -1.4947369582527898 a27.154987312121804,27.154987312121804 0 0,0 0.10961201111435918,0.4544125512181452 l -5.995575942318323 1.3917391753752384" fill="#ff5407" stroke="none" /><path d="M 120.53481517161879 95.60439243477599 l 2.133209655410351 -0.4566270707169688 a23.18153425727113,23.18153425727113 0 0,0 0.08016473045398329,0.39091169561816813 l -2.140753681779331 0.4198397189353889" fill="#ff1c02" stroke="none" /><path d="M 120.83666639777658 97.38593545837742 l 4.047522883547909 -0.5077820918809531 a25.079250439195782,25.079250439195782 0 0,0 0.05005059680196586,0.4288029480148778 l -4.0556638333534645 0.4380354055412227" fill="#ff3705" stroke="none" /><line stroke="#e1ed5e" stroke-width="0.3" x1="184.98032266829074" x2="189.97916517819016" y1="98.17113171792111" y2="98.06355123074" /><path d="M 185.9800911702706 98.14961562048488 a86.0,86.0 0 0,1 -9.607161424134198,41.387399972396054" fill="none" id="id100" stroke="none" /><text fill="#e1ed5e" style="font-size:6.75px; font-family:Arial;" text-anchor="middle"><textPath startOffset="21.466115282336823" xlink:href="#id100">April</textPath></text><path d="M 120.64145759157962 103.86396538481128 l 1.4533805643662623 0.2720647108738875 a22.47862580519227,22.47862580519227 0 0,0 -0.07446854780391392,0.3797135208937248 l -1.4484820835866843 -0.29704195883555723" fill="#ff1202" stroke="none" /><path d="M 120.5718875245553 104.21870165774334 l 1.0455841627791398 0.21441919880037305 a22.067343353503805,22.067343353503805 0 0,0 -0.07951174988764939,0.3714524246505737 l -1.0417383741670474 -0.2323854428671158" fill="#ff0d01" stroke="none" /><path d="M 120.49622156327973 104.57218783832717 l 9.934408073720434 2.2161147914706443 a31.17858676556705,31.17858676556705 0 0,0 -0.1213580970144098,0.5228075057015901 l -9.894789410775472 -2.386790954520799" fill="#ff8a0c" stroke="none" /><line stroke="#e1ed5e" stroke-width="0.3" x1="174.80103733775053" x2="179.2010983576182" y1="140.37084112569926" y2="142.7455964860345" /><path d="M 175.68104954172406 140.8457921977663 a86.0,86.0 0 0,1 -30.038265399797805,32.042727171017184" fill="none" id="id101" stroke="none" /><text fill="#e1ed5e" style="font-size:6.75px; font-family:Arial;" text-anchor="middle"><textPath startOffset="22.206326154141568" xlink:href="#id101">May</textPath></text><path d="M 118.30583269289576 110.29060199501023 l 0.3886180092329141 0.21846114996239072 a21.445813000195198,21.445813000195198 0 0,0 -0.18366603137973356,0.3202372069664278 l -0.38479998170079865 -0.22511820278713252" fill="#ff0400" stroke="none" /><path d="M 113.20401910651253 116.32954008644616 l 0.69908900877179 0.8645702418820583 a22.11184852625415,22.11184852625415 0 0,0 -0.298028240358339,0.23677165867668065 l -0.6841032756960999 -0.876475814563865" fill="#ff0d01" stroke="none" /><path d="M 112.92097659922987 116.55440617244103 l 2.73365074756301 3.5023641178525455 a25.44290454811634,25.44290454811634 0 0,0 -0.34756373231127646,0.2664970490584302 l -2.67295828675824 -3.548900508738347" fill="#ff3c05" stroke="none" /><path d="M 112.63410532772338 116.77436683061366 l 2.93519262858554 3.8970703974081227 a25.87878196369315,25.87878196369315 0 0,0 -0.358131570757629,0.2649371743298443 l -2.8676760874093463 -3.947017520477736" fill="#ff4206" stroke="none" /><path d="M 112.34349029814194 116.9893568818739 l 8.30196472484458 11.426674151665518 a35.12414600819832,35.12414600819832 0 0,0 -0.4921941096599264,0.3511674286782237 l -8.10404328733577 -11.56788584218796" fill="#ffbd11" stroke="none" /><line stroke="#e1ed5e" stroke-width="0.3" x1="143.8653032363475" x2="146.44561519142675" y1="172.8068346515853" y2="177.08958963109032" /><path d="M 144.38136562736335 173.6633856474863 a86.0,86.0 0 0,1 -40.68145358897372,12.25698825130547" fill="none" id="id102" stroke="none" /><text fill="#e1ed5e" style="font-size:6.75px; font-family:Arial;" text-anchor="middle"><textPath startOffset="21.466115282336833" xlink:href="#id102">June</textPath></text><path d="M 109.89434966115114 118.52300852407294 l 2.235906159450005 4.1857939398617505 a25.745539722818663,25.745539722818663 0 0,0 -0.3926919329802049,0.20543785956831423 l -2.1635233239433047 -4.223661218374781" fill="#ff4006" stroke="none" /><path d="M 108.2653958097858 119.30500536409082 l 4.444927240112865 10.381758622107176 a32.29328518446223,32.29328518446223 0 0,0 -0.5128920131240928,0.21438890308264472 l -4.265563767491312 -10.456732568209793" fill="#ff980e" stroke="none" /><path d="M 107.93186726928326 119.44442032107085 l 2.479631041837358 6.078642844337105 a27.5649424165528,27.5649424165528 0 0,0 -0.44088015227807964,0.17543531132082296 l -2.374629813517412 -6.120425000063997" fill="#ff5908" stroke="none" /><path d="M 107.59598834532513 119.57807347666477 l 1.5779840934658849 4.067132165348394 a25.362521959789184,25.362521959789184 0 0,0 -0.4083725691060095,0.1544115625841928 l -1.5077413035996006 -4.093691978039217" fill="#ff3b05" stroke="none" /><path d="M 107.2578585660854 119.70592522655815 l 0.5425229545257667 1.4730125529770983 a22.56974429045481,22.56974429045481 0 0,0 -0.36571630969669033,0.13113285709417674 l -0.5170870841993415 -1.4821329511112353" fill="#ff1402" stroke="none" /><path d="M 106.2309692047433 120.05430185196036 l 1.336979970991838 4.303054473112276 a25.505973062658597,25.505973062658597 0 0,0 -0.4203931227732909,0.12666099935422181 l -1.2627118737783014 -4.325430841572223" fill="#ff3d05" stroke="none" /><path d="M 104.83641907484287 120.43548508189849 l 1.2705967872594073 5.368695576073788 a26.517001756783134,26.517001756783134 0 0,0 -0.44508137227524447,0.1012990712693059 l -1.1779952655913009 -5.389771380920778" fill="#ff4b07" stroke="none" /><path d="M 104.13013068566511 120.58985236759428 l 0.8075681388092363 4.025952208380875 a25.10614874097209,25.10614874097209 0 0,0 -0.42445218459166295,0.08134727138170574 l -0.738148339645869 -4.03925667811105" fill="#ff3705" stroke="none" /><path d="M 103.7750983002368 120.6578951692458 l 0.770852313469063 4.218217650548488 a25.288073394495413,25.288073394495413 0 0,0 -0.4288749213780872,0.07456540243106097 l -0.6981284206189259 -4.230861631500555" fill="#ff3a05" stroke="none" /><path d="M 103.41894727170886 120.7198165907248 l 2.764798672523785 16.755485490812916 a37.9820612922116,37.9820612922116 0 0,0 -0.6459919104667202,0.10089065092026371 l -2.4759708984485473 -16.800594449080286" fill="#ffe015" stroke="none" /><path d="M 102.34483914955558 120.86867818915974 l 0.245059154123126 2.1809856875139904 a23.194710130782745,23.194710130782745 0 0,0 -0.3971457949624416,0.04116578547904245 l -0.20748076255508172 -2.184880841448791" fill="#ff1d02" stroke="none" /><path d="M 101.62511606390274 120.93702456842531 l 0.6542624252398087 8.429126248710373 a29.45447979699395,29.45447979699395 0 0,0 -0.5058277274609844,0.034884841617279644 l -0.5090719369998941 -8.439139434843938" fill="#ff730a" stroke="none" /><path d="M 100.90346689309514 120.98055641714683 l 0.17379369744851852 4.035884991614415 a25.03962521959789,25.03962521959789 0 0,0 -0.43077652350165874,0.01483681447345344 l -0.10429682227220749 -4.038278604513962" fill="#ff3705" stroke="none" /><line stroke="#e1ed5e" stroke-width="0.3" x1="102.19456741930631" x2="102.32365962044197" y1="184.97166512339345" y2="189.96999836594603" /><path d="M 102.22038585953345 185.97133177190398 a86.0,86.0 0 0,1 -42.740103519485714,-10.115201625700543" fill="none" id="id103" stroke="none" /><text fill="#e1ed5e" style="font-size:6.75px; font-family:Arial;" text-anchor="middle"><textPath startOffset="22.20632615414155" xlink:href="#id103">July</textPath></text><path d="M 100.54218724476979 120.99299961872073 l 0.21790501486720462 8.437085044239328 a29.43989849697443,29.43989849697443 0 0,0 -0.5067031448702294,0.008723354156983654 l -0.07264218010430733 -8.439585875675473" fill="#ff730a" stroke="none" /><path d="M 100.18074693466247 120.99922214144158 l 0.08766653908858928 10.185119499428943 a31.18549677923092,31.18549677923092 0 0,0 -0.5368269475020825,0.0 l 0.08766653908858227 -10.185119499428943" fill="#ff8a0c" stroke="none" /><path d="M 98.73552117531835 120.96189622390904 l -0.37683779717330435 6.247028137922387 a27.258383759515908,27.258383759515908 0 0,0 -0.4681137268885841,-0.03228386332902702 l 0.4843142848408185 -6.239615930077075" fill="#ff5507" stroke="none" /><path d="M 98.37488393609728 120.93702456842531 l -0.33897483335833534 4.367149258901295 a25.380284989264105,25.380284989264105 0 0,0 -0.43527875505821534,-0.03755768254390463 l 0.4140979061580924 -4.360667324078727" fill="#ff3b05" stroke="none" /><path d="M 98.01472825383883 120.90594882070398 l -2.0301134994416365 21.37815591322149 a42.47433144641812,42.47433144641812 0 0,0 -0.727256431861998,-0.07538310273463547 l 2.3978025279092274 -21.340043442031092" fill="#e8ff1a" stroke="none" /><path d="M 96.58105272829116 120.7198165907248 l -0.44540096202170404 2.699259599230225 a23.73576029670115,23.73576029670115 0 0,0 -0.4025483544077617,-0.06998819130744759 l 0.4917982879015157 -2.6911928294017713" fill="#ff2403" stroke="none" /><path d="M 96.22490169976321 120.6578951692458 l -0.9136128790294495 4.999424539244283 a26.082217450712474,26.082217450712474 0 0,0 -0.4409538989898196,-0.08450986422052152 l 0.9995343925909642 -4.982957476675294" fill="#ff4506" stroke="none" /><path d="M 95.86986931433489 120.58985236759428 l -1.7367947565870119 8.658405835693234 a29.8308803435487,29.8308803435487 0 0,0 -0.5025914370774189,-0.1053229222445866 l 1.8855776550938177 -8.627226932722106" fill="#ff780b" stroke="none" /><path d="M 94.11515582081647 120.15858648285463 l -0.8051148186584386 2.7579280277231923 a23.873043138785867,23.873043138785867 0 0,0 -0.39347893650482724,-0.11855197581197022 l 0.8524687296035117 -2.7436606828054964" fill="#ff2603" stroke="none" /><path d="M 93.76903079525671 120.05430185196036 l -1.1593403285960275 3.731323351930049 a24.907280890103454,24.907280890103454 0 0,0 -0.40833548391842583,-0.13073612714110447 l 1.223397157605394 -3.7108143781292378" fill="#ff3505" stroke="none" /><path d="M 93.08242187328487 119.8279376855182 l -6.450632118923884 18.489524706959934 a40.5824712082764,40.5824712082764 0 0,0 -0.6575914825468459,-0.23578890965699614 l 6.767943162100456 -18.37574825626298" fill="#feff18" stroke="none" /><path d="M 92.06813273071674 119.44442032107085 l -2.129231885985636 5.219663711779718 a26.637243802459494,26.637243802459494 0 0,0 -0.4230610023068849,-0.17683953327554172 l 2.218764347789983 -5.1822391354842035" fill="#ff4d07" stroke="none" /><path d="M 91.7346041902142 119.30500536409082 l -1.3583589471841995 3.172640169355825 a24.451200468475502,24.451200468475502 0 0,0 -0.3854898549957686,-0.16898742392757576 l 1.4127694768377113 -3.148788192133797" fill="#ff2e04" stroke="none" /><path d="M 90.7491055286396 118.85261126421891 l -0.683952061433503 1.393841684983661 a22.552605894983408,22.552605894983408 0 0,0 -0.34703745078736326,-0.17401178220408395 l 0.7078434199036266 -1.381862061870275" fill="#ff1302" stroke="none" /><path d="M 90.10565033884886 118.52300852407294 l -2.419357627331529 4.5292296602169015 a26.13490142494632,26.13490142494632 0 0,0 -0.3949819774447487,-0.2153756669963799 l 2.4969624166449185 -4.486913341460756" fill="#ff4606" stroke="none" /><line stroke="#e1ed5e" stroke-width="0.3" x1="58.666819895761336" x2="56.23545636021788" y1="174.27360380694188" y2="178.64263932499728" /><path d="M 58.180547188652646 175.14741091055294 a86.0,86.0 0 0,1 -31.652253787137756,-30.449443065178592" fill="none" id="id104" stroke="none" /><text fill="#e1ed5e" style="font-size:6.75px; font-family:Arial;" text-anchor="middle"><textPath startOffset="22.20632615414155" xlink:href="#id104">August</textPath></text><path d="M 89.7882731507175 118.34994917583269 l -3.8161634142375953 6.857449844817609 a28.847784501268787,28.847784501268787 0 0,0 -0.4318255537888157,-0.24520181939595842 l 3.9336377349476184 -6.790744859627017" fill="#ff6b09" stroke="none" /><path d="M 89.1626897886671 117.98757091392108 l -4.4586460889535555 7.400379904347589 a29.639742338473553,29.639742338473553 0 0,0 -0.43474557851889745,-0.2670562424130673 l 4.5853708674047615 -7.322535195106143" fill="#ff750a" stroke="none" /><path d="M 88.54995079064634 117.60387380957326 l -6.43283673360805 9.890162393670257 a32.79816513761468,32.79816513761468 0 0,0 -0.47061509480324887,-0.31189802297882774 l 6.602126527151261 -9.77796634960011" fill="#ff9f0e" stroke="none" /><path d="M 88.24862548938628 117.40417183066458 l -4.9868873588974525 7.385744060495235 a29.91169236775327,29.91169236775327 0 0,0 -0.42423769719110854,-0.2917945565339016 l 5.113281940711453 -7.298808714596236" fill="#ff790b" stroke="none" /><path d="M 87.95078237400918 117.19931262002967 l -2.402877170510746 3.429918599362027 a25.187858676556708,25.187858676556708 0 0,0 -0.3529570704054762,-0.25182549814285476 l 2.4615615687651067 -3.388048839374953" fill="#ff3905" stroke="none" /><path d="M 87.07902340077011 116.55440617244103 l -1.8444966427594778 2.3631763724240615 a23.997794261175095,23.997794261175095 0 0,0 -0.3234474217588569,-0.25696619371526574 l 1.8849015572356926 -2.331076264703665" fill="#ff2803" stroke="none" /><path d="M 86.79598089348748 116.32954008644616 l -4.497746727520251 5.5624075437378515 a28.15332812804997,28.15332812804997 0 0,0 -0.3742111838772279,-0.30795032816326234 l 4.592828039942169 -5.484162096717409" fill="#ff6109" stroke="none" /><path d="M 86.51685102203217 116.09983520530335 l -7.1336000878525425 8.518023944008473 a32.11057973843451,32.11057973843451 0 0,0 -0.42070138348421915,-0.35853084592685575 l 7.279166947913819 -8.393968707858665" fill="#ff960d" stroke="none" /><path d="M 86.24171649860922 115.8653595955263 l -7.103209572960866 8.191063525185896 a31.842006636736286,31.842006636736286 0 0,0 -0.4110009236993598,-0.3626605289066911 l 7.243152849566814 -8.067579854506915" fill="#ff920d" stroke="none" /><path d="M 84.9287848128048 114.62390073753433 l -6.138498114758954 5.956307171836143 a29.55328908842475,29.55328908842475 0 0,0 -0.3511120006078913,-0.36813952891009366 l 6.240116666745803 -5.84976052634355" fill="#ff740a" stroke="none" /><path d="M 84.4343377721795 114.09645910891817 l -10.227648394471277 9.262286773470866 a34.798360335740774,34.798360335740774 0 0,0 -0.39826085492589225,-0.4474502924435668 l 10.385568099045503 -9.084862311286432" fill="#ffb911" stroke="none" /><path d="M 83.95833913139862 113.55231037782056 l -2.2395371132044266 1.8920049681514577 a23.931758735116144,23.931758735116144 0 0,0 -0.2631399438819581,-0.3169690137924748 l 2.271773056979921 -1.8531746972452219" fill="#ff2703" stroke="none" /><path d="M 83.50135304334701 112.99209946851258 l -2.3045166771917525 1.8147251696205309 a23.9332617606871,23.9332617606871 0 0,0 -0.25208925443807023,-0.32585934333467814 l 2.335412748847891 -1.7747878321726" fill="#ff2703" stroke="none" /><path d="M 83.28015986056508 112.70617746262583 l -2.3355059968897147 1.7748586956591867 a23.933378879562756,23.933378879562756 0 0,0 -0.2464439777439645,-0.3301519814873017 l 2.3657112413287646 -1.7343938346625796" fill="#ff2703" stroke="none" /><path d="M 82.85270091963577 112.12312394758628 l -6.418996408293288 4.538224283144523 a28.86123365215694,28.86123365215694 0 0,0 -0.28330612015415835,-0.40812359605096715 l 6.49616343560958 -4.427059424906545" fill="#ff6b09" stroke="none" /><path d="M 82.6465618267979 111.8261652097733 l -6.427029059350928 4.379945155840718 a28.77757173531134,28.77757173531134 0 0,0 -0.27543821679131036,-0.4117427621549966 l 6.501470381552969 -4.268665479479898" fill="#ff6a09" stroke="none" /><path d="M 82.24976979558568 111.22182372390057 l -2.4792047453648878 1.567371144348521 a23.933105602186217,23.933105602186217 0 0,0 -0.2171477571322578,-0.350111325848293 l 2.5058171421651014 -1.5244634871349638" fill="#ff2703" stroke="none" /><line stroke="#e1ed5e" stroke-width="0.3" x1="26.63291911575756" x2="22.317208475507996" y1="142.92168965132927" y2="145.44649492493687" /><path d="M 25.769776987707644 143.4266507060508 a86.0,86.0 0 0,1 -11.730757126820373,-40.83630448921669" fill="none" id="id105" stroke="none" /><text fill="#e1ed5e" style="font-size:6.75px; font-family:Arial;" text-anchor="middle"><textPath startOffset="21.46611528233685" xlink:href="#id105">September</textPath></text><path d="M 81.35079622478065 109.6543875284942 l -7.154867925057155 3.703958007873849 a29.056763615069297,29.056763615069297 0 0,0 -0.22611880769907763,-0.44615385948713143 l 7.217565402542499 -3.580249936684033" fill="#ff6e0a" stroke="none" /><path d="M 81.02952815118164 109.00673069616217 l -6.282986843523622 2.9830133334649798 a27.95516299043529,27.95516299043529 0 0,0 -0.2026421617868623,-0.4364731885958736 l 6.3334036221503105 -2.8744200775902793" fill="#ff5f08" stroke="none" /><path d="M 80.87730276802145 108.67885076344099 l -3.1992386405771547 1.4519769037482255 a24.51331251219988,24.51331251219988 0 0,0 -0.1710783091157695,-0.3857364237014697 l 3.223758034424204 -1.39669214355406" fill="#ff2f04" stroke="none" /><path d="M 80.73074385275274 108.34839909993369 l -9.0836122104167 3.935472102405093 a30.899492484872148,30.899492484872148 0 0,0 -0.2072458665785685,-0.48986800915242956 l 9.150009058187575 -3.7785295675865047" fill="#ff860c" stroke="none" /><path d="M 80.58989483394504 108.01547362559985 l -9.111597679160653 3.762667448711866 a30.857934803825884,30.857934803825884 0 0,0 -0.19851553911489733,-0.4926992879423008 l 9.175015832532939 -3.6052687929267595" fill="#ff860c" stroke="none" /><path d="M 80.45479744820244 107.68017299344265 l -5.650400822481128 2.220291945501204 a27.07097403864923,27.07097403864923 0 0,0 -0.16668722857966434,-0.4351677551580662 l 5.687782330654302 -2.12270062350998" fill="#ff5307" stroke="none" /><path d="M 80.32549172779594 107.34259656027581 l -4.987910202551116 1.8615058526244723 a26.323950810072223,26.323950810072223 0 0,0 -0.15477948950170425,-0.42588667996307833 l 5.019213953058045 -1.775371375655277" fill="#ff4806" stroke="none" /><path d="M 80.20201598880116 107.00284435728193 l -0.4063092579527053 0.14371768826341305 a21.43097794261175,21.43097794261175 0 0,0 -0.1200228337097413,-0.34884253620361316 l 0.40872292260567505 -0.136702448970503" fill="#ff0300" stroke="none" /><path d="M 80.0844068197444 106.66101706037122 l -4.287842039693136 1.4341219325010515 a25.521315635369902,25.521315635369902 0 0,0 -0.1357585105109987,-0.4178217328311361 l 4.311892801220384 -1.360101299692112" fill="#ff3d05" stroke="none" /><path d="M 79.97269907076064 106.31721596034903 l -4.537179692128479 1.4311635935044655 a25.75754440757369,25.75754440757369 0 0,0 -0.1297361240145591,-0.42398515976147944 l 4.561142588649168 -1.3528514611909384" fill="#ff4106" stroke="none" /><path d="M 79.86692584326677 105.97154293290107 l -5.461248182275068 1.619826050100594 a26.696408354479797,26.696408354479797 0 0,0 -0.12688086297487666,-0.4416889292209836 l 5.488321682136049 -1.5255796453750146" fill="#ff4d07" stroke="none" /><path d="M 79.76711848015287 105.62410040840567 l -4.94454289156053 1.3744263598107136 a26.13201249268007,26.13201249268007 0 0,0 -0.11673782671424515,-0.4344248807411761 l 4.967468794616547 -1.2891105458939986" fill="#ff4606" stroke="none" /><path d="M 79.67330655649465 105.27499134158121 l -5.89933800009244 1.5309404334767278 a27.094749170407965,27.094749170407965 0 0,0 -0.1132672580559574,-0.45244639202727077 l 5.924816572443459 -1.4291662020520652" fill="#ff5307" stroke="none" /><path d="M 79.58551787078972 104.9243191809786 l -4.782810142075963 1.153694890349626 a25.919988288112435,25.919988288112435 0 0,0 -0.10088977017890233,-0.43463048940010773 l 4.80196047818542 -1.071195743600944" fill="#ff4306" stroke="none" /><path d="M 79.50377843672027 104.57218783832718 l -2.115788165352885 0.4719787443864393 a23.167792309193832,23.167792309193832 0 0,0 -0.08347682265274571,-0.3899759245684049 l 2.123599026730071 -0.4354890004018706" fill="#ff1c02" stroke="none" /><path d="M 79.4281124754447 104.21870165774334 l -3.8630778145810742 0.7922060025319432 a24.94347062268202,24.94347062268202 0 0,0 -0.08263423443045158,-0.42135018108000855 l 3.876141981987192 -0.7255920943839798" fill="#ff3505" stroke="none" /><path d="M 79.35854240842038 103.8639653848113 l -5.795774706018995 1.0849366011515502 a26.896447394105017,26.896447394105017 0 0,0 -0.08127025121870572,-0.4558067285453568 l 5.8135913995768895 -0.9850111218729798" fill="#ff5007" stroke="none" /><path d="M 79.29508885075956 103.50808413554451 l -4.748101502515644 0.804482542082352 a25.815772008588716,25.815772008588716 0 0,0 -0.0704626076829144,-0.4387707253033265 l 4.761245864559849 -0.7226325870858118" fill="#ff4106" stroke="none" /><path d="M 79.18660465613746 102.79330883721812 l -14.242829516691573 1.9114911766521265 a35.370525082959205,35.370525082959205 0 0,0 -0.0757914402799841,-0.6041323508947309 l 14.273622466218406 -1.666041071469987" fill="#ffc011" stroke="none" /><path d="M 79.1416061653843 102.43462659150553 l -0.19494822602740305 0.022754682782212942 a21.19627171579153,21.19627171579153 0 0,0 -0.03918049927454177,-0.36276276271357316 l 0.19531102680299672 -0.0193955981838577" fill="#ff0000" stroke="none" /><path d="M 79.07016306316243 101.71520430193888 l -0.7485544517430263 0.061344186280083625 a21.751063829787235,21.751063829787235 0 0,0 -0.027368474242603826,-0.37342108668628327 l 0.7494994846499654 -0.048449963097039694" fill="#ff0801" stroke="none" /><path d="M 79.0235259727143 100.99374915477108 l -8.655644673449183 0.4100565026824926 a29.66535233261761,29.66535233261761 0 0,0 -0.0197738886130619,-0.510276201804185 l 8.661420694913446 -0.26100305386431083" fill="#ff760a" stroke="none" /><line stroke="#e1ed5e" stroke-width="0.3" x1="15.007084014347285" x2="10.007500721073583" y1="101.09737516637583" y2="101.16192664675087" /><path d="M 14.007167355692545 101.11028546245083 a86.0,86.0 0 0,1 10.666146001902534,-42.60595125391555" fill="none" id="id106" stroke="none" /><text fill="#e1ed5e" style="font-size:6.75px; font-family:Arial;" text-anchor="middle"><textPath startOffset="22.20632615414155" xlink:href="#id106">October</textPath></text><path d="M 79.00175016825051 100.2711162175752 l -10.735763400542522 0.13861343632251175 a31.736658208081202,31.736658208081202 0 0,0 -0.0023510859617346842,-0.5463095778909944 l 10.73655878379376 0.046205619772158014" fill="#ff910d" stroke="none" /><path d="M 79.00019446554 99.90962569577889 l -0.7894324709574622 -0.003397384331739002 a21.7894397813781,21.7894397813781 0 0,0 0.004842436208031296,-0.3750520208639495 l 0.7892570276317153 0.016985663256160473" fill="#ff0901" stroke="none" /><path d="M 79.01574976396665 99.18683210126434 l -62.95275070810006 -2.4395036962069616 a84.0,84.0 0 0,0 0.06842556706600478,-1.4443555735079636 l 62.90143153280056 3.522770376337934" fill="#4dd2ff" stroke="none" /><path d="M 79.05617556472873 98.46500227214037 l -8.95698278649508 -0.6564678895318344 a29.981007222330664,29.981007222330664 0 0,0 0.042152605421461854,-0.5143685547761343 l 8.944355697254121 0.8105503615157471" fill="#ff7a0b" stroke="none" /><path d="M 79.21141760316559 97.0276538004421 l -2.7768930133031073 -0.3970394535380752 a23.805133710716376,23.805133710716376 0 0,0 0.06148991474741705,-0.40514171037309354 l 2.7696472051163883 0.4447802763032608" fill="#ff2503" stroke="none" /><path d="M 79.26566170972629 96.67025291283419 l -5.046910971734211 -0.8104882283704323 a26.11157524887761,26.11157524887761 0 0,0 0.07508711533592086,-0.4431684051505072 l 5.032211994878067 0.8972424218367675" fill="#ff4506" stroke="none" /><path d="M 79.46518482838121 95.60439243477599 l -22.389959345103428 -4.792712954067275 a43.89716962717158,43.89716962717158 0 0,0 0.1645216021134322,-0.7375180828302196 l 22.30414335598796 5.177409206447454" fill="#d7ff1c" stroke="none" /><path d="M 79.54389044137918 95.25157060432595 l -6.95085228172614 -1.6134852624323597 a28.135662697638104,28.135662697638104 0 0,0 0.11357053998500154,-0.47082320899999264 l 6.922048941480323 1.732893703091749" fill="#ff6109" stroke="none" /><path d="M 79.71946130924805 94.55025226153421 l -2.093108886152044 -0.5624562341567074 a23.167362873316417,23.167362873316417 0 0,0 0.10680510558222657,-0.38423479135084554 l 2.083117010003457 0.5984023289264956" fill="#ff1c02" stroke="none" /><path d="M 79.81627453868168 94.20196356495316 l -2.090002323895338 -0.6003802244784525 a23.174526644544212,23.174526644544212 0 0,0 0.11343831791841745,-0.38245761481230256 l 2.0793581088652133 0.6362672260372942" fill="#ff1c02" stroke="none" /><path d="M 79.91906864156998 93.8553929516997 l -3.9403482451304157 -1.205715570041122 a25.12069100136639,25.12069100136639 0 0,0 0.13008273287390584,-0.41239781152259664 l 3.9190100284883056 1.273363547990133" fill="#ff3805" stroke="none" /><path d="M 80.02781315780177 93.51064311812611 l -2.0663898062131025 -0.671410748133535 a23.17273082178411,23.17273082178411 0 0,0 0.12652609651066793,-0.37829692402135784 l 2.054526415930662 0.7068807750772149" fill="#ff1c02" stroke="none" /><path d="M 80.14247586403 93.16781622104843 l -13.85327317270409 -4.766359975586678 a35.65030255709545,35.65030255709545 0 0,0 0.20464448292647738,-0.5785575109555994 l 13.769175608967803 5.004115112968888" fill="#ffc312" stroke="none" /><path d="M 80.2630227832202 92.82701384747504 l -2.413043278492202 -0.8769694483587189 a23.567460472379466,23.567460472379466 0 0,0 0.14184851735133472,-0.3800835038557368 l 2.39759017263924 0.9183760892437971" fill="#ff2203" stroke="none" /><path d="M 80.65960295795067 91.81776055985345 l -4.629485184711844 -1.9585718009597588 a26.026742143275424,26.026742143275424 0 0,0 0.1781087923103694,-0.4110996491689745 l 4.595085682558795 2.0379705947153326" fill="#ff4406" stroke="none" /><path d="M 80.803312248108 91.48605970444005 l -3.954125474407219 -1.7536977548086488 a25.325570954518838,25.325570954518838 0 0,0 0.18017055343739777,-0.3969819319874337 l 3.9233526040064697 1.8215016956381533" fill="#ff3b05" stroke="none" /><path d="M 80.95270993114464 91.15688171328213 l -6.228509707791423 -2.8917209690648713 a27.86705055631466,27.86705055631466 0 0,0 0.20574085002639275,-0.4333427006139656 l 6.177810663923278 2.9985060853193692" fill="#ff5d08" stroke="none" /><path d="M 81.26839172434947 90.50648371742162 l -10.158192798324462 -5.148354979098269 a32.38834667187195,32.38834667187195 0 0,0 0.25631608059072064,-0.4951210839314083 l 10.068067284573628 5.322448785290013" fill="#ff9a0e" stroke="none" /><path d="M 81.6062741919709 89.86733742301443 l -5.342033247556489 -2.942798046326225 a27.098965449931683,27.098965449931683 0 0,0 0.22858926944456315,-0.40663480366576255 l 5.290586336819495 3.034316359926772" fill="#ff5307" stroke="none" /><line stroke="#e1ed5e" stroke-width="0.3" x1="26.266209847984243" x2="21.928928074336255" y1="57.711370442889674" y2="55.22380399835377" /><path d="M 25.398753493254645 57.213857153982495 a86.0,86.0 0 0,1 29.58750427330803,-30.492523968695096" fill="none" id="id107" stroke="none" /><text fill="#e1ed5e" style="font-size:6.75px; font-family:Arial;" text-anchor="middle"><textPath startOffset="21.46611528233685" xlink:href="#id107">November</textPath></text><path d="M 81.78341655067845 89.55222093294921 l -1.876740045536006 -1.076368980857236 a23.163497950419675,23.163497950419675 0 0,0 0.20134630744169627,-0.34416610678235093 l 1.857934063623987 1.1085144999934788" fill="#ff1c02" stroke="none" /><path d="M 81.96595687620814 89.24020034530311 l -2.750961413090807 -1.641328761358493 a24.203396447394105,24.203396447394105 0 0,0 0.21654456287051418,-0.35594232480003357 l 2.722301051934074 1.688438859365601" fill="#ff2b04" stroke="none" /><path d="M 82.15384107792192 88.93136811851018 l -6.795169313333237 -4.214533112143966 a28.996037478040208,28.996037478040208 0 0,0 0.2667254409035801,-0.4218955932562834 l 6.721616276183695 4.330876353114466" fill="#ff6d0a" stroke="none" /><path d="M 82.34701348167596 88.62581576622439 l -4.045863732978374 -2.6068336615948464 a25.812961155572907,25.812961155572907 0 0,0 0.2438751592686177,-0.3714385988790619 l 4.000391938351836 2.6760903244515752" fill="#ff4106" stroke="none" /><path d="M 82.54541684631803 88.32363383020206 l -5.886563563157287 -3.9378580995052803 a28.08225649033769,28.08225649033769 0 0,0 0.27223144620228473,-0.3994660557057558 l 5.817907651286262 4.038602178481452" fill="#ff6008" stroke="none" /><path d="M 82.7489923806493 88.02491185347247 l -1.7822497456549566 -1.2371797795396056 a23.169568612141322,23.169568612141322 0 0,0 0.23024745590200313,-0.32566869776421686 l 1.7606896699490753 1.2676749776356084" fill="#ff1c02" stroke="none" /><path d="M 82.95767976084542 87.72973835380427 l -2.398578696459099 -1.7269472566843536 a23.95559242631271,23.95559242631271 0 0,0 0.24381932099467946,-0.3325692798270789 l 2.368496762950786 1.7679789801829355" fill="#ff2703" stroke="none" /><path d="M 83.17141714833178 87.43820079747577 l -1.73906149402514 -1.298133151278394 a23.17013468670701,23.17013468670701 0 0,0 0.24132694877289299,-0.3175579765581634 l 1.7164586050281383 1.3278759037175818" fill="#ff1c02" stroke="none" /><path d="M 83.39014120810768 87.1503855733568 l -2.540660106888451 -1.9654894825840579 a24.212180363068516,24.212180363068516 0 0,0 0.257855016101098,-0.3274496848615294 l 2.506451010193382 2.008931561398635" fill="#ff2b04" stroke="none" /><path d="M 83.6137871275137 86.86637796730984 l -3.1555298252115573 -2.529171100101861 a25.044017177435098,25.044017177435098 0 0,0 0.27250455664326895,-0.3340583651431755 l 3.1115267764918957 2.5831136348531185" fill="#ff3705" stroke="none" /><path d="M 83.84228863543731 86.58626213691792 l -10.516247109963706 -8.730331843024942 a34.66785086863166,34.66785086863166 0 0,0 0.3851257933744261,-0.4558674644269102 l 10.364410703102156 8.910058257080967" fill="#ffb711" stroke="none" /><path d="M 84.07557802195018 86.31012108654704 l -2.2404732010294874 -1.9260860377354976 a23.954577396056997,23.954577396056997 0 0,0 0.27149449165789713,-0.31036513653332 l 2.2069868457937467 1.9643667304717607" fill="#ff2703" stroke="none" /><path d="M 84.31358615837235 86.03803664274999 l -2.1932809359277554 -1.9521675488577375 a23.936228772203787,23.936228772203787 0 0,0 0.2765846729164022,-0.3054117039423934 l 2.1593526223953083 1.989632040069687" fill="#ff2703" stroke="none" /><path d="M 84.5562425177563 85.77008943001954 l -1.7262561636245974 -1.5905760536254423 a23.34731602576615,23.34731602576615 0 0,0 0.2748675936120097,-0.29320958427655963 l 1.6986212480421297 1.620055054780052" fill="#ff1f03" stroke="none" /><path d="M 84.80347519578584 85.50635884689758 l -4.7084041311953575 -4.49062669001838 a27.506519617411673,27.506519617411673 0 0,0 0.3297320937549464,-0.3398179068837858 l 4.630407773737298 4.5710087924522895" fill="#ff5908" stroke="none" /><path d="M 85.05521093208273 85.24692304244772 l -5.602500436513678 -5.530631427381222 a28.87247706422018,28.87247706422018 0 0,0 0.35219499925445225,-0.35068256200045145 l 5.50646963709191 5.626249840031784" fill="#ff6b09" stroke="none" /><path d="M 85.31137513191541 84.99185889309783 l -7.425085330057084 -7.586600472479593 a31.615479211399574,31.615479211399574 0 0,0 0.39220771884726396,-0.37730351478530255 l 7.293394367597393 7.713287074027204" fill="#ff8f0d" stroke="none" /><path d="M 85.57189188830299 84.74124197986013 l -13.443596231121386 -14.217566171745167 a40.567050556314655,40.567050556314655 0 0,0 0.5115159602384579,-0.475398338018422 l 13.196872387088073 14.44686909583824" fill="#feff18" stroke="none" /><path d="M 86.10567301691215 84.25364557470407 l -1.9667195575867784 -2.228871052669025 a23.972516103845404,23.972516103845404 0 0,0 0.31176394333334606,-0.2703586194857638 l 1.928061815606659 2.2623946655744693" fill="#ff2803" stroke="none" /><path d="M 86.37877921826538 84.01681056812374 l -1.9295938120322917 -2.264192315687643 a23.974878001171188,23.974878001171188 0 0,0 0.31640270192140113,-0.2649781636045896 l 1.8903335731517803 2.297071636686045" fill="#ff2803" stroke="none" /><path d="M 86.65592168130627 83.78471172551755 l -3.029125499939386 -3.6808944033469335 a25.76703103650205,25.76703103650205 0 0,0 0.34490594540208397,-0.2788899545810795 l 2.9653161559728014 3.7324904551921496" fill="#ff4106" stroke="none" /><path d="M 86.93701828274178 83.55741782278169 l -4.198080946700032 -5.2841910405136625 a27.748819051337108,27.748819051337108 0 0,0 0.376548098209666,-0.29390176335961027 l 4.1065002933309405 5.355671193096493" fill="#ff5c08" stroke="none" /><path d="M 87.22198572758235 83.33499621200491 l -4.912283776101785 -6.406568813524593 a29.073082178411088,29.073082178411088 0 0,0 0.39976020481498137,-0.30109109836844805 l 4.801277417528414 6.490176501398895" fill="#ff6e0a" stroke="none" /><path d="M 87.51073957382395 83.11751280151077 l -0.19173347573382735 -0.25917771262211325 a21.32238922506344,21.32238922506344 0 0,0 0.29694440930464105,-0.21574274181325315 l 0.18724375007540459 0.26243968925203426" fill="#ff0200" stroke="none" /><path d="M 87.80319425747018 82.90503203632743 l -2.658496196048196 -3.7261319285030137 a25.577298457934802,25.577298457934802 0 0,0 0.36060198128425525,-0.2526247324441008 l 2.5939630751802802 3.771341503711057" fill="#ff3e05" stroke="none" /><path d="M 88.09926311788651 82.69761687909137 l -4.967185694635612 -7.221750280896801 a29.76507905524107,29.76507905524107 0 0,0 0.4246418074080218,-0.2867200439220839 l 4.84213919282105 7.30618223711755" fill="#ff770b" stroke="none" /><path d="M 88.39885842347998 82.49532879139004 l -4.595069157777199 -6.933384465414148 a29.317841108725357,29.317841108725357 0 0,0 0.423060599464797,-0.2751703820880752 l 4.475041532528114 7.011453771661758" fill="#ff710a" stroke="none" /><path d="M 88.70189139769569 82.29822771554957 l -0.14905148154681025 -0.23353248564662124 a21.277044700370876,21.277044700370876 0 0,0 0.31042280906253905,-0.19438673455671956 l 0.14500952011202897 0.23606356152627103" fill="#ff0100" stroke="none" /><path d="M 89.00827224532344 82.1063720568725 l -5.669981558008268 -9.230263222288096 a31.83265664649619,31.83265664649619 0 0,0 0.4693618109916272,-0.28278523939730876 l 5.510257680798994 9.326495071144024" fill="#ff920d" stroke="none" /><line stroke="#e1ed5e" stroke-width="0.3" x1="56.76296977257108" x2="54.21961505331056" y1="26.818313649435495" y2="22.513508569990535" /><path d="M 56.25429882871898 25.957352633546506 a86.0,86.0 0 0,1 42.26535254187918,-11.944610805530505" fill="none" id="id108" stroke="none" /><text fill="#e1ed5e" style="font-size:6.75px; font-family:Arial;" text-anchor="middle"><textPath startOffset="22.20632615414155" xlink:href="#id108">December</textPath></text><path d="M 89.3179101791058 81.91981866633112 l -1.518883693596412 -2.5708164849223345 a23.985984774546164,23.985984774546164 0 0,0 0.35728068631024124,-0.2069600343834948 l 1.4744062748208482 2.5965806766958766" fill="#ff2803" stroke="none" /><path d="M 89.63071344664047 81.73862282372117 l -7.038484688786337 -12.395493459455784 a35.254421237556116,35.254421237556116 0 0,0 0.5302867820309933,-0.2951040200709327 l 6.824073817683297 12.514812877086902" fill="#ffbe11" stroke="none" /><path d="M 89.94658935756843 81.56283822128135 l -1.7844259556016087 -3.272496389107425 a24.72738629709155,24.72738629709155 0 0,0 0.3754499812969403,-0.20055237735256298 l 1.727830927776363 3.302727492961737" fill="#ff3204" stroke="none" /><path d="M 91.23893434514133 80.91482961587045 l -2.979273737023296 -6.490071999462627 a28.141225844231897,28.141225844231897 0 0,0 0.4419752138901249,-0.19830139520424525 l 2.8671164046663966 6.540393725183401" fill="#ff6109" stroke="none" /><path d="M 91.56875222667455 80.76684994638697 l -1.1891113427720394 -2.7125708437064935 a23.961760687097403,23.961760687097403 0 0,0 0.3791848699173395,-0.16234717244776056 l 1.1422427150643917 2.73263754411704" fill="#ff2703" stroke="none" /><path d="M 91.90106846888425 80.62456947434976 l -1.2315257132695292 -2.946233192160144 a24.19326566464962,24.19326566464962 0 0,0 0.3856131554900866,-0.1573012882941216 l 1.1806286881910621 2.9669953666378426" fill="#ff2b04" stroke="none" /><path d="M 92.23578459929587 80.48803036053334 l -2.635869685215484 -6.624109020320429 a28.1292797189147,28.1292797189147 0 0,0 0.45143051531939965,-0.17514802655007783 l 2.521456004896407 6.668499750761058" fill="#ff6109" stroke="none" /><path d="M 93.59665428221793 80.00007090966166 l -1.9208013471589782 -5.999346659219895 a27.299336326371268,27.299336326371268 0 0,0 0.4487681054834629,-0.13943443486491244 l 1.8172478689647866 6.031521228967333" fill="#ff5607" stroke="none" /><path d="M 93.94186890950719 79.89281104454417 l -1.4090759160592425 -4.676781547571372 a25.88444270934999,25.88444270934999 0 0,0 0.4277216585201007,-0.12486368102215985 l 1.3283640398157206 4.700343557512231" fill="#ff4206" stroke="none" /><path d="M 94.28887869178378 79.79150937346287 l -0.5244285462548662 -1.8556617500023003 a22.928342767909427,22.928342767909427 0 0,0 0.3807219771320007,-0.10406569820618226 l 0.492408679899143 1.8644139890347784" fill="#ff1902" stroke="none" /><path d="M 94.63758080256005 79.69619591428918 l -2.3478995295335707 -8.88988538668159 a30.194710130782745,30.194710130782745 0 0,0 0.5036637413117235,-0.12839510220136058 l 2.194526899536848 8.928983485051814" fill="#ff7d0b" stroke="none" /><path d="M 95.33964822691252 79.52364482259891 l -1.5186093899928055 -6.672368687874448 a27.843002147179387,27.843002147179387 0 0,0 0.46823613284216853,-0.10233828277380987 l 1.403530532997116 6.697520468744126" fill="#ff5d08" stroke="none" /><path d="M 95.692805502759 79.44645832069477 l -1.653691563053544 -7.891266226242717 a29.062678118290066,29.062678118290066 0 0,0 0.49051377885554454,-0.0983924495243733 l 1.5176113747308633 7.918562631844301" fill="#ff6e0a" stroke="none" /><path d="M 96.04723909329186 79.375362276772 l -1.3233223172155242 -6.9048050281296804 a28.030470427483895,28.030470427483895 0 0,0 0.47465581151401626,-0.08674031563059355 l 1.2042713845986148 6.92656082511101" fill="#ff6008" stroke="none" /><path d="M 96.40284397218896 79.31037775812273 l -1.2474975756581141 -7.175183224879552 a28.282822564903377,28.282822564903377 0 0,0 0.48036460842176787,-0.07926427631238132 l 1.1238037610974607 7.19559376413156" fill="#ff6309" stroke="none" /><path d="M 96.75951476605007 79.25152402106235 l -1.1765573173167507 -7.533369070913407 a28.624692562951395,28.624692562951395 0 0,0 0.4874799041049896,-0.07184186606019186 l 1.0467084327831124 7.552505421134568" fill="#ff6809" stroke="none" /><path d="M 97.11714578562143 79.19881850522333 l -1.6488190761080064 -11.89702367990392 a33.01073589693539,33.01073589693539 0 0,0 0.5635172676270613,-0.07316071439186661 l 1.4437870799730874 11.923642717459924" fill="#ffa20e" stroke="none" /><path d="M 97.47563105711357 79.15227682838746 l -1.7085099263033663 -14.109879651267455 a35.212941635760295,35.212941635760295 0 0,0 0.6023648144254321,-0.06768270545823468 l 1.4653784083682162 14.137198310196288" fill="#ffbe11" stroke="none" /><path d="M 97.83486435360386 79.11191278185805 l -1.7831461717580823 -17.202854158525973 a38.295022447784504,38.295022447784504 0 0,0 0.6562579207844284,-0.06231959713961777 l 1.4867631238834176 17.230999300180773" fill="#ffe415" stroke="none" /><path d="M 98.55514903715128 79.0497635885617 l -1.045520227236734 -15.15996908799773 a36.19597891860238,36.19597891860238 0 0,0 0.6219468034872705,-0.037517529649396475 l 0.7844113749098407 15.175719887027434" fill="#ffca12" stroke="none" /><path d="M 98.91598698831166 79.02799685794201 l -0.1461119719769054 -2.8267748655704774 a23.830548506734335,23.830548506734335 0 0,0 0.40983909820942893,-0.017648533688344285 l 0.09743204137815235 2.828871125783014" fill="#ff2603" stroke="none" /><path d="M 99.27714615592234 79.0124445844662 l -0.7090327909626926 -20.58627081211362 a41.598477454616436,41.598477454616436 0 0,0 0.7158372270735575,-0.018487963649776257 l 0.3545689286942561 20.59542556790576" fill="#f2ff19" stroke="none" /><path d="M 99.63851952072746 79.00311137660856 l -0.048917784423496896 -2.841429427420979 a23.841850478235408,23.841850478235408 0 0,0 0.41039826369603194,-0.003532427422987606 l 6.960526183652734e-16 2.8418504782354077" fill="#ff2603" stroke="none" /></svg>